SplineFontDB: 3.0
FontName: ElaineSans-ThinItalic
FullName: Elaine Sans Thin Italic
FamilyName: Elaine Sans Thin
Weight: Thin
Copyright: Copyright (c) 2015 by Wei Huang. All rights reserved.
Version: 1.030;PS 001.030;hotconv 1.0.70;makeotf.lib2.5.58329
ItalicAngle: -13
UnderlinePosition: -250
UnderlineWidth: 50
Ascent: 760
Descent: 240
InvalidEm: 0
sfntRevision: 0x000107ae
LayerCount: 2
Layer: 0 1 "Back" 1
Layer: 1 1 "Fore" 0
XUID: [1021 288 1899785369 8598]
StyleMap: 0x0001
FSType: 4
OS2Version: 3
OS2_WeightWidthSlopeOnly: 0
OS2_UseTypoMetrics: 0
CreationTime: 1436215487
ModificationTime: 1543787617
PfmFamily: 81
TTFWeight: 100
TTFWidth: 5
LineGap: 0
VLineGap: 0
Panose: 0 0 2 0 0 0 0 0 0 0
OS2TypoAscent: 760
OS2TypoAOffset: 0
OS2TypoDescent: -240
OS2TypoDOffset: 0
OS2TypoLinegap: 173
OS2WinAscent: 930
OS2WinAOffset: 0
OS2WinDescent: 243
OS2WinDOffset: 0
HheadAscent: 930
HheadAOffset: 0
HheadDescent: -243
HheadDOffset: 0
OS2SubXSize: 650
OS2SubYSize: 600
OS2SubXOff: 0
OS2SubYOff: 75
OS2SupXSize: 650
OS2SupYSize: 600
OS2SupXOff: 0
OS2SupYOff: 350
OS2StrikeYSize: 50
OS2StrikeYPos: 300
OS2CapHeight: 660
OS2XHeight: 500
OS2Vendor: 'UKWN'
OS2CodePages: 20000093.00000000
OS2UnicodeRanges: 00000007.00000001.00000000.00000000
Lookup: 1 0 0 "'aalt' Access All Alternates lookup 0" { "'aalt' Access All Alternates lookup 0 subtable"  } ['aalt' ('DFLT' <'dflt' > 'grek' <'dflt' > 'latn' <'CAT ' 'MOL ' 'NLD ' 'ROM ' 'TRK ' 'dflt' > ) ]
Lookup: 3 0 0 "'aalt' Access All Alternates lookup 1" { "'aalt' Access All Alternates lookup 1 subtable"  } ['aalt' ('DFLT' <'dflt' > 'grek' <'dflt' > 'latn' <'CAT ' 'MOL ' 'NLD ' 'ROM ' 'TRK ' 'dflt' > ) ]
Lookup: 1 0 0 "'locl' Localized Forms in Latin lookup 2" { "'locl' Localized Forms in Latin lookup 2 subtable"  } ['locl' ('latn' <'TRK ' > ) ]
Lookup: 1 0 0 "'locl' Localized Forms in Latin lookup 3" { "'locl' Localized Forms in Latin lookup 3 subtable"  } ['locl' ('latn' <'TAT ' > ) ]

StartChar: .notdef
Encoding: 65536 -1 0
Width: 500
Flags: W
LayerCount: 2
Fore
SplineSet
-14 0 m 1,0,-1
 138.373046875 660 l 1,1,-1
 538.373046875 660 l 1,2,-1
 386 0 l 1,3,-1
 -14 0 l 1,0,-1
84.4697265625 80 m 1,4,-1
 324.469726562 80 l 1,5,-1
 439.903320312 580 l 1,6,-1
 199.903320312 580 l 1,7,-1
 84.4697265625 80 l 1,4,-1
EndSplineSet
EndChar

StartChar: exclam
Encoding: 33 33 4
Width: 202
GlyphClass: 2
Flags: W
LayerCount: 2
Fore
SplineSet
204.373046875 660 m 1,0,-1
 125.416015625 318 l 1,1,-1
 91.0947265625 178 l 1,2,-1
 65.0947265625 178 l 1,3,-1
 94.416015625 318 l 1,4,-1
 173.373046875 660 l 1,5,-1
 204.373046875 660 l 1,0,-1
50.1591796875 57 m 128,-1,7
 64.1591796875 57 64.1591796875 57 70.58203125 48 c 128,-1,8
 77.00390625 39 77.00390625 39 73.771484375 25 c 128,-1,9
 70.5390625 11 70.5390625 11 60.0771484375 2.5 c 128,-1,10
 49.615234375 -6 49.615234375 -6 35.615234375 -6 c 128,-1,11
 21.615234375 -6 21.615234375 -6 14.5771484375 2.5 c 128,-1,12
 7.5390625 11 7.5390625 11 10.771484375 25 c 128,-1,13
 14.00390625 39 14.00390625 39 25.08203125 48 c 128,-1,6
 36.1591796875 57 36.1591796875 57 50.1591796875 57 c 128,-1,7
EndSplineSet
Substitution2: "'smcp' Lowercase to Small Capitals lookup 12 subtable" exclam.sc
Substitution2: "'c2sc' Capitals to Small Capitals lookup 11 subtable" exclam.sc
Substitution2: "'aalt' Access All Alternates lookup 0 subtable" exclam.sc
EndChar

StartChar: quotedbl
Encoding: 34 34 5
Width: 276
GlyphClass: 2
Flags: W
LayerCount: 2
Fore
SplineSet
195.452148438 682 m 1,0,-1
 148.357421875 504 l 1,1,-1
 122.357421875 504 l 1,2,-1
 163.452148438 682 l 1,3,-1
 195.452148438 682 l 1,0,-1
304.452148438 682 m 1,4,-1
 257.357421875 504 l 1,5,-1
 230.357421875 504 l 1,6,-1
 271.452148438 682 l 1,7,-1
 304.452148438 682 l 1,4,-1
EndSplineSet
Substitution2: "'smcp' Lowercase to Small Capitals lookup 12 subtable" quotedbl.sc
Substitution2: "'c2sc' Capitals to Small Capitals lookup 11 subtable" quotedbl.sc
Substitution2: "'aalt' Access All Alternates lookup 0 subtable" quotedbl.sc
EndChar

StartChar: numbersign
Encoding: 35 35 6
Width: 604
GlyphClass: 2
Flags: W
LayerCount: 2
Fore
SplineSet
605.889648438 437 m 1,0,-1
 471.889648438 437 l 1,1,-1
 393.561523438 232 l 1,2,-1
 524.561523438 232 l 1,3,-1
 518.790039062 207 l 1,4,-1
 383.790039062 207 l 1,5,-1
 305 0 l 1,6,-1
 277 0 l 1,7,-1
 356.790039062 207 l 1,8,-1
 176.790039062 207 l 1,9,-1
 97 0 l 1,10,-1
 70 0 l 1,11,-1
 148.790039062 207 l 1,12,-1
 18.7900390625 207 l 1,13,-1
 24.5615234375 232 l 1,14,-1
 158.561523438 232 l 1,15,-1
 236.889648438 437 l 1,16,-1
 105.889648438 437 l 1,17,-1
 111.661132812 462 l 1,18,-1
 245.661132812 462 l 1,19,-1
 321.373046875 660 l 1,20,-1
 349.373046875 660 l 1,21,-1
 273.661132812 462 l 1,22,-1
 453.661132812 462 l 1,23,-1
 529.373046875 660 l 1,24,-1
 557.373046875 660 l 1,25,-1
 481.661132812 462 l 1,26,-1
 611.661132812 462 l 1,27,-1
 605.889648438 437 l 1,0,-1
365.561523438 232 m 1,28,-1
 443.889648438 437 l 1,29,-1
 264.889648438 437 l 1,30,-1
 185.561523438 232 l 1,31,-1
 365.561523438 232 l 1,28,-1
EndSplineSet
Substitution2: "'tnum' Tabular Numbers lookup 26 subtable" numbersign.tf
Substitution2: "'aalt' Access All Alternates lookup 0 subtable" numbersign.tf
EndChar

StartChar: dollar
Encoding: 36 36 7
Width: 604
GlyphClass: 2
Flags: W
LayerCount: 2
Fore
SplineSet
513.016601562 169 m 0,0,1
 495.701171875 94 495.701171875 94 426.965820312 47.5 c 128,-1,2
 358.23046875 1 358.23046875 1 262 0 c 1,3,-1
 238.913085938 -100 l 1,4,-1
 212.913085938 -100 l 1,5,-1
 236.23046875 1 l 1,6,7
 152.384765625 6 152.384765625 6 105.54296875 50 c 128,-1,8
 58.701171875 94 58.701171875 94 57.478515625 171 c 1,9,-1
 88.94140625 186 l 1,10,11
 85.7802734375 116 85.7802734375 116 127.583984375 74 c 128,-1,12
 169.387695312 32 169.387695312 32 242.002929688 26 c 1,13,-1
 308.954101562 316 l 1,14,15
 272.801757812 324 272.801757812 324 251.301757812 330.5 c 128,-1,16
 229.802734375 337 229.802734375 337 202.303710938 350 c 128,-1,17
 174.8046875 363 174.8046875 363 161.499023438 379 c 128,-1,18
 148.193359375 395 148.193359375 395 142.426757812 422 c 128,-1,19
 136.66015625 449 136.66015625 449 144.509765625 483 c 0,20,21
 161.131835938 555 161.131835938 555 228.40625 606 c 128,-1,22
 295.680664062 657 295.680664062 657 388.373046875 660 c 1,23,-1
 411.459960938 760 l 1,24,-1
 437.459960938 760 l 1,25,-1
 414.373046875 660 l 1,26,27
 570.98828125 654 570.98828125 654 585.666015625 514 c 1,28,-1
 556.279296875 495 l 1,29,30
 548.985351562 628 548.985351562 628 408.370117188 634 c 1,31,-1
 340.033203125 338 l 1,32,33
 378.956054688 329 378.956054688 329 400.185546875 323.5 c 128,-1,34
 421.416015625 318 421.416015625 318 451.299804688 304.5 c 128,-1,35
 481.182617188 291 481.182617188 291 494.48828125 275 c 128,-1,36
 507.794921875 259 507.794921875 259 514.561523438 232 c 128,-1,37
 521.328125 205 521.328125 205 513.016601562 169 c 0,0,1
174.740234375 484 m 0,38,39
 166.890625 450 166.890625 450 174.119140625 425 c 128,-1,40
 181.34765625 400 181.34765625 400 204.768554688 384.5 c 128,-1,41
 228.190429688 369 228.190429688 369 252.727539062 360.5 c 128,-1,42
 277.265625 352 277.265625 352 315.418945312 344 c 1,43,-1
 382.370117188 634 l 1,44,45
 301.677734375 631 301.677734375 631 245.596679688 589.5 c 128,-1,46
 189.515625 548 189.515625 548 174.740234375 484 c 0,38,39
267.771484375 25 m 1,47,48
 349.233398438 27 349.233398438 27 408.775390625 64 c 128,-1,49
 468.317382812 101 468.317382812 101 483.786132812 168 c 0,50,51
 491.866210938 203 491.866210938 203 483.637695312 228 c 128,-1,52
 475.409179688 253 475.409179688 253 449.98828125 268.5 c 128,-1,53
 424.56640625 284 424.56640625 284 399.529296875 292.5 c 128,-1,54
 374.491210938 301 374.491210938 301 333.569335938 310 c 1,55,-1
 267.771484375 25 l 1,47,48
EndSplineSet
Substitution2: "'tnum' Tabular Numbers lookup 26 subtable" dollar.tf
Substitution2: "'aalt' Access All Alternates lookup 0 subtable" dollar.tf
EndChar

StartChar: percent
Encoding: 37 37 8
Width: 777
GlyphClass: 2
Flags: W
LayerCount: 2
Fore
SplineSet
271.834960938 662 m 0,0,1
 340.834960938 662 340.834960938 662 366.022460938 613 c 128,-1,2
 391.209960938 564 391.209960938 564 374.356445312 491 c 0,3,4
 357.733398438 419 357.733398438 419 310.037109375 370.5 c 128,-1,5
 262.33984375 322 262.33984375 322 193.33984375 322 c 0,6,7
 123.33984375 322 123.33984375 322 97.537109375 370.5 c 128,-1,8
 71.7333984375 419 71.7333984375 419 88.3564453125 491 c 0,9,10
 105.209960938 564 105.209960938 564 153.522460938 613 c 128,-1,11
 201.834960938 662 201.834960938 662 271.834960938 662 c 0,0,1
88 0 m 1,12,-1
 681.373046875 660 l 1,13,-1
 712.373046875 660 l 1,14,-1
 119 0 l 1,15,-1
 88 0 l 1,12,-1
266.063476562 637 m 0,16,17
 209.063476562 637 209.063476562 637 169.982421875 595.5 c 128,-1,18
 130.901367188 554 130.901367188 554 116.356445312 491 c 128,-1,19
 101.811523438 428 101.811523438 428 121.9609375 387.5 c 128,-1,20
 142.111328125 347 142.111328125 347 199.111328125 347 c 0,21,22
 255.111328125 347 255.111328125 347 293.4609375 387.5 c 128,-1,23
 331.811523438 428 331.811523438 428 346.356445312 491 c 128,-1,24
 360.901367188 554 360.901367188 554 341.482421875 595.5 c 128,-1,25
 322.063476562 637 322.063476562 637 266.063476562 637 c 0,16,17
609.033203125 338 m 128,-1,27
 679.033203125 338 679.033203125 338 704.220703125 289 c 128,-1,28
 729.408203125 240 729.408203125 240 712.5546875 167 c 0,29,30
 695.932617188 95 695.932617188 95 648.235351562 46.5 c 128,-1,31
 600.538085938 -2 600.538085938 -2 530.538085938 -2 c 0,32,33
 461.538085938 -2 461.538085938 -2 435.235351562 46.5 c 128,-1,34
 408.932617188 95 408.932617188 95 425.5546875 167 c 0,35,36
 442.408203125 240 442.408203125 240 490.720703125 289 c 128,-1,26
 539.033203125 338 539.033203125 338 609.033203125 338 c 128,-1,27
603.26171875 313 m 0,37,38
 546.26171875 313 546.26171875 313 507.180664062 271.5 c 128,-1,39
 468.099609375 230 468.099609375 230 453.5546875 167 c 128,-1,40
 439.010742188 104 439.010742188 104 459.16015625 63.5 c 128,-1,41
 479.309570312 23 479.309570312 23 536.309570312 23 c 128,-1,42
 593.309570312 23 593.309570312 23 631.66015625 63.5 c 128,-1,43
 670.010742188 104 670.010742188 104 684.5546875 167 c 128,-1,44
 699.099609375 230 699.099609375 230 679.180664062 271.5 c 128,-1,45
 659.26171875 313 659.26171875 313 603.26171875 313 c 0,37,38
EndSplineSet
EndChar

StartChar: ampersand
Encoding: 38 38 9
Width: 583
GlyphClass: 2
Flags: W
LayerCount: 2
Fore
SplineSet
413.317382812 101 m 1,0,1
 446.54296875 50 446.54296875 50 471.772460938 31.5 c 128,-1,2
 497.000976562 13 497.000976562 13 529.000976562 13 c 1,3,-1
 517.69140625 -10 l 1,4,5
 481.69140625 -10 481.69140625 -10 454.193359375 9.5 c 128,-1,6
 426.6953125 29 426.6953125 29 393.700195312 81 c 1,7,8
 298.69140625 -10 298.69140625 -10 172.69140625 -10 c 0,9,10
 88.69140625 -10 88.69140625 -10 43.8876953125 32 c 128,-1,11
 -0.916015625 74 -0.916015625 74 15.2451171875 144 c 0,12,13
 31.1748046875 213 31.1748046875 213 83.91015625 259.5 c 128,-1,14
 136.645507812 306 136.645507812 306 237.419921875 357 c 1,15,16
 201.887695312 424 201.887695312 424 192.353515625 458.5 c 128,-1,17
 182.818359375 493 182.818359375 493 191.590820312 531 c 0,18,19
 205.443359375 591 205.443359375 591 253.215820312 629 c 128,-1,20
 300.989257812 667 300.989257812 667 365.989257812 667 c 0,21,22
 427.989257812 667 427.989257812 667 458.986328125 634.5 c 128,-1,23
 489.982421875 602 489.982421875 602 476.823242188 545 c 0,24,25
 463.89453125 489 463.89453125 489 420.736328125 445 c 128,-1,26
 377.578125 401 377.578125 401 275.803710938 350 c 1,27,28
 292.185546875 317 292.185546875 317 324.564453125 258 c 0,29,30
 377.708007812 159 377.708007812 159 401.166015625 122 c 1,31,32
 482.40625 214 482.40625 214 515.036132812 364 c 1,33,-1
 540.57421875 362 l 1,34,35
 505.635742188 202 505.635742188 202 413.317382812 101 c 1,0,1
359.986328125 641 m 0,36,37
 307.986328125 641 307.986328125 641 269.9453125 610.5 c 128,-1,38
 231.903320312 580 231.903320312 580 220.590820312 531 c 0,39,40
 212.741210938 497 212.741210938 497 220.545898438 468 c 128,-1,41
 228.3515625 439 228.3515625 439 264.65234375 371 c 1,42,43
 358.272460938 417 358.272460938 417 397.891601562 456.5 c 128,-1,44
 437.510742188 496 437.510742188 496 448.823242188 545 c 0,45,46
 458.981445312 589 458.981445312 589 434.984375 615 c 128,-1,47
 410.986328125 641 410.986328125 641 359.986328125 641 c 0,36,37
175.462890625 15 m 0,48,49
 293.462890625 15 293.462890625 15 380.086914062 100 c 1,50,51
 343.938476562 160 343.938476562 160 301.408203125 240 c 0,52,53
 291.564453125 258 291.564453125 258 273.952148438 290 c 128,-1,54
 256.33984375 322 256.33984375 322 248.802734375 337 c 1,55,56
 152.490234375 288 152.490234375 288 105.524414062 247 c 128,-1,57
 58.55859375 206 58.55859375 206 44.4755859375 145 c 0,58,59
 30.8544921875 86 30.8544921875 86 68.6591796875 50.5 c 128,-1,60
 106.462890625 15 106.462890625 15 175.462890625 15 c 0,48,49
EndSplineSet
Substitution2: "'smcp' Lowercase to Small Capitals lookup 12 subtable" ampersand.sc
Substitution2: "'c2sc' Capitals to Small Capitals lookup 11 subtable" ampersand.sc
Substitution2: "'aalt' Access All Alternates lookup 0 subtable" ampersand.sc
EndChar

StartChar: quotesingle
Encoding: 39 39 10
Width: 168
GlyphClass: 2
Flags: W
LayerCount: 2
Fore
SplineSet
195.452148438 682 m 1,0,-1
 148.357421875 504 l 1,1,-1
 122.357421875 504 l 1,2,-1
 163.452148438 682 l 1,3,-1
 195.452148438 682 l 1,0,-1
EndSplineSet
Substitution2: "'smcp' Lowercase to Small Capitals lookup 12 subtable" quotesingle.sc
Substitution2: "'c2sc' Capitals to Small Capitals lookup 11 subtable" quotesingle.sc
Substitution2: "'aalt' Access All Alternates lookup 0 subtable" quotesingle.sc
EndChar

StartChar: parenleft
Encoding: 40 40 11
Width: 274
GlyphClass: 2
Flags: W
LayerCount: 2
Fore
SplineSet
352.303710938 742 m 1,0,-1
 364.379882812 725 l 1,1,2
 254.140625 646 254.140625 646 186.9375 539 c 128,-1,3
 119.735351562 432 119.735351562 432 85.56640625 284 c 128,-1,4
 51.3984375 136 51.3984375 136 69.1953125 29 c 128,-1,5
 86.9921875 -78 86.9921875 -78 160.984375 -156 c 1,6,-1
 140.829101562 -174 l 1,7,8
 -12.0009765625 -13 -12.0009765625 -13 56.56640625 284 c 128,-1,9
 125.134765625 581 125.134765625 581 352.303710938 742 c 1,0,-1
EndSplineSet
Substitution2: "'case' Case-Sensitive Forms lookup 29 subtable" parenleft.case
Substitution2: "'sups' Superscript lookup 15 subtable" uni207D
Substitution2: "'subs' Subscript lookup 14 subtable" uni208D
Substitution2: "'sinf' Scientific Inferiors lookup 13 subtable" uni208D
AlternateSubs2: "'aalt' Access All Alternates lookup 1 subtable" uni208D uni207D parenleft.case
EndChar

StartChar: parenright
Encoding: 41 41 12
Width: 274
GlyphClass: 2
Flags: W
LayerCount: 2
Fore
SplineSet
137.303710938 742 m 1,0,1
 289.134765625 581 289.134765625 581 220.56640625 284 c 128,-1,2
 151.999023438 -13 151.999023438 -13 -74.1708984375 -174 c 1,3,-1
 -87.015625 -156 l 1,4,5
 23.9921875 -78 23.9921875 -78 90.6953125 29 c 128,-1,6
 157.3984375 136 157.3984375 136 191.56640625 284 c 128,-1,7
 225.735351562 432 225.735351562 432 208.553710938 539.5 c 128,-1,8
 191.372070312 647 191.372070312 647 116.379882812 725 c 1,9,-1
 137.303710938 742 l 1,0,1
EndSplineSet
Substitution2: "'case' Case-Sensitive Forms lookup 29 subtable" parenright.case
Substitution2: "'sups' Superscript lookup 15 subtable" uni207E
Substitution2: "'subs' Subscript lookup 14 subtable" uni208E
Substitution2: "'sinf' Scientific Inferiors lookup 13 subtable" uni208E
AlternateSubs2: "'aalt' Access All Alternates lookup 1 subtable" uni208E uni207E parenright.case
EndChar

StartChar: asterisk
Encoding: 42 42 13
Width: 524
GlyphClass: 2
Flags: W
LayerCount: 2
Fore
SplineSet
329.357421875 504 m 1,0,-1
 363.736328125 445 l 1,1,-1
 416.033203125 338 l 1,2,-1
 391.5703125 323 l 1,3,-1
 337.811523438 428 l 1,4,-1
 311.818359375 493 l 1,5,-1
 254.811523438 428 l 1,6,-1
 153.5703125 323 l 1,7,-1
 135.033203125 338 l 1,8,-1
 236.736328125 445 l 1,9,-1
 298.357421875 504 l 1,10,-1
 228.974609375 524 l 1,11,-1
 114.440429688 565 l 1,12,-1
 128.211914062 590 l 1,13,-1
 242.977539062 550 l 1,14,-1
 308.513671875 522 l 1,15,-1
 322.290039062 599 l 1,16,-1
 352.534179688 730 l 1,17,-1
 379.534179688 730 l 1,18,-1
 349.290039062 599 l 1,19,-1
 327.744140625 523 l 1,20,-1
 405.977539062 550 l 1,21,-1
 540.211914062 590 l 1,22,-1
 542.440429688 565 l 1,23,-1
 407.974609375 524 l 1,24,-1
 329.357421875 504 l 1,0,-1
EndSplineSet
EndChar

StartChar: plus
Encoding: 43 43 14
Width: 604
GlyphClass: 2
Flags: W
LayerCount: 2
Fore
SplineSet
548.186523438 330 m 1,0,-1
 541.72265625 302 l 1,1,-1
 322.72265625 302 l 1,2,-1
 270.776367188 77 l 1,3,-1
 241.776367188 77 l 1,4,-1
 293.72265625 302 l 1,5,-1
 73.72265625 302 l 1,6,-1
 80.1865234375 330 l 1,7,-1
 300.186523438 330 l 1,8,-1
 350.747070312 549 l 1,9,-1
 379.747070312 549 l 1,10,-1
 329.186523438 330 l 1,11,-1
 548.186523438 330 l 1,0,-1
EndSplineSet
Substitution2: "'sups' Superscript lookup 15 subtable" uni207A
Substitution2: "'subs' Subscript lookup 14 subtable" uni208A
Substitution2: "'sinf' Scientific Inferiors lookup 13 subtable" uni208A
AlternateSubs2: "'aalt' Access All Alternates lookup 1 subtable" uni208A uni207A
EndChar

StartChar: comma
Encoding: 44 44 15
Width: 302
GlyphClass: 2
Flags: W
LayerCount: 2
Fore
SplineSet
103.159179688 57 m 0,0,1
 123.159179688 57 123.159179688 57 130.465820312 41 c 128,-1,2
 137.771484375 25 137.771484375 25 132 0 c 0,3,4
 123.919921875 -35 123.919921875 -35 98.6474609375 -66.5 c 128,-1,5
 73.375 -98 73.375 -98 35.2197265625 -116 c 1,6,-1
 19.9130859375 -100 l 1,7,8
 54.9140625 -87 54.9140625 -87 82.302734375 -55 c 128,-1,9
 109.690429688 -23 109.690429688 -23 108.923828125 4 c 1,10,-1
 106.154296875 5 l 1,11,12
 98.615234375 -6 98.615234375 -6 84.615234375 -6 c 0,13,14
 72.615234375 -6 72.615234375 -6 66.0771484375 2.5 c 128,-1,15
 59.5390625 11 59.5390625 11 62.771484375 25 c 0,16,17
 65.7734375 38 65.7734375 38 77.4658203125 47.5 c 128,-1,18
 89.1591796875 57 89.1591796875 57 103.159179688 57 c 0,0,1
EndSplineSet
Substitution2: "'tnum' Tabular Numbers lookup 26 subtable" comma.tf
Substitution2: "'sups' Superscript lookup 15 subtable" commasuperior
Substitution2: "'subs' Subscript lookup 14 subtable" commainferior
Substitution2: "'sinf' Scientific Inferiors lookup 13 subtable" commainferior
AlternateSubs2: "'aalt' Access All Alternates lookup 1 subtable" commainferior commasuperior comma.tf
EndChar

StartChar: hyphen
Encoding: 45 45 16
Width: 437
GlyphClass: 2
Flags: W
LayerCount: 2
Fore
SplineSet
366.3359375 283 m 1,0,-1
 359.409179688 253 l 1,1,-1
 67.4091796875 253 l 1,2,-1
 74.3359375 283 l 1,3,-1
 366.3359375 283 l 1,0,-1
EndSplineSet
Substitution2: "'case' Case-Sensitive Forms lookup 29 subtable" hyphen.case
Substitution2: "'sups' Superscript lookup 15 subtable" hyphensuperior
Substitution2: "'subs' Subscript lookup 14 subtable" hypheninferior
Substitution2: "'sinf' Scientific Inferiors lookup 13 subtable" hypheninferior
AlternateSubs2: "'aalt' Access All Alternates lookup 1 subtable" hypheninferior hyphensuperior hyphen.case
EndChar

StartChar: period
Encoding: 46 46 17
Width: 302
GlyphClass: 2
Flags: W
LayerCount: 2
Fore
SplineSet
100.159179688 57 m 128,-1,1
 114.159179688 57 114.159179688 57 120.58203125 48 c 128,-1,2
 127.00390625 39 127.00390625 39 123.771484375 25 c 128,-1,3
 120.5390625 11 120.5390625 11 110.077148438 2.5 c 128,-1,4
 99.615234375 -6 99.615234375 -6 85.615234375 -6 c 128,-1,5
 71.615234375 -6 71.615234375 -6 65.0771484375 2.5 c 128,-1,6
 58.5390625 11 58.5390625 11 61.771484375 25 c 128,-1,7
 65.00390625 39 65.00390625 39 75.58203125 48 c 128,-1,0
 86.1591796875 57 86.1591796875 57 100.159179688 57 c 128,-1,1
EndSplineSet
Substitution2: "'tnum' Tabular Numbers lookup 26 subtable" period.tf
Substitution2: "'sups' Superscript lookup 15 subtable" periodsuperior
Substitution2: "'subs' Subscript lookup 14 subtable" periodinferior
Substitution2: "'sinf' Scientific Inferiors lookup 13 subtable" periodinferior
AlternateSubs2: "'aalt' Access All Alternates lookup 1 subtable" periodinferior periodsuperior period.tf
EndChar

StartChar: slash
Encoding: 47 47 18
Width: 368
GlyphClass: 2
Flags: W
LayerCount: 2
Fore
SplineSet
438.534179688 730 m 1,0,-1
 -17.1611328125 -70 l 1,1,-1
 -47.1611328125 -70 l 1,2,-1
 408.534179688 730 l 1,3,-1
 438.534179688 730 l 1,0,-1
EndSplineSet
Substitution2: "'frac' Diagonal Fractions lookup 18 subtable" fraction
Substitution2: "'aalt' Access All Alternates lookup 0 subtable" fraction
EndChar

StartChar: zero
Encoding: 48 48 19
Width: 604
GlyphClass: 2
Flags: W
LayerCount: 2
Fore
SplineSet
235.69140625 -10 m 128,-1,1
 120.69140625 -10 120.69140625 -10 80.0078125 78 c 128,-1,2
 39.32421875 166 39.32421875 166 77.1865234375 330 c 128,-1,3
 115.048828125 494 115.048828125 494 196.365234375 582 c 128,-1,4
 277.681640625 670 277.681640625 670 392.681640625 670 c 128,-1,5
 507.681640625 670 507.681640625 670 548.365234375 582 c 128,-1,6
 589.048828125 494 589.048828125 494 551.186523438 330 c 128,-1,7
 513.32421875 166 513.32421875 166 432.0078125 78 c 128,-1,0
 350.69140625 -10 350.69140625 -10 235.69140625 -10 c 128,-1,1
241.924804688 17 m 128,-1,9
 341.924804688 17 341.924804688 17 414.009765625 97.5 c 128,-1,10
 486.094726562 178 486.094726562 178 521.186523438 330 c 128,-1,11
 556.278320312 482 556.278320312 482 521.36328125 562.5 c 128,-1,12
 486.448242188 643 486.448242188 643 386.448242188 643 c 128,-1,13
 286.448242188 643 286.448242188 643 214.36328125 562.5 c 128,-1,14
 142.278320312 482 142.278320312 482 107.186523438 330 c 128,-1,15
 72.0947265625 178 72.0947265625 178 107.009765625 97.5 c 128,-1,8
 141.924804688 17 141.924804688 17 241.924804688 17 c 128,-1,9
EndSplineSet
Substitution2: "'zero' Slashed Zero lookup 28 subtable" zero.zero
Substitution2: "'onum' Oldstyle Figures lookup 27 subtable" zero.osf
Substitution2: "'tnum' Tabular Numbers lookup 26 subtable" zero.tf
Substitution2: "'frac' Diagonal Fractions lookup 19 subtable" zero.numr
Substitution2: "'dnom' Denominators lookup 17 subtable" zero.dnom
Substitution2: "'numr' Numerators lookup 16 subtable" zero.numr
Substitution2: "'sups' Superscript lookup 15 subtable" uni2070
Substitution2: "'subs' Subscript lookup 14 subtable" uni2080
Substitution2: "'sinf' Scientific Inferiors lookup 13 subtable" uni2080
Substitution2: "'smcp' Lowercase to Small Capitals lookup 12 subtable" zero.sc
Substitution2: "'c2sc' Capitals to Small Capitals lookup 11 subtable" zero.sc
AlternateSubs2: "'aalt' Access All Alternates lookup 1 subtable" zero.sc uni2080 uni2070 zero.numr zero.dnom zero.tf zero.osf zero.zero
EndChar

StartChar: one
Encoding: 49 49 20
Width: 604
GlyphClass: 2
Flags: W
LayerCount: 2
Fore
SplineSet
295.233398438 27 m 1,0,-1
 485.233398438 27 l 1,1,-1
 479 0 l 1,2,-1
 46 0 l 1,3,-1
 52.2333984375 27 l 1,4,-1
 265.233398438 27 l 1,5,-1
 385.977539062 550 l 1,6,-1
 401.4453125 617 l 1,7,8
 356.518554688 574 356.518554688 574 286.4765625 537 c 128,-1,9
 216.434570312 500 216.434570312 500 156.047851562 481 c 1,10,-1
 154.51171875 509 l 1,11,12
 219.12890625 529 219.12890625 529 299.056640625 572 c 128,-1,13
 378.984375 615 378.984375 615 413.373046875 660 c 1,14,-1
 441.373046875 660 l 1,15,-1
 295.233398438 27 l 1,0,-1
EndSplineSet
Substitution2: "'onum' Oldstyle Figures lookup 27 subtable" one.osf
Substitution2: "'tnum' Tabular Numbers lookup 26 subtable" one.tf
Substitution2: "'nalt' Alternate Annotation Forms lookup 23 subtable" uni2780
Substitution2: "'frac' Diagonal Fractions lookup 19 subtable" one.numr
Substitution2: "'dnom' Denominators lookup 17 subtable" one.dnom
Substitution2: "'numr' Numerators lookup 16 subtable" one.numr
Substitution2: "'sups' Superscript lookup 15 subtable" uni00B9
Substitution2: "'subs' Subscript lookup 14 subtable" uni2081
Substitution2: "'sinf' Scientific Inferiors lookup 13 subtable" uni2081
Substitution2: "'smcp' Lowercase to Small Capitals lookup 12 subtable" one.sc
Substitution2: "'c2sc' Capitals to Small Capitals lookup 11 subtable" one.sc
AlternateSubs2: "'aalt' Access All Alternates lookup 1 subtable" one.sc uni2081 uni00B9 one.numr one.dnom uni2780 one.tf one.osf
EndChar

StartChar: two
Encoding: 50 50 21
Width: 604
GlyphClass: 2
Flags: W
LayerCount: 2
Fore
SplineSet
34 0 m 1,0,-1
 39.771484375 25 l 1,1,2
 130.0859375 87 130.0859375 87 175.357421875 118.5 c 128,-1,3
 220.629882812 150 220.629882812 150 285.096679688 197.5 c 128,-1,4
 349.5625 245 349.5625 245 381.142578125 273.5 c 128,-1,5
 412.72265625 302 412.72265625 302 448.264648438 339 c 128,-1,6
 483.806640625 376 483.806640625 376 501.079101562 407.5 c 128,-1,7
 518.3515625 439 518.3515625 439 525.969726562 472 c 0,8,9
 544.208007812 551 544.208007812 551 507.328125 597 c 128,-1,10
 470.448242188 643 470.448242188 643 388.448242188 643 c 0,11,12
 305.448242188 643 305.448242188 643 243.05859375 591.5 c 128,-1,13
 180.668945312 540 180.668945312 540 155.352539062 452 c 1,14,-1
 131.584960938 466 l 1,15,16
 159.055664062 559 159.055664062 559 229.368164062 614.5 c 128,-1,17
 299.681640625 670 299.681640625 670 395.681640625 670 c 0,18,19
 490.681640625 670 490.681640625 670 533.9453125 617 c 128,-1,20
 577.209960938 564 577.209960938 564 555.969726562 472 c 0,21,22
 533.575195312 375 533.575195312 375 430.220703125 282.5 c 128,-1,23
 326.865234375 190 326.865234375 190 86.4638671875 28 c 1,24,-1
 86.2333984375 27 l 1,25,-1
 129.233398438 27 l 1,26,-1
 479.233398438 27 l 1,27,-1
 473 0 l 1,28,-1
 34 0 l 1,0,-1
EndSplineSet
Substitution2: "'onum' Oldstyle Figures lookup 27 subtable" two.osf
Substitution2: "'tnum' Tabular Numbers lookup 26 subtable" two.tf
Substitution2: "'nalt' Alternate Annotation Forms lookup 23 subtable" uni2781
Substitution2: "'frac' Diagonal Fractions lookup 19 subtable" two.numr
Substitution2: "'dnom' Denominators lookup 17 subtable" two.dnom
Substitution2: "'numr' Numerators lookup 16 subtable" two.numr
Substitution2: "'sups' Superscript lookup 15 subtable" uni00B2
Substitution2: "'subs' Subscript lookup 14 subtable" uni2082
Substitution2: "'sinf' Scientific Inferiors lookup 13 subtable" uni2082
Substitution2: "'smcp' Lowercase to Small Capitals lookup 12 subtable" two.sc
Substitution2: "'c2sc' Capitals to Small Capitals lookup 11 subtable" two.sc
AlternateSubs2: "'aalt' Access All Alternates lookup 1 subtable" two.sc uni2082 uni00B2 two.numr two.dnom uni2781 two.tf two.osf
EndChar

StartChar: three
Encoding: 51 51 22
Width: 604
GlyphClass: 2
Flags: W
LayerCount: 2
Fore
SplineSet
390.681640625 670 m 0,0,1
 481.681640625 670 481.681640625 670 521.946289062 623.5 c 128,-1,2
 562.2109375 577 562.2109375 577 543.97265625 498 c 0,3,4
 528.965820312 433 528.965820312 433 483.845703125 387 c 128,-1,5
 438.725585938 341 438.725585938 341 378.87890625 333 c 1,6,-1
 378.6484375 332 l 1,7,8
 439.956054688 329 439.956054688 329 469.604492188 282 c 128,-1,9
 499.25390625 235 499.25390625 235 484.940429688 173 c 0,10,11
 466.008789062 91 466.008789062 91 395.350585938 40.5 c 128,-1,12
 324.69140625 -10 324.69140625 -10 234.69140625 -10 c 0,13,14
 146.69140625 -10 146.69140625 -10 98.541015625 30.5 c 128,-1,15
 50.3916015625 71 50.3916015625 71 47.013671875 143 c 1,16,-1
 78.7080078125 159 l 1,17,18
 78.240234375 92 78.240234375 92 119.58203125 54.5 c 128,-1,19
 160.924804688 17 160.924804688 17 242.924804688 17 c 0,20,21
 319.924804688 17 319.924804688 17 379.467773438 60.5 c 128,-1,22
 439.010742188 104 439.010742188 104 455.86328125 177 c 0,23,24
 469.177734375 239 469.177734375 239 434.912109375 279 c 128,-1,25
 400.646484375 319 400.646484375 319 322.646484375 319 c 2,26,-1
 278.646484375 319 l 1,27,-1
 285.111328125 347 l 1,28,-1
 329.111328125 347 l 2,29,30
 400.111328125 347 400.111328125 347 448.577148438 388 c 128,-1,31
 497.041992188 429 497.041992188 429 512.048828125 494 c 0,32,33
 528.209960938 564 528.209960938 564 494.829101562 603.5 c 128,-1,34
 461.448242188 643 461.448242188 643 384.448242188 643 c 0,35,36
 321.448242188 643 321.448242188 643 269.830078125 610 c 128,-1,37
 218.2109375 577 218.2109375 577 187.8203125 519 c 1,38,-1
 162.283203125 534 l 1,39,40
 199.828125 597 199.828125 597 260.254882812 633.5 c 128,-1,41
 320.681640625 670 320.681640625 670 390.681640625 670 c 0,0,1
EndSplineSet
Substitution2: "'onum' Oldstyle Figures lookup 27 subtable" three.osf
Substitution2: "'tnum' Tabular Numbers lookup 26 subtable" three.tf
Substitution2: "'nalt' Alternate Annotation Forms lookup 23 subtable" uni2782
Substitution2: "'frac' Diagonal Fractions lookup 19 subtable" three.numr
Substitution2: "'dnom' Denominators lookup 17 subtable" three.dnom
Substitution2: "'numr' Numerators lookup 16 subtable" three.numr
Substitution2: "'sups' Superscript lookup 15 subtable" uni00B3
Substitution2: "'subs' Subscript lookup 14 subtable" uni2083
Substitution2: "'sinf' Scientific Inferiors lookup 13 subtable" uni2083
Substitution2: "'smcp' Lowercase to Small Capitals lookup 12 subtable" three.sc
Substitution2: "'c2sc' Capitals to Small Capitals lookup 11 subtable" three.sc
AlternateSubs2: "'aalt' Access All Alternates lookup 1 subtable" three.sc uni2083 uni00B3 three.numr three.dnom uni2782 three.tf three.osf
EndChar

StartChar: four
Encoding: 52 52 23
Width: 604
GlyphClass: 2
Flags: W
LayerCount: 2
Fore
SplineSet
317 0 m 1,0,-1
 362.711914062 198 l 1,1,-1
 35.7119140625 198 l 1,2,-1
 41.2529296875 222 l 1,3,-1
 458.373046875 660 l 1,4,-1
 499.373046875 660 l 1,5,-1
 398.71484375 224 l 1,6,-1
 543.71484375 224 l 1,7,-1
 537.711914062 198 l 1,8,-1
 392.711914062 198 l 1,9,-1
 347 0 l 1,10,-1
 317 0 l 1,0,-1
73.71484375 224 m 1,11,-1
 368.71484375 224 l 1,12,-1
 432.895507812 502 l 2,13,14
 452.981445312 589 452.981445312 589 464.139648438 633 c 1,15,-1
 463.139648438 633 l 1,16,17
 431.828125 597 431.828125 597 388.439453125 552 c 2,18,-1
 73.71484375 224 l 1,11,-1
EndSplineSet
Substitution2: "'onum' Oldstyle Figures lookup 27 subtable" four.osf
Substitution2: "'tnum' Tabular Numbers lookup 26 subtable" four.tf
Substitution2: "'nalt' Alternate Annotation Forms lookup 23 subtable" uni2783
Substitution2: "'frac' Diagonal Fractions lookup 19 subtable" four.numr
Substitution2: "'dnom' Denominators lookup 17 subtable" four.dnom
Substitution2: "'numr' Numerators lookup 16 subtable" four.numr
Substitution2: "'sups' Superscript lookup 15 subtable" uni2074
Substitution2: "'subs' Subscript lookup 14 subtable" uni2084
Substitution2: "'sinf' Scientific Inferiors lookup 13 subtable" uni2084
Substitution2: "'smcp' Lowercase to Small Capitals lookup 12 subtable" four.sc
Substitution2: "'c2sc' Capitals to Small Capitals lookup 11 subtable" four.sc
AlternateSubs2: "'aalt' Access All Alternates lookup 1 subtable" four.sc uni2084 uni2074 four.numr four.dnom uni2783 four.tf four.osf
EndChar

StartChar: five
Encoding: 53 53 24
Width: 604
GlyphClass: 2
Flags: W
LayerCount: 2
Fore
SplineSet
351.501953125 405 m 0,0,1
 443.501953125 405 443.501953125 405 487.841796875 348 c 128,-1,2
 532.182617188 291 532.182617188 291 510.942382812 199 c 0,3,4
 489.471679688 106 489.471679688 106 416.58203125 48 c 128,-1,5
 343.69140625 -10 343.69140625 -10 248.69140625 -10 c 0,6,7
 58.69140625 -10 58.69140625 -10 58.9375 147 c 1,8,-1
 90.169921875 161 l 1,9,10
 81.9248046875 17 81.9248046875 17 253.924804688 17 c 0,11,12
 335.924804688 17 335.924804688 17 398.583984375 67.5 c 128,-1,13
 461.2421875 118 461.2421875 118 479.711914062 198 c 0,14,15
 498.412109375 279 498.412109375 279 460.33984375 328.5 c 128,-1,16
 422.268554688 378 422.268554688 378 342.268554688 378 c 0,17,18
 218.268554688 378 218.268554688 378 139.567382812 297 c 1,19,-1
 113.567382812 297 l 1,20,-1
 229.373046875 660 l 1,21,-1
 591.373046875 660 l 1,22,-1
 585.139648438 633 l 1,23,-1
 248.139648438 633 l 1,24,-1
 155.880859375 346 l 1,25,-1
 149.956054688 329 l 1,26,-1
 150.956054688 329 l 1,27,28
 227.501953125 405 227.501953125 405 351.501953125 405 c 0,0,1
EndSplineSet
Substitution2: "'onum' Oldstyle Figures lookup 27 subtable" five.osf
Substitution2: "'tnum' Tabular Numbers lookup 26 subtable" five.tf
Substitution2: "'nalt' Alternate Annotation Forms lookup 23 subtable" uni2784
Substitution2: "'frac' Diagonal Fractions lookup 19 subtable" five.numr
Substitution2: "'dnom' Denominators lookup 17 subtable" five.dnom
Substitution2: "'numr' Numerators lookup 16 subtable" five.numr
Substitution2: "'sups' Superscript lookup 15 subtable" uni2075
Substitution2: "'subs' Subscript lookup 14 subtable" uni2085
Substitution2: "'sinf' Scientific Inferiors lookup 13 subtable" uni2085
Substitution2: "'smcp' Lowercase to Small Capitals lookup 12 subtable" five.sc
Substitution2: "'c2sc' Capitals to Small Capitals lookup 11 subtable" five.sc
AlternateSubs2: "'aalt' Access All Alternates lookup 1 subtable" five.sc uni2085 uni2075 five.numr five.dnom uni2784 five.tf five.osf
EndChar

StartChar: six
Encoding: 54 54 25
Width: 604
GlyphClass: 2
Flags: W
LayerCount: 2
Fore
SplineSet
437.681640625 670 m 0,0,1
 575.681640625 670 575.681640625 670 594.053710938 546 c 1,2,-1
 563.052734375 533 l 1,3,4
 553.448242188 643 553.448242188 643 430.448242188 643 c 0,5,6
 371.448242188 643 371.448242188 643 320.099609375 615.5 c 128,-1,7
 268.750976562 588 268.750976562 588 232.014648438 541.5 c 128,-1,8
 195.279296875 495 195.279296875 495 169.120117188 438 c 128,-1,9
 142.9609375 381 142.9609375 381 128.185546875 317 c 0,10,11
 121.258789062 287 121.258789062 287 113.098632812 217 c 1,12,-1
 116.098632812 217 l 1,13,14
 139.491210938 301 139.491210938 301 211.418945312 350.5 c 128,-1,15
 283.34765625 400 283.34765625 400 363.34765625 400 c 0,16,17
 461.34765625 400 461.34765625 400 505.418945312 344 c 128,-1,18
 549.490234375 288 549.490234375 288 528.01953125 195 c 0,19,20
 506.317382812 101 506.317382812 101 435.004882812 45.5 c 128,-1,21
 363.69140625 -10 363.69140625 -10 264.69140625 -10 c 0,22,23
 146.69140625 -10 146.69140625 -10 106.0078125 78 c 128,-1,24
 65.32421875 166 65.32421875 166 103.186523438 330 c 128,-1,25
 141.048828125 494 141.048828125 494 232.365234375 582 c 128,-1,26
 323.681640625 670 323.681640625 670 437.681640625 670 c 0,0,1
355.8828125 372 m 0,27,28
 273.8828125 372 273.8828125 372 209.03125 318.5 c 128,-1,29
 144.1796875 265 144.1796875 265 128.25 196 c 0,30,31
 110.473632812 119 110.473632812 119 149.814453125 68.5 c 128,-1,32
 189.155273438 18 189.155273438 18 270.155273438 18 c 0,33,34
 356.155273438 18 356.155273438 18 417.352539062 66.5 c 128,-1,35
 478.549804688 115 478.549804688 115 497.25 196 c 0,36,37
 515.48828125 275 515.48828125 275 477.185546875 323.5 c 128,-1,38
 438.8828125 372 438.8828125 372 355.8828125 372 c 0,27,28
EndSplineSet
Substitution2: "'onum' Oldstyle Figures lookup 27 subtable" six.osf
Substitution2: "'tnum' Tabular Numbers lookup 26 subtable" six.tf
Substitution2: "'nalt' Alternate Annotation Forms lookup 23 subtable" uni2785
Substitution2: "'frac' Diagonal Fractions lookup 19 subtable" six.numr
Substitution2: "'dnom' Denominators lookup 17 subtable" six.dnom
Substitution2: "'numr' Numerators lookup 16 subtable" six.numr
Substitution2: "'sups' Superscript lookup 15 subtable" uni2076
Substitution2: "'subs' Subscript lookup 14 subtable" uni2086
Substitution2: "'sinf' Scientific Inferiors lookup 13 subtable" uni2086
Substitution2: "'smcp' Lowercase to Small Capitals lookup 12 subtable" six.sc
Substitution2: "'c2sc' Capitals to Small Capitals lookup 11 subtable" six.sc
AlternateSubs2: "'aalt' Access All Alternates lookup 1 subtable" six.sc uni2086 uni2076 six.numr six.dnom uni2785 six.tf six.osf
EndChar

StartChar: seven
Encoding: 55 55 26
Width: 604
GlyphClass: 2
Flags: W
LayerCount: 2
Fore
SplineSet
147.373046875 660 m 1,0,-1
 660.373046875 660 l 1,1,-1
 654.139648438 633 l 1,2,3
 326.114257812 373 326.114257812 373 223 0 c 1,4,-1
 192 0 l 1,5,6
 295.114257812 373 295.114257812 373 619.139648438 633 c 1,7,-1
 141.139648438 633 l 1,8,-1
 147.373046875 660 l 1,0,-1
EndSplineSet
Substitution2: "'onum' Oldstyle Figures lookup 27 subtable" seven.osf
Substitution2: "'tnum' Tabular Numbers lookup 26 subtable" seven.tf
Substitution2: "'nalt' Alternate Annotation Forms lookup 23 subtable" uni2786
Substitution2: "'frac' Diagonal Fractions lookup 19 subtable" seven.numr
Substitution2: "'dnom' Denominators lookup 17 subtable" seven.dnom
Substitution2: "'numr' Numerators lookup 16 subtable" seven.numr
Substitution2: "'sups' Superscript lookup 15 subtable" uni2077
Substitution2: "'subs' Subscript lookup 14 subtable" uni2087
Substitution2: "'sinf' Scientific Inferiors lookup 13 subtable" uni2087
Substitution2: "'smcp' Lowercase to Small Capitals lookup 12 subtable" seven.sc
Substitution2: "'c2sc' Capitals to Small Capitals lookup 11 subtable" seven.sc
AlternateSubs2: "'aalt' Access All Alternates lookup 1 subtable" seven.sc uni2087 uni2077 seven.numr seven.dnom uni2786 seven.tf seven.osf
EndChar

StartChar: eight
Encoding: 56 56 27
Width: 604
GlyphClass: 2
Flags: W
LayerCount: 2
Fore
SplineSet
392.681640625 670 m 128,-1,1
 481.681640625 670 481.681640625 670 524.29296875 625 c 128,-1,2
 566.903320312 580 566.903320312 580 549.588867188 505 c 0,3,4
 535.966796875 446 535.966796875 446 492.385742188 404.5 c 128,-1,5
 448.8046875 363 448.8046875 363 386.341796875 348 c 1,6,-1
 386.111328125 347 l 1,7,8
 453.6484375 332 453.6484375 332 484.681640625 284.5 c 128,-1,9
 515.715820312 237 515.715820312 237 500.478515625 171 c 0,10,11
 482.008789062 91 482.008789062 91 408.350585938 40.5 c 128,-1,12
 334.69140625 -10 334.69140625 -10 235.69140625 -10 c 128,-1,13
 136.69140625 -10 136.69140625 -10 85.8505859375 40.5 c 128,-1,14
 35.0087890625 91 35.0087890625 91 53.478515625 171 c 0,15,16
 68.9462890625 238 68.9462890625 238 122.913085938 285.5 c 128,-1,17
 176.87890625 333 176.87890625 333 251.111328125 347 c 1,18,-1
 251.341796875 348 l 1,19,20
 194.8046875 363 194.8046875 363 170.270507812 404 c 128,-1,21
 145.736328125 445 145.736328125 445 159.588867188 505 c 0,22,23
 176.903320312 580 176.903320312 580 240.29296875 625 c 128,-1,0
 303.681640625 670 303.681640625 670 392.681640625 670 c 128,-1,1
386.217773438 642 m 128,-1,25
 311.217773438 642 311.217773438 642 257.674804688 605 c 128,-1,26
 204.1328125 568 204.1328125 568 189.357421875 504 c 128,-1,27
 174.58203125 440 174.58203125 440 210.962890625 400.5 c 128,-1,28
 247.34375 361 247.34375 361 321.34375 361 c 128,-1,29
 395.34375 361 395.34375 361 449.34765625 400 c 128,-1,30
 503.3515625 439 503.3515625 439 518.357421875 504 c 0,31,32
 532.90234375 567 532.90234375 567 497.059570312 604.5 c 128,-1,24
 461.217773438 642 461.217773438 642 386.217773438 642 c 128,-1,25
241.924804688 17 m 0,33,34
 326.924804688 17 326.924804688 17 390.467773438 60.5 c 128,-1,35
 454.010742188 104 454.010742188 104 469.940429688 173 c 0,36,37
 486.33203125 244 486.33203125 244 442.990234375 288 c 128,-1,38
 399.6484375 332 399.6484375 332 314.6484375 332 c 0,39,40
 228.6484375 332 228.6484375 332 164.875 287.5 c 128,-1,41
 101.100585938 243 101.100585938 243 84.9404296875 173 c 0,42,43
 69.0107421875 104 69.0107421875 104 112.467773438 60.5 c 128,-1,44
 155.924804688 17 155.924804688 17 241.924804688 17 c 0,33,34
EndSplineSet
Substitution2: "'onum' Oldstyle Figures lookup 27 subtable" eight.osf
Substitution2: "'tnum' Tabular Numbers lookup 26 subtable" eight.tf
Substitution2: "'nalt' Alternate Annotation Forms lookup 23 subtable" uni2787
Substitution2: "'frac' Diagonal Fractions lookup 19 subtable" eight.numr
Substitution2: "'dnom' Denominators lookup 17 subtable" eight.dnom
Substitution2: "'numr' Numerators lookup 16 subtable" eight.numr
Substitution2: "'sups' Superscript lookup 15 subtable" uni2078
Substitution2: "'subs' Subscript lookup 14 subtable" uni2088
Substitution2: "'sinf' Scientific Inferiors lookup 13 subtable" uni2088
Substitution2: "'smcp' Lowercase to Small Capitals lookup 12 subtable" eight.sc
Substitution2: "'c2sc' Capitals to Small Capitals lookup 11 subtable" eight.sc
AlternateSubs2: "'aalt' Access All Alternates lookup 1 subtable" eight.sc uni2088 uni2078 eight.numr eight.dnom uni2787 eight.tf eight.osf
EndChar

StartChar: nine
Encoding: 57 57 28
Width: 604
GlyphClass: 2
Flags: W
LayerCount: 2
Fore
SplineSet
380.681640625 670 m 0,0,1
 495.681640625 670 495.681640625 670 537.518554688 580.5 c 128,-1,2
 579.356445312 491 579.356445312 491 542.186523438 330 c 0,3,4
 504.092773438 165 504.092773438 165 419.392578125 77.5 c 128,-1,5
 334.69140625 -10 334.69140625 -10 224.69140625 -10 c 0,6,7
 141.69140625 -10 141.69140625 -10 94.080078125 28.5 c 128,-1,8
 46.4677734375 67 46.4677734375 67 44.474609375 132 c 1,9,-1
 78.1689453125 148 l 1,10,11
 76.0859375 87 76.0859375 87 114.504882812 52 c 128,-1,12
 152.924804688 17 152.924804688 17 230.924804688 17 c 0,13,14
 288.924804688 17 288.924804688 17 337.04296875 43.5 c 128,-1,15
 385.161132812 70 385.161132812 70 419.51171875 117 c 128,-1,16
 453.862304688 164 453.862304688 164 477.560546875 219 c 128,-1,17
 501.2578125 274 501.2578125 274 516.264648438 339 c 0,18,19
 527.577148438 388 527.577148438 388 532.198242188 447 c 1,20,-1
 529.198242188 447 l 1,21,22
 509.34375 361 509.34375 361 435.684570312 310.5 c 128,-1,23
 362.025390625 260 362.025390625 260 283.025390625 260 c 0,24,25
 185.025390625 260 185.025390625 260 139.954101562 316 c 128,-1,26
 94.8828125 372 94.8828125 372 116.353515625 465 c 0,27,28
 138.055664062 559 138.055664062 559 209.868164062 614.5 c 128,-1,29
 281.681640625 670 281.681640625 670 380.681640625 670 c 0,0,1
375.217773438 642 m 0,30,31
 289.217773438 642 289.217773438 642 227.520507812 593.5 c 128,-1,32
 165.823242188 545 165.823242188 545 147.123046875 464 c 0,33,34
 128.653320312 384 128.653320312 384 167.571289062 336 c 128,-1,35
 206.490234375 288 206.490234375 288 290.490234375 288 c 0,36,37
 369.490234375 288 369.490234375 288 435.341796875 341.5 c 128,-1,38
 501.193359375 395 501.193359375 395 517.123046875 464 c 0,39,40
 534.899414062 541 534.899414062 541 495.55859375 591.5 c 128,-1,41
 456.217773438 642 456.217773438 642 375.217773438 642 c 0,30,31
EndSplineSet
Substitution2: "'onum' Oldstyle Figures lookup 27 subtable" nine.osf
Substitution2: "'tnum' Tabular Numbers lookup 26 subtable" nine.tf
Substitution2: "'nalt' Alternate Annotation Forms lookup 23 subtable" uni2788
Substitution2: "'frac' Diagonal Fractions lookup 19 subtable" nine.numr
Substitution2: "'dnom' Denominators lookup 17 subtable" nine.dnom
Substitution2: "'numr' Numerators lookup 16 subtable" nine.numr
Substitution2: "'sups' Superscript lookup 15 subtable" uni2079
Substitution2: "'subs' Subscript lookup 14 subtable" uni2089
Substitution2: "'sinf' Scientific Inferiors lookup 13 subtable" uni2089
Substitution2: "'smcp' Lowercase to Small Capitals lookup 12 subtable" nine.sc
Substitution2: "'c2sc' Capitals to Small Capitals lookup 11 subtable" nine.sc
AlternateSubs2: "'aalt' Access All Alternates lookup 1 subtable" nine.sc uni2089 uni2079 nine.numr nine.dnom uni2788 nine.tf nine.osf
EndChar

StartChar: colon
Encoding: 58 58 29
Width: 302
GlyphClass: 2
Flags: W
LayerCount: 2
Fore
SplineSet
202.895507812 502 m 128,-1,1
 216.895507812 502 216.895507812 502 223.43359375 493.5 c 128,-1,2
 229.970703125 485 229.970703125 485 226.739257812 471 c 128,-1,3
 223.506835938 457 223.506835938 457 212.928710938 448 c 128,-1,4
 202.3515625 439 202.3515625 439 188.3515625 439 c 128,-1,5
 174.3515625 439 174.3515625 439 167.928710938 448 c 128,-1,6
 161.506835938 457 161.506835938 457 164.739257812 471 c 128,-1,7
 167.970703125 485 167.970703125 485 178.43359375 493.5 c 128,-1,0
 188.895507812 502 188.895507812 502 202.895507812 502 c 128,-1,1
100.159179688 57 m 128,-1,9
 114.159179688 57 114.159179688 57 120.58203125 48 c 128,-1,10
 127.00390625 39 127.00390625 39 123.771484375 25 c 128,-1,11
 120.5390625 11 120.5390625 11 110.077148438 2.5 c 128,-1,12
 99.615234375 -6 99.615234375 -6 85.615234375 -6 c 128,-1,13
 71.615234375 -6 71.615234375 -6 65.0771484375 2.5 c 128,-1,14
 58.5390625 11 58.5390625 11 61.771484375 25 c 128,-1,15
 65.00390625 39 65.00390625 39 75.58203125 48 c 128,-1,8
 86.1591796875 57 86.1591796875 57 100.159179688 57 c 128,-1,9
EndSplineSet
Substitution2: "'tnum' Tabular Numbers lookup 26 subtable" colon.tf
Substitution2: "'sups' Superscript lookup 15 subtable" colonsuperior
Substitution2: "'subs' Subscript lookup 14 subtable" coloninferior
Substitution2: "'sinf' Scientific Inferiors lookup 13 subtable" coloninferior
AlternateSubs2: "'aalt' Access All Alternates lookup 1 subtable" coloninferior colonsuperior colon.tf
EndChar

StartChar: semicolon
Encoding: 59 59 30
Width: 302
GlyphClass: 2
Flags: W
LayerCount: 2
Fore
SplineSet
194.3515625 439 m 128,-1,1
 180.3515625 439 180.3515625 439 173.428710938 448 c 128,-1,2
 166.506835938 457 166.506835938 457 169.739257812 471 c 128,-1,3
 172.970703125 485 172.970703125 485 183.93359375 493.5 c 128,-1,4
 194.895507812 502 194.895507812 502 208.895507812 502 c 0,5,6
 221.895507812 502 221.895507812 502 228.818359375 493 c 128,-1,7
 235.740234375 484 235.740234375 484 232.739257812 471 c 0,8,9
 229.506835938 457 229.506835938 457 218.928710938 448 c 128,-1,0
 208.3515625 439 208.3515625 439 194.3515625 439 c 128,-1,1
103.159179688 57 m 0,10,11
 123.159179688 57 123.159179688 57 130.465820312 41 c 128,-1,12
 137.771484375 25 137.771484375 25 132 0 c 0,13,14
 123.919921875 -35 123.919921875 -35 98.6474609375 -66.5 c 128,-1,15
 73.375 -98 73.375 -98 35.2197265625 -116 c 1,16,-1
 19.9130859375 -100 l 1,17,18
 54.9140625 -87 54.9140625 -87 82.302734375 -55 c 128,-1,19
 109.690429688 -23 109.690429688 -23 108.923828125 4 c 1,20,-1
 106.154296875 5 l 1,21,22
 98.615234375 -6 98.615234375 -6 84.615234375 -6 c 0,23,24
 72.615234375 -6 72.615234375 -6 66.0771484375 2.5 c 128,-1,25
 59.5390625 11 59.5390625 11 62.771484375 25 c 0,26,27
 65.7734375 38 65.7734375 38 77.4658203125 47.5 c 128,-1,28
 89.1591796875 57 89.1591796875 57 103.159179688 57 c 0,10,11
EndSplineSet
Substitution2: "'tnum' Tabular Numbers lookup 26 subtable" semicolon.tf
Substitution2: "'aalt' Access All Alternates lookup 0 subtable" semicolon.tf
EndChar

StartChar: less
Encoding: 60 60 31
Width: 604
GlyphClass: 2
Flags: W
LayerCount: 2
Fore
SplineSet
598.515625 548 m 1,0,-1
 590.897460938 515 l 1,1,-1
 116.260742188 300 l 1,2,-1
 491.392578125 84 l 1,3,-1
 483.774414062 51 l 1,4,-1
 88.1044921875 282 l 1,5,-1
 96.185546875 317 l 1,6,-1
 598.515625 548 l 1,0,-1
EndSplineSet
EndChar

StartChar: equal
Encoding: 61 61 32
Width: 604
GlyphClass: 2
Flags: W
LayerCount: 2
Fore
SplineSet
556.349609375 426 m 1,0,-1
 550.116210938 399 l 1,1,-1
 110.116210938 399 l 1,2,-1
 116.349609375 426 l 1,3,-1
 556.349609375 426 l 1,0,-1
509.483398438 223 m 1,4,-1
 503.25 196 l 1,5,-1
 63.25 196 l 1,6,-1
 69.4833984375 223 l 1,7,-1
 509.483398438 223 l 1,4,-1
EndSplineSet
Substitution2: "'sups' Superscript lookup 15 subtable" uni207C
Substitution2: "'subs' Subscript lookup 14 subtable" uni208C
Substitution2: "'sinf' Scientific Inferiors lookup 13 subtable" uni208C
AlternateSubs2: "'aalt' Access All Alternates lookup 1 subtable" uni208C uni207C
EndChar

StartChar: greater
Encoding: 62 62 33
Width: 604
GlyphClass: 2
Flags: W
LayerCount: 2
Fore
SplineSet
130.515625 548 m 1,0,-1
 526.185546875 317 l 1,1,-1
 518.104492188 282 l 1,2,-1
 15.7744140625 51 l 1,3,-1
 23.392578125 84 l 1,4,-1
 497.260742188 300 l 1,5,-1
 122.897460938 515 l 1,6,-1
 130.515625 548 l 1,0,-1
EndSplineSet
EndChar

StartChar: question
Encoding: 63 63 34
Width: 488
GlyphClass: 2
Flags: W
LayerCount: 2
Fore
SplineSet
339.681640625 670 m 0,0,1
 427.681640625 670 427.681640625 670 471.176757812 624.5 c 128,-1,2
 514.672851562 579 514.672851562 579 496.665039062 501 c 0,3,4
 477.272460938 417 477.272460938 417 417.381835938 365.5 c 128,-1,5
 357.4921875 314 357.4921875 314 251.490234375 288 c 1,6,-1
 222.631835938 163 l 1,7,-1
 192.631835938 163 l 1,8,-1
 225.415039062 305 l 1,9,10
 340.340820312 335 340.340820312 335 393.883789062 378.5 c 128,-1,11
 447.426757812 422 447.426757812 422 465.203125 499 c 0,12,13
 480.440429688 565 480.440429688 565 443.944335938 604 c 128,-1,14
 407.448242188 643 407.448242188 643 331.448242188 643 c 0,15,16
 165.448242188 643 165.448242188 643 106.432617188 487 c 1,17,-1
 83.6650390625 501 l 1,18,19
 151.681640625 670 151.681640625 670 339.681640625 670 c 0,0,1
183.159179688 57 m 128,-1,21
 197.159179688 57 197.159179688 57 203.58203125 48 c 128,-1,22
 210.00390625 39 210.00390625 39 206.771484375 25 c 0,23,24
 203.770507812 12 203.770507812 12 193.192382812 3 c 128,-1,25
 182.615234375 -6 182.615234375 -6 168.615234375 -6 c 128,-1,26
 154.615234375 -6 154.615234375 -6 147.577148438 2.5 c 128,-1,27
 140.5390625 11 140.5390625 11 143.771484375 25 c 128,-1,28
 147.00390625 39 147.00390625 39 158.08203125 48 c 128,-1,20
 169.159179688 57 169.159179688 57 183.159179688 57 c 128,-1,21
EndSplineSet
Substitution2: "'smcp' Lowercase to Small Capitals lookup 12 subtable" question.sc
Substitution2: "'c2sc' Capitals to Small Capitals lookup 11 subtable" question.sc
Substitution2: "'aalt' Access All Alternates lookup 0 subtable" question.sc
EndChar

StartChar: at
Encoding: 64 64 35
Width: 953
GlyphClass: 2
Flags: W
LayerCount: 2
Fore
SplineSet
573.219726562 668 m 0,0,1
 659.219726562 668 659.219726562 668 723.91015625 645 c 128,-1,2
 788.599609375 622 788.599609375 622 825.98046875 582.5 c 128,-1,3
 863.361328125 543 863.361328125 543 882.39453125 489 c 128,-1,4
 901.427734375 435 901.427734375 435 901.075195312 375 c 128,-1,5
 900.723632812 315 900.723632812 315 885.254882812 248 c 0,6,7
 857.3203125 127 857.3203125 127 805.12109375 59 c 128,-1,8
 752.921875 -9 752.921875 -9 687.921875 -9 c 0,9,10
 636.921875 -9 636.921875 -9 620.771484375 25 c 128,-1,11
 604.62109375 59 604.62109375 59 618.55078125 128 c 1,12,13
 582.775390625 64 582.775390625 64 525.463867188 28 c 128,-1,14
 468.153320312 -8 468.153320312 -8 398.153320312 -8 c 0,15,16
 303.153320312 -8 303.153320312 -8 260.043945312 56.5 c 128,-1,17
 216.934570312 121 216.934570312 121 241.637695312 228 c 0,18,19
 267.495117188 340 267.495117188 340 344.84765625 406.5 c 128,-1,20
 422.200195312 473 422.200195312 473 522.200195312 473 c 0,21,22
 593.200195312 473 593.200195312 473 632.120117188 438 c 128,-1,23
 671.040039062 403 671.040039062 403 674.725585938 341 c 1,24,-1
 705.506835938 457 l 1,25,-1
 727.506835938 457 l 1,26,-1
 645.3984375 136 l 2,27,28
 615.232421875 14 615.232421875 14 698.232421875 14 c 0,29,30
 749.232421875 14 749.232421875 14 791.430664062 75.5 c 128,-1,31
 833.62890625 137 833.62890625 137 859.254882812 248 c 0,32,33
 877.956054688 329 877.956054688 329 872.385742188 398 c 128,-1,34
 866.815429688 467 866.815429688 467 835.744140625 523 c 128,-1,35
 804.672851562 579 804.672851562 579 736.67578125 611.5 c 128,-1,36
 668.678710938 644 668.678710938 644 567.678710938 644 c 0,37,38
 385.678710938 644 385.678710938 644 251.322265625 532 c 128,-1,39
 116.96484375 420 116.96484375 420 73.5615234375 232 c 0,40,41
 30.6201171875 46 30.6201171875 46 116.916992188 -61 c 128,-1,42
 203.213867188 -168 203.213867188 -168 386.213867188 -168 c 0,43,44
 453.213867188 -168 453.213867188 -168 519.947265625 -147.5 c 128,-1,45
 586.6796875 -127 586.6796875 -127 634.991210938 -91 c 1,46,-1
 645.142578125 -112 l 1,47,48
 526.672851562 -192 526.672851562 -192 380.672851562 -192 c 0,49,50
 184.672851562 -192 184.672851562 -192 92.876953125 -78.5 c 128,-1,51
 1.080078125 35 1.080078125 35 46.5615234375 232 c 0,52,53
 92.50390625 431 92.50390625 431 235.862304688 549.5 c 128,-1,54
 379.219726562 668 379.219726562 668 573.219726562 668 c 0,0,1
518.66015625 449 m 0,55,56
 428.66015625 449 428.66015625 449 360.807617188 389 c 128,-1,57
 292.956054688 329 292.956054688 329 269.869140625 229 c 0,58,59
 247.244140625 131 247.244140625 131 284.96875 73.5 c 128,-1,60
 322.694335938 16 322.694335938 16 408.694335938 16 c 0,61,62
 489.694335938 16 489.694335938 16 553.73828125 72.5 c 128,-1,63
 617.782226562 129 617.782226562 129 640.329101562 218 c 2,64,-1
 649.178710938 252 l 2,65,66
 670.802734375 337 670.802734375 337 636.731445312 393 c 128,-1,67
 602.66015625 449 602.66015625 449 518.66015625 449 c 0,55,56
EndSplineSet
Substitution2: "'case' Case-Sensitive Forms lookup 29 subtable" at.case
Substitution2: "'aalt' Access All Alternates lookup 0 subtable" at.case
EndChar

StartChar: A
Encoding: 65 65 36
Width: 602
GlyphClass: 2
Flags: W
LayerCount: 2
Fore
SplineSet
491 0 m 1,0,-1
 451.483398438 223 l 1,1,-1
 125.483398438 223 l 1,2,-1
 -17 0 l 1,3,-1
 -49 0 l 1,4,-1
 372.373046875 660 l 1,5,-1
 407.373046875 660 l 1,6,-1
 523 0 l 1,7,-1
 491 0 l 1,0,-1
142.716796875 250 m 1,8,-1
 446.716796875 250 l 1,9,-1
 389.287109375 573 l 1,10,-1
 382.215820312 629 l 1,11,-1
 349.749023438 575 l 1,12,-1
 142.716796875 250 l 1,8,-1
EndSplineSet
Substitution2: "Single Substitution lookup 56 subtable" A.swsh
Substitution2: "Single Substitution lookup 55 subtable" ordfeminine
Substitution2: "'swsh' Swash lookup 32 subtable" A.swsh
Substitution2: "'c2sc' Capitals to Small Capitals lookup 11 subtable" a.sc
AlternateSubs2: "'aalt' Access All Alternates lookup 1 subtable" a.sc ordfeminine A.swsh
EndChar

StartChar: B
Encoding: 66 66 37
Width: 619
GlyphClass: 2
Flags: W
LayerCount: 2
Fore
SplineSet
37 0 m 1,0,-1
 189.373046875 660 l 1,1,-1
 422.373046875 660 l 2,2,3
 629.373046875 660 629.373046875 660 590.125 490 c 0,4,5
 560.34375 361 560.34375 361 426.110351562 334 c 1,6,-1
 425.87890625 333 l 1,7,8
 492.5703125 323 492.5703125 323 521.489257812 281.5 c 128,-1,9
 550.408203125 240 550.408203125 240 534.940429688 173 c 0,10,11
 515.546875 89 515.546875 89 447.7734375 44.5 c 128,-1,12
 380 0 380 0 269 0 c 2,13,-1
 37 0 l 1,0,-1
147.111328125 347 m 1,14,-1
 350.111328125 347 l 2,15,16
 526.111328125 347 526.111328125 347 558.89453125 489 c 0,17,18
 592.139648438 633 592.139648438 633 416.139648438 633 c 2,19,-1
 213.139648438 633 l 1,20,-1
 147.111328125 347 l 1,14,-1
73.2333984375 27 m 1,21,-1
 280.233398438 27 l 2,22,23
 470.233398438 27 470.233398438 27 503.940429688 173 c 128,-1,24
 537.646484375 319 537.646484375 319 347.646484375 319 c 2,25,-1
 140.646484375 319 l 1,26,-1
 73.2333984375 27 l 1,21,-1
EndSplineSet
Substitution2: "'c2sc' Capitals to Small Capitals lookup 11 subtable" b.sc
Substitution2: "'aalt' Access All Alternates lookup 0 subtable" b.sc
EndChar

StartChar: C
Encoding: 67 67 38
Width: 657
GlyphClass: 2
Flags: W
LayerCount: 2
Fore
SplineSet
591.32421875 166 m 1,0,1
 545.931640625 82 545.931640625 82 466.311523438 36 c 128,-1,2
 386.69140625 -10 386.69140625 -10 287.69140625 -10 c 0,3,4
 153.69140625 -10 153.69140625 -10 94.431640625 82 c 128,-1,5
 35.1708984375 174 35.1708984375 174 71.1865234375 330 c 128,-1,6
 107.202148438 486 107.202148438 486 208.94140625 578 c 128,-1,7
 310.681640625 670 310.681640625 670 444.681640625 670 c 0,8,9
 647.681640625 670 647.681640625 670 661.434570312 500 c 1,10,-1
 629.432617188 487 l 1,11,12
 617.448242188 643 617.448242188 643 439.448242188 643 c 0,13,14
 319.448242188 643 319.448242188 643 227.439453125 558.5 c 128,-1,15
 135.431640625 474 135.431640625 474 102.186523438 330 c 128,-1,16
 68.94140625 186 68.94140625 186 121.93359375 101.5 c 128,-1,17
 174.924804688 17 174.924804688 17 293.924804688 17 c 0,18,19
 382.924804688 17 382.924804688 17 453.62109375 59 c 128,-1,20
 524.317382812 101 524.317382812 101 563.86328125 177 c 1,21,-1
 591.32421875 166 l 1,0,1
EndSplineSet
Substitution2: "'c2sc' Capitals to Small Capitals lookup 11 subtable" c.sc
Substitution2: "'aalt' Access All Alternates lookup 0 subtable" c.sc
EndChar

StartChar: D
Encoding: 68 68 39
Width: 692
GlyphClass: 2
Flags: W
LayerCount: 2
Fore
SplineSet
394.373046875 660 m 2,0,1
 554.373046875 660 554.373046875 660 618.826171875 577.5 c 128,-1,2
 683.279296875 495 683.279296875 495 647.033203125 338 c 0,3,4
 608.708984375 172 608.708984375 172 505.354492188 86 c 128,-1,5
 402 0 402 0 242 0 c 2,6,-1
 37 0 l 1,7,-1
 189.373046875 660 l 1,8,-1
 394.373046875 660 l 2,0,1
250.233398438 27 m 2,9,10
 394.233398438 27 394.233398438 27 487.587890625 106.5 c 128,-1,11
 580.94140625 186 580.94140625 186 616.033203125 338 c 0,12,13
 649.278320312 482 649.278320312 482 591.708984375 557.5 c 128,-1,14
 534.139648438 633 534.139648438 633 390.139648438 633 c 2,15,-1
 213.139648438 633 l 1,16,-1
 73.2333984375 27 l 1,17,-1
 250.233398438 27 l 2,9,10
EndSplineSet
Substitution2: "'c2sc' Capitals to Small Capitals lookup 11 subtable" d.sc
Substitution2: "'aalt' Access All Alternates lookup 0 subtable" d.sc
EndChar

StartChar: E
Encoding: 69 69 40
Width: 595
GlyphClass: 2
Flags: W
AnchorPoint: "Anchor-0" 258 0 basechar 0
LayerCount: 2
Fore
SplineSet
73.2333984375 27 m 1,0,-1
 502.233398438 27 l 1,1,-1
 496 0 l 1,2,-1
 37 0 l 1,3,-1
 189.373046875 660 l 1,4,-1
 632.373046875 660 l 1,5,-1
 626.139648438 633 l 1,6,-1
 213.139648438 633 l 1,7,-1
 147.803710938 350 l 1,8,-1
 476.803710938 350 l 1,9,-1
 470.5703125 323 l 1,10,-1
 141.5703125 323 l 1,11,-1
 73.2333984375 27 l 1,0,-1
EndSplineSet
Substitution2: "Single Substitution lookup 57 subtable" E.swsh.001
Substitution2: "Single Substitution lookup 56 subtable" E.swsh
AlternateSubs2: "'swsh' Swash lookup 33 subtable" E.swsh E.swsh.001
Substitution2: "'c2sc' Capitals to Small Capitals lookup 11 subtable" e.sc
AlternateSubs2: "'aalt' Access All Alternates lookup 1 subtable" e.sc E.swsh E.swsh.001
EndChar

StartChar: F
Encoding: 70 70 41
Width: 566
GlyphClass: 2
Flags: W
LayerCount: 2
Fore
SplineSet
625.139648438 633 m 1,0,-1
 213.139648438 633 l 1,1,-1
 147.803710938 350 l 1,2,-1
 476.803710938 350 l 1,3,-1
 470.5703125 323 l 1,4,-1
 141.5703125 323 l 1,5,-1
 67 0 l 1,6,-1
 37 0 l 1,7,-1
 189.373046875 660 l 1,8,-1
 631.373046875 660 l 1,9,-1
 625.139648438 633 l 1,0,-1
EndSplineSet
Substitution2: "Single Substitution lookup 56 subtable" F.swsh
Substitution2: "'swsh' Swash lookup 34 subtable" F.swsh
Substitution2: "'c2sc' Capitals to Small Capitals lookup 11 subtable" f.sc
AlternateSubs2: "'aalt' Access All Alternates lookup 1 subtable" f.sc F.swsh
EndChar

StartChar: G
Encoding: 71 71 42
Width: 687
GlyphClass: 2
Flags: W
AnchorPoint: "Anchor-0" 299 0 basechar 0
LayerCount: 2
Fore
SplineSet
363.954101562 316 m 1,0,-1
 626.954101562 316 l 1,1,-1
 554 0 l 1,2,-1
 528 0 l 1,3,-1
 558.62890625 137 l 1,4,5
 518.467773438 67 518.467773438 67 448.580078125 28.5 c 128,-1,6
 378.69140625 -10 378.69140625 -10 284.69140625 -10 c 0,7,8
 151.69140625 -10 151.69140625 -10 93.431640625 82 c 128,-1,9
 35.1708984375 174 35.1708984375 174 71.1865234375 330 c 128,-1,10
 107.202148438 486 107.202148438 486 209.44140625 578 c 128,-1,11
 311.681640625 670 311.681640625 670 445.681640625 670 c 0,12,13
 648.681640625 670 648.681640625 670 664.665039062 501 c 1,14,-1
 634.432617188 487 l 1,15,16
 622.448242188 643 622.448242188 643 439.448242188 643 c 0,17,18
 319.448242188 643 319.448242188 643 227.439453125 558.5 c 128,-1,19
 135.431640625 474 135.431640625 474 102.186523438 330 c 0,20,21
 68.7109375 185 68.7109375 185 119.817382812 101 c 128,-1,22
 170.924804688 17 170.924804688 17 291.924804688 17 c 0,23,24
 355.924804688 17 355.924804688 17 409.388671875 38.5 c 128,-1,25
 462.852539062 60 462.852539062 60 496.432617188 95 c 128,-1,26
 530.012695312 130 530.012695312 130 551.0546875 167 c 128,-1,27
 572.096679688 204 572.096679688 204 580.870117188 242 c 2,28,-1
 591.490234375 288 l 1,29,-1
 357.490234375 288 l 1,30,-1
 363.954101562 316 l 1,0,-1
EndSplineSet
Substitution2: "'ss04' Style Set 4 lookup 50 subtable" G.ss04
Substitution2: "'salt' Stylistic Alternatives lookup 42 subtable" G.ss04
Substitution2: "'c2sc' Capitals to Small Capitals lookup 11 subtable" g.sc
AlternateSubs2: "'aalt' Access All Alternates lookup 1 subtable" g.sc G.ss04
EndChar

StartChar: H
Encoding: 72 72 43
Width: 704
GlyphClass: 2
Flags: W
LayerCount: 2
Fore
SplineSet
661.373046875 660 m 1,0,-1
 691.373046875 660 l 1,1,-1
 539 0 l 1,2,-1
 509 0 l 1,3,-1
 583.5703125 323 l 1,4,-1
 141.5703125 323 l 1,5,-1
 67 0 l 1,6,-1
 37 0 l 1,7,-1
 189.373046875 660 l 1,8,-1
 219.373046875 660 l 1,9,-1
 147.803710938 350 l 1,10,-1
 589.803710938 350 l 1,11,-1
 661.373046875 660 l 1,0,-1
EndSplineSet
Substitution2: "'sups' Superscript lookup 15 subtable" Hsuperior
Substitution2: "'subs' Subscript lookup 14 subtable" Hinferior
Substitution2: "'sinf' Scientific Inferiors lookup 13 subtable" Hinferior
Substitution2: "'c2sc' Capitals to Small Capitals lookup 11 subtable" h.sc
AlternateSubs2: "'aalt' Access All Alternates lookup 1 subtable" h.sc Hinferior Hsuperior
EndChar

StartChar: I
Encoding: 73 73 44
Width: 232
GlyphClass: 2
Flags: W
LayerCount: 2
Fore
SplineSet
219.373046875 660 m 1,0,-1
 67 0 l 1,1,-1
 37 0 l 1,2,-1
 189.373046875 660 l 1,3,-1
 219.373046875 660 l 1,0,-1
EndSplineSet
Substitution2: "'c2sc' Capitals to Small Capitals lookup 11 subtable" i.sc
Substitution2: "'aalt' Access All Alternates lookup 0 subtable" i.sc
EndChar

StartChar: J
Encoding: 74 74 45
Width: 513
GlyphClass: 2
Flags: W
LayerCount: 2
Fore
SplineSet
507.373046875 660 m 1,0,-1
 404.174804688 213 l 2,1,2
 380.165039062 109 380.165039062 109 314.427734375 49.5 c 128,-1,3
 248.69140625 -10 248.69140625 -10 151.69140625 -10 c 0,4,5
 51.69140625 -10 51.69140625 -10 16.58203125 48 c 128,-1,6
 -18.5283203125 106 -18.5283203125 106 18.0966796875 204 c 1,7,-1
 49.1748046875 213 l 1,8,9
 14.2421875 118 14.2421875 118 42.583984375 67.5 c 128,-1,10
 70.9248046875 17 70.9248046875 17 157.924804688 17 c 0,11,12
 243.924804688 17 243.924804688 17 298.544921875 69.5 c 128,-1,13
 353.166015625 122 353.166015625 122 375.098632812 217 c 2,14,-1
 477.373046875 660 l 1,15,-1
 507.373046875 660 l 1,0,-1
EndSplineSet
Substitution2: "'c2sc' Capitals to Small Capitals lookup 11 subtable" j.sc
Substitution2: "'aalt' Access All Alternates lookup 0 subtable" j.sc
EndChar

StartChar: K
Encoding: 75 75 46
Width: 579
GlyphClass: 2
Flags: W
AnchorPoint: "Anchor-0" 267 0 basechar 0
LayerCount: 2
Fore
SplineSet
461 0 m 1,0,-1
 294.114257812 373 l 1,1,-1
 119.869140625 229 l 1,2,-1
 67 0 l 1,3,-1
 37 0 l 1,4,-1
 189.373046875 660 l 1,5,-1
 219.373046875 660 l 1,6,-1
 129.565429688 271 l 1,7,-1
 601.373046875 660 l 1,8,-1
 642.373046875 660 l 1,9,-1
 321.193359375 395 l 1,10,-1
 498 0 l 1,11,-1
 461 0 l 1,0,-1
EndSplineSet
Substitution2: "'c2sc' Capitals to Small Capitals lookup 11 subtable" k.sc
Substitution2: "'aalt' Access All Alternates lookup 0 subtable" k.sc
EndChar

StartChar: L
Encoding: 76 76 47
Width: 555
GlyphClass: 2
Flags: W
AnchorPoint: "Anchor-0" 274 0 basechar 0
LayerCount: 2
Fore
SplineSet
73.2333984375 27 m 1,0,-1
 481.233398438 27 l 1,1,-1
 475 0 l 1,2,-1
 37 0 l 1,3,-1
 189.373046875 660 l 1,4,-1
 219.373046875 660 l 1,5,-1
 73.2333984375 27 l 1,0,-1
EndSplineSet
Substitution2: "Single Substitution lookup 57 subtable" L.swsh
Substitution2: "'swsh' Swash lookup 34 subtable" L.swsh
Substitution2: "'c2sc' Capitals to Small Capitals lookup 11 subtable" l.sc
AlternateSubs2: "'aalt' Access All Alternates lookup 1 subtable" l.sc L.swsh
Position2: "Single Positioning lookup 6 subtable" dx=0 dy=0 dh=-152 dv=0
EndChar

StartChar: M
Encoding: 77 77 48
Width: 801
GlyphClass: 2
Flags: W
LayerCount: 2
Fore
SplineSet
788.373046875 660 m 1,0,-1
 636 0 l 1,1,-1
 607 0 l 1,2,-1
 732.592773438 544 l 1,3,-1
 754.75390625 627 l 1,4,-1
 753.75390625 627 l 1,5,-1
 352 0 l 1,6,-1
 321 0 l 1,7,-1
 208.75390625 627 l 1,8,-1
 207.75390625 627 l 1,9,-1
 191.592773438 544 l 1,10,-1
 66 0 l 1,11,-1
 37 0 l 1,12,-1
 189.373046875 660 l 1,13,-1
 232.373046875 660 l 1,14,-1
 337.701171875 94 l 1,15,-1
 344.080078125 35 l 1,16,-1
 345.080078125 35 l 1,17,-1
 378.470703125 93 l 1,18,-1
 745.373046875 660 l 1,19,-1
 788.373046875 660 l 1,0,-1
EndSplineSet
Substitution2: "Single Substitution lookup 56 subtable" M.swsh
AlternateSubs2: "'swsh' Swash lookup 35 subtable" M.swsh M.swsh.001
Substitution2: "'c2sc' Capitals to Small Capitals lookup 11 subtable" m.sc
AlternateSubs2: "'aalt' Access All Alternates lookup 1 subtable" m.sc M.swsh M.swsh.001
EndChar

StartChar: N
Encoding: 78 78 49
Width: 703
GlyphClass: 2
Flags: W
AnchorPoint: "Anchor-0" 294 0 basechar 0
LayerCount: 2
Fore
SplineSet
690.373046875 660 m 1,0,-1
 538 0 l 1,1,-1
 499 0 l 1,2,-1
 231.364257812 569 l 1,3,-1
 209.985351562 628 l 1,4,-1
 208.985351562 628 l 1,5,-1
 195.516601562 561 l 1,6,-1
 66 0 l 1,7,-1
 37 0 l 1,8,-1
 189.373046875 660 l 1,9,-1
 228.373046875 660 l 1,10,-1
 495.008789062 91 l 1,11,-1
 517.387695312 32 l 1,12,-1
 531.85546875 99 l 1,13,-1
 661.373046875 660 l 1,14,-1
 690.373046875 660 l 1,0,-1
EndSplineSet
Substitution2: "Single Substitution lookup 57 subtable" N.swsh
Substitution2: "'swsh' Swash lookup 36 subtable" N.swsh
Substitution2: "'c2sc' Capitals to Small Capitals lookup 11 subtable" n.sc
AlternateSubs2: "'aalt' Access All Alternates lookup 1 subtable" n.sc N.swsh
EndChar

StartChar: O
Encoding: 79 79 50
Width: 721
GlyphClass: 2
Flags: W
LayerCount: 2
Fore
SplineSet
451.681640625 670 m 128,-1,1
 590.681640625 670 590.681640625 670 651.057617188 578.5 c 128,-1,2
 711.432617188 487 711.432617188 487 675.186523438 330 c 128,-1,3
 638.940429688 173 638.940429688 173 536.315429688 81.5 c 128,-1,4
 433.69140625 -10 433.69140625 -10 294.69140625 -10 c 128,-1,5
 155.69140625 -10 155.69140625 -10 95.3154296875 81.5 c 128,-1,6
 34.9404296875 173 34.9404296875 173 71.1865234375 330 c 128,-1,7
 107.432617188 487 107.432617188 487 210.057617188 578.5 c 128,-1,0
 312.681640625 670 312.681640625 670 451.681640625 670 c 128,-1,1
445.448242188 643 m 128,-1,9
 320.448242188 643 320.448242188 643 228.055664062 559 c 128,-1,10
 135.662109375 475 135.662109375 475 102.186523438 330 c 128,-1,11
 68.7109375 185 68.7109375 185 122.317382812 101 c 128,-1,12
 175.924804688 17 175.924804688 17 300.924804688 17 c 128,-1,13
 425.924804688 17 425.924804688 17 518.317382812 101 c 128,-1,14
 610.7109375 185 610.7109375 185 644.186523438 330 c 128,-1,15
 677.662109375 475 677.662109375 475 624.055664062 559 c 128,-1,8
 570.448242188 643 570.448242188 643 445.448242188 643 c 128,-1,9
EndSplineSet
Substitution2: "Single Substitution lookup 55 subtable" ordmasculine
Substitution2: "'nalt' Alternate Annotation Forms lookup 23 subtable" indexring
Substitution2: "'sups' Superscript lookup 15 subtable" Osuperior
Substitution2: "'subs' Subscript lookup 14 subtable" Oinferior
Substitution2: "'sinf' Scientific Inferiors lookup 13 subtable" Oinferior
Substitution2: "'c2sc' Capitals to Small Capitals lookup 11 subtable" o.sc
AlternateSubs2: "'aalt' Access All Alternates lookup 1 subtable" o.sc Oinferior Osuperior ordmasculine indexring
EndChar

StartChar: P
Encoding: 80 80 51
Width: 572
GlyphClass: 2
Flags: W
LayerCount: 2
Fore
SplineSet
399.373046875 660 m 2,0,1
 504.373046875 660 504.373046875 660 552.830078125 610 c 128,-1,2
 601.286132812 560 601.286132812 560 580.969726562 472 c 128,-1,3
 560.653320312 384 560.653320312 384 489.110351562 334 c 128,-1,4
 417.56640625 284 417.56640625 284 312.56640625 284 c 2,5,-1
 132.56640625 284 l 1,6,-1
 67 0 l 1,7,-1
 37 0 l 1,8,-1
 189.373046875 660 l 1,9,-1
 399.373046875 660 l 2,0,1
316.799804688 311 m 2,10,11
 410.799804688 311 410.799804688 311 471.49609375 353 c 128,-1,12
 532.193359375 395 532.193359375 395 549.969726562 472 c 0,13,14
 567.515625 548 567.515625 548 525.828125 590.5 c 128,-1,15
 484.139648438 633 484.139648438 633 391.139648438 633 c 2,16,-1
 213.139648438 633 l 1,17,-1
 138.799804688 311 l 1,18,-1
 316.799804688 311 l 2,10,11
EndSplineSet
Substitution2: "'c2sc' Capitals to Small Capitals lookup 11 subtable" p.sc
Substitution2: "'aalt' Access All Alternates lookup 0 subtable" p.sc
EndChar

StartChar: Q
Encoding: 81 81 52
Width: 721
GlyphClass: 2
Flags: W
LayerCount: 2
Fore
SplineSet
433.67578125 -166 m 0,0,1
 503.67578125 -166 503.67578125 -166 549.217773438 -129 c 1,2,-1
 554.984375 -156 l 1,3,4
 503.98046875 -195 503.98046875 -195 426.98046875 -195 c 0,5,6
 348.98046875 -195 348.98046875 -195 309.947265625 -147.5 c 128,-1,7
 270.913085938 -100 270.913085938 -100 285.69140625 -10 c 1,8,9
 150.383789062 -7 150.383789062 -7 92.892578125 84 c 128,-1,10
 35.40234375 175 35.40234375 175 71.1865234375 330 c 0,11,12
 107.432617188 487 107.432617188 487 210.057617188 578.5 c 128,-1,13
 312.681640625 670 312.681640625 670 451.681640625 670 c 128,-1,14
 590.681640625 670 590.681640625 670 651.057617188 578.5 c 128,-1,15
 711.432617188 487 711.432617188 487 675.186523438 330 c 0,16,17
 640.325195312 179 640.325195312 179 542.81640625 88 c 128,-1,18
 445.307617188 -3 445.307617188 -3 312.69140625 -10 c 1,19,20
 299.68359375 -88 299.68359375 -88 332.6796875 -127 c 128,-1,21
 365.67578125 -166 365.67578125 -166 433.67578125 -166 c 0,0,1
102.186523438 330 m 128,-1,23
 68.7109375 185 68.7109375 185 122.317382812 101 c 128,-1,24
 175.924804688 17 175.924804688 17 300.924804688 17 c 128,-1,25
 425.924804688 17 425.924804688 17 518.317382812 101 c 128,-1,26
 610.7109375 185 610.7109375 185 644.186523438 330 c 128,-1,27
 677.662109375 475 677.662109375 475 624.055664062 559 c 128,-1,28
 570.448242188 643 570.448242188 643 445.448242188 643 c 128,-1,29
 320.448242188 643 320.448242188 643 228.055664062 559 c 128,-1,22
 135.662109375 475 135.662109375 475 102.186523438 330 c 128,-1,23
EndSplineSet
Substitution2: "'c2sc' Capitals to Small Capitals lookup 11 subtable" q.sc
Substitution2: "'aalt' Access All Alternates lookup 0 subtable" q.sc
EndChar

StartChar: R
Encoding: 82 82 53
Width: 621
GlyphClass: 2
Flags: W
AnchorPoint: "Anchor-0" 286 0 basechar 0
LayerCount: 2
Fore
SplineSet
37 0 m 5,0,-1
 189.373046875 660 l 5,1,-1
 430.373046875 660 l 6,2,3
 528.373046875 660 528.373046875 660 574.060546875 611 c 132,-1,4
 619.748046875 562 619.748046875 562 600.124023438 477 c 4,5,6
 584.194335938 408 584.194335938 408 534.8046875 363 c 132,-1,7
 485.416015625 318 485.416015625 318 415.876953125 307 c 5,8,-1
 415.645507812 306 l 5,9,10
 536.258789062 287 536.258789062 287 510.169921875 161 c 4,11,12
 497.85546875 99 497.85546875 99 494.9296875 62.5 c 132,-1,13
 492.002929688 26 492.002929688 26 493.6171875 20 c 132,-1,14
 495.232421875 14 495.232421875 14 500.461914062 2 c 5,15,-1
 500 0 l 5,16,-1
 468 0 l 5,17,18
 455.541992188 37 455.541992188 37 480.24609375 157 c 4,19,20
 493.252929688 222 493.252929688 222 461.064453125 258 c 132,-1,21
 428.875 294 428.875 294 349.875 294 c 6,22,-1
 134.875 294 l 5,23,-1
 67 0 l 5,24,-1
 37 0 l 5,0,-1
141.33984375 322 m 5,25,-1
 352.33984375 322 l 6,26,27
 438.33984375 322 438.33984375 322 495.8046875 363 c 132,-1,28
 553.270507812 404 553.270507812 404 570.124023438 477 c 4,29,30
 587.208007812 551 587.208007812 551 548.673828125 592 c 132,-1,31
 510.139648438 633 510.139648438 633 424.139648438 633 c 6,32,-1
 213.139648438 633 l 5,33,-1
 141.33984375 322 l 5,25,-1
EndSplineSet
Substitution2: "Single Substitution lookup 57 subtable" R.swsh.001
Substitution2: "Single Substitution lookup 56 subtable" R.swsh
Substitution2: "'ss03' Style Set 3 lookup 49 subtable" R.ss03
Substitution2: "'salt' Stylistic Alternatives lookup 42 subtable" R.ss03
AlternateSubs2: "'swsh' Swash lookup 37 subtable" R.swsh R.swsh.001
Substitution2: "'c2sc' Capitals to Small Capitals lookup 11 subtable" r.sc
AlternateSubs2: "'aalt' Access All Alternates lookup 1 subtable" r.sc R.swsh R.swsh.001 R.ss03
EndChar

StartChar: S
Encoding: 83 83 54
Width: 604
GlyphClass: 2
Flags: W
AnchorPoint: "Anchor-0" 258 0 basechar 0
LayerCount: 2
Fore
SplineSet
390.681640625 670 m 0,0,1
 583.681640625 670 583.681640625 670 601.051757812 520 c 1,2,-1
 570.434570312 500 l 1,3,4
 560.448242188 643 560.448242188 643 385.448242188 643 c 0,5,6
 291.448242188 643 291.448242188 643 224.905273438 599.5 c 128,-1,7
 158.362304688 556 158.362304688 556 143.125 490 c 0,8,9
 129.041992188 429 129.041992188 429 170.693359375 395 c 128,-1,10
 212.34375 361 212.34375 361 335.264648438 339 c 128,-1,11
 458.185546875 317 458.185546875 317 501.950195312 277 c 128,-1,12
 545.715820312 237 545.715820312 237 528.862304688 164 c 0,13,14
 511.0859375 87 511.0859375 87 432.888671875 38.5 c 128,-1,15
 354.69140625 -10 354.69140625 -10 246.69140625 -10 c 0,16,17
 139.69140625 -10 139.69140625 -10 78.6181640625 33 c 128,-1,18
 17.5458984375 76 17.5458984375 76 15.7080078125 159 c 1,19,-1
 46.86328125 177 l 1,20,21
 44.625 98 44.625 98 100.275390625 57.5 c 128,-1,22
 155.924804688 17 155.924804688 17 252.924804688 17 c 0,23,24
 344.924804688 17 344.924804688 17 413.928710938 56 c 128,-1,25
 482.932617188 95 482.932617188 95 498.631835938 163 c 0,26,27
 512.252929688 222 512.252929688 222 472.602539062 256 c 128,-1,28
 432.952148438 290 432.952148438 290 321.337890625 309 c 0,29,30
 186.87890625 333 186.87890625 333 140.729492188 373.5 c 128,-1,31
 94.5791015625 414 94.5791015625 414 111.6640625 488 c 0,32,33
 129.209960938 564 129.209960938 564 205.9453125 617 c 128,-1,34
 282.681640625 670 282.681640625 670 390.681640625 670 c 0,0,1
EndSplineSet
Substitution2: "Single Substitution lookup 57 subtable" S.swsh
Substitution2: "Single Substitution lookup 56 subtable" S.swsh
Substitution2: "'swsh' Swash lookup 38 subtable" S.swsh
Substitution2: "'c2sc' Capitals to Small Capitals lookup 11 subtable" s.sc
AlternateSubs2: "'aalt' Access All Alternates lookup 1 subtable" s.sc S.swsh
EndChar

StartChar: T
Encoding: 84 84 55
Width: 557
GlyphClass: 2
Flags: W
AnchorPoint: "Anchor-0" 221 0 basechar 0
LayerCount: 2
Fore
SplineSet
630.373046875 660 m 1,0,-1
 624.139648438 633 l 1,1,-1
 376.139648438 633 l 1,2,-1
 230 0 l 1,3,-1
 200 0 l 1,4,-1
 346.139648438 633 l 1,5,-1
 98.1396484375 633 l 1,6,-1
 104.373046875 660 l 1,7,-1
 630.373046875 660 l 1,0,-1
EndSplineSet
Substitution2: "Single Substitution lookup 56 subtable" T.swsh
Substitution2: "'swsh' Swash lookup 38 subtable" T.swsh
Substitution2: "'c2sc' Capitals to Small Capitals lookup 11 subtable" t.sc
AlternateSubs2: "'aalt' Access All Alternates lookup 1 subtable" t.sc T.swsh
EndChar

StartChar: U
Encoding: 85 85 56
Width: 689
GlyphClass: 2
Flags: W
LayerCount: 2
Fore
SplineSet
684.373046875 660 m 1,0,-1
 586.715820312 237 l 2,1,2
 559.2421875 118 559.2421875 118 478.466796875 54 c 128,-1,3
 397.69140625 -10 397.69140625 -10 277.69140625 -10 c 0,4,5
 158.69140625 -10 158.69140625 -10 107.466796875 54 c 128,-1,6
 56.2421875 118 56.2421875 118 83.7158203125 237 c 2,7,-1
 181.373046875 660 l 1,8,-1
 211.373046875 660 l 1,9,-1
 114.870117188 242 l 2,10,11
 89.9365234375 134 89.9365234375 134 133.930664062 75.5 c 128,-1,12
 177.924804688 17 177.924804688 17 283.924804688 17 c 128,-1,13
 389.924804688 17 389.924804688 17 461.430664062 75.5 c 128,-1,14
 532.936523438 134 532.936523438 134 557.870117188 242 c 2,15,-1
 654.373046875 660 l 1,16,-1
 684.373046875 660 l 1,0,-1
EndSplineSet
Substitution2: "'c2sc' Capitals to Small Capitals lookup 11 subtable" u.sc
Substitution2: "'aalt' Access All Alternates lookup 0 subtable" u.sc
EndChar

StartChar: V
Encoding: 86 86 57
Width: 592
GlyphClass: 2
Flags: W
LayerCount: 2
Fore
SplineSet
660.373046875 660 m 1,0,-1
 251 0 l 1,1,-1
 213 0 l 1,2,-1
 107.373046875 660 l 1,3,-1
 140.373046875 660 l 1,4,-1
 228.087890625 113 l 1,5,-1
 238.92578125 30 l 1,6,-1
 287.857421875 112 l 1,7,-1
 628.373046875 660 l 1,8,-1
 660.373046875 660 l 1,0,-1
EndSplineSet
Substitution2: "'c2sc' Capitals to Small Capitals lookup 11 subtable" v.sc
Substitution2: "'aalt' Access All Alternates lookup 0 subtable" v.sc
EndChar

StartChar: W
Encoding: 87 87 58
Width: 920
GlyphClass: 2
Flags: W
LayerCount: 2
Fore
SplineSet
469.202148438 486 m 1,0,-1
 213 0 l 1,1,-1
 175 0 l 1,2,-1
 114.373046875 660 l 1,3,-1
 146.373046875 660 l 1,4,-1
 200.002929688 26 l 1,5,-1
 530.373046875 660 l 1,6,-1
 567.373046875 660 l 1,7,-1
 605.002929688 26 l 1,8,-1
 952.373046875 660 l 1,9,-1
 983.373046875 660 l 1,10,-1
 618 0 l 1,11,-1
 580 0 l 1,12,-1
 548.202148438 486 l 1,13,-1
 541.29296875 625 l 1,14,-1
 540.29296875 625 l 1,15,-1
 469.202148438 486 l 1,0,-1
EndSplineSet
Substitution2: "Single Substitution lookup 56 subtable" W.swsh
Substitution2: "'swsh' Swash lookup 38 subtable" W.swsh
Substitution2: "'c2sc' Capitals to Small Capitals lookup 11 subtable" w.sc
AlternateSubs2: "'aalt' Access All Alternates lookup 1 subtable" w.sc W.swsh
EndChar

StartChar: X
Encoding: 88 88 59
Width: 542
GlyphClass: 2
Flags: W
LayerCount: 2
Fore
SplineSet
458 0 m 1,0,-1
 422 0 l 1,1,-1
 279.723632812 315 l 1,2,-1
 -12 0 l 1,3,-1
 -49 0 l 1,4,-1
 267.495117188 340 l 1,5,-1
 124.373046875 660 l 1,6,-1
 160.373046875 660 l 1,7,-1
 293.498046875 366 l 1,8,-1
 566.373046875 660 l 1,9,-1
 602.373046875 660 l 1,10,-1
 304.495117188 340 l 1,11,-1
 458 0 l 1,0,-1
EndSplineSet
Substitution2: "'c2sc' Capitals to Small Capitals lookup 11 subtable" x.sc
Substitution2: "'aalt' Access All Alternates lookup 0 subtable" x.sc
EndChar

StartChar: Y
Encoding: 89 89 60
Width: 525
GlyphClass: 2
Flags: W
LayerCount: 2
Fore
SplineSet
598.373046875 660 m 1,0,-1
 273.102539062 256 l 1,1,-1
 214 0 l 1,2,-1
 184 0 l 1,3,-1
 243.102539062 256 l 1,4,-1
 103.373046875 660 l 1,5,-1
 138.373046875 660 l 1,6,-1
 215.197265625 434 l 1,7,-1
 265.490234375 288 l 1,8,-1
 563.373046875 660 l 1,9,-1
 598.373046875 660 l 1,0,-1
EndSplineSet
Substitution2: "'c2sc' Capitals to Small Capitals lookup 11 subtable" y.sc
Substitution2: "'aalt' Access All Alternates lookup 0 subtable" y.sc
EndChar

StartChar: Z
Encoding: 90 90 61
Width: 569
GlyphClass: 2
Flags: W
LayerCount: 2
Fore
SplineSet
12.2333984375 27 m 1,0,-1
 480.233398438 27 l 1,1,-1
 474 0 l 1,2,-1
 -29 0 l 1,3,-1
 -22.9970703125 26 l 1,4,-1
 567.139648438 633 l 1,5,-1
 125.139648438 633 l 1,6,-1
 131.373046875 660 l 1,7,-1
 608.373046875 660 l 1,8,-1
 602.370117188 634 l 1,9,-1
 12.2333984375 27 l 1,0,-1
EndSplineSet
Substitution2: "'c2sc' Capitals to Small Capitals lookup 11 subtable" z.sc
Substitution2: "'aalt' Access All Alternates lookup 0 subtable" z.sc
EndChar

StartChar: bracketleft
Encoding: 91 91 62
Width: 286
GlyphClass: 2
Flags: W
LayerCount: 2
Fore
SplineSet
368.53125 704 m 1,0,-1
 205.53125 704 l 1,1,-1
 10.216796875 -142 l 1,2,-1
 173.216796875 -142 l 1,3,-1
 167.213867188 -168 l 1,4,-1
 -24.7861328125 -168 l 1,5,-1
 182.534179688 730 l 1,6,-1
 374.534179688 730 l 1,7,-1
 368.53125 704 l 1,0,-1
EndSplineSet
Substitution2: "'case' Case-Sensitive Forms lookup 29 subtable" bracketleft.case
Substitution2: "'sups' Superscript lookup 15 subtable" bracketleftsuperior
Substitution2: "'subs' Subscript lookup 14 subtable" bracketleftinferior
Substitution2: "'sinf' Scientific Inferiors lookup 13 subtable" bracketleftinferior
AlternateSubs2: "'aalt' Access All Alternates lookup 1 subtable" bracketleftinferior bracketleftsuperior bracketleft.case
EndChar

StartChar: backslash
Encoding: 92 92 63
Width: 368
GlyphClass: 2
Flags: W
LayerCount: 2
Fore
SplineSet
138.534179688 730 m 1,0,-1
 168.534179688 730 l 1,1,-1
 254.838867188 -70 l 1,2,-1
 224.838867188 -70 l 1,3,-1
 138.534179688 730 l 1,0,-1
EndSplineSet
EndChar

StartChar: bracketright
Encoding: 93 93 64
Width: 286
GlyphClass: 2
Flags: W
LayerCount: 2
Fore
SplineSet
311.534179688 730 m 1,0,-1
 104.213867188 -168 l 1,1,-1
 -86.7861328125 -168 l 1,2,-1
 -80.783203125 -142 l 1,3,-1
 82.216796875 -142 l 1,4,-1
 277.53125 704 l 1,5,-1
 114.53125 704 l 1,6,-1
 120.534179688 730 l 1,7,-1
 311.534179688 730 l 1,0,-1
EndSplineSet
Substitution2: "'case' Case-Sensitive Forms lookup 29 subtable" bracketright.case
Substitution2: "'sups' Superscript lookup 15 subtable" bracketrightsuperior
Substitution2: "'subs' Subscript lookup 14 subtable" bracketrightinferior
Substitution2: "'sinf' Scientific Inferiors lookup 13 subtable" bracketrightinferior
AlternateSubs2: "'aalt' Access All Alternates lookup 1 subtable" bracketrightinferior bracketrightsuperior bracketright.case
EndChar

StartChar: asciicircum
Encoding: 94 94 65
Width: 539
GlyphClass: 2
Flags: W
LayerCount: 2
Fore
SplineSet
521.958007812 355 m 1,0,-1
 489.958007812 355 l 1,1,-1
 367.30078125 703 l 1,2,-1
 84.9580078125 355 l 1,3,-1
 52.9580078125 355 l 1,4,-1
 358.534179688 730 l 1,5,-1
 389.534179688 730 l 1,6,-1
 521.958007812 355 l 1,0,-1
EndSplineSet
EndChar

StartChar: underscore
Encoding: 95 95 66
Width: 508
GlyphClass: 2
Flags: W
LayerCount: 2
Fore
SplineSet
421.60546875 -97 m 1,0,-1
 415.372070312 -124 l 1,1,-1
 -92.6279296875 -124 l 1,2,-1
 -86.39453125 -97 l 1,3,-1
 421.60546875 -97 l 1,0,-1
EndSplineSet
EndChar

StartChar: grave
Encoding: 96 96 67
Width: 539
GlyphClass: 2
Flags: W
LayerCount: 2
Fore
SplineSet
285.45703125 734 m 1,0,-1
 333.595703125 583 l 1,1,-1
 307.595703125 583 l 1,2,-1
 252.45703125 734 l 1,3,-1
 285.45703125 734 l 1,0,-1
EndSplineSet
EndChar

StartChar: a
Encoding: 97 97 68
Width: 528
GlyphClass: 2
Flags: W
LayerCount: 2
Fore
SplineSet
422.694335938 16 m 0,0,1
 448.694335938 16 448.694335938 16 463.541015625 24 c 1,2,-1
 455.76953125 -1 l 1,3,4
 438.69140625 -10 438.69140625 -10 412.69140625 -10 c 0,5,6
 335.69140625 -10 335.69140625 -10 357.854492188 86 c 1,7,8
 326.234375 40 326.234375 40 264.962890625 15 c 128,-1,9
 203.69140625 -10 203.69140625 -10 140.69140625 -10 c 0,10,11
 66.69140625 -10 66.69140625 -10 31.5791015625 22 c 128,-1,12
 -3.533203125 54 -3.533203125 54 9.857421875 112 c 0,13,14
 23.478515625 171 23.478515625 171 76.55859375 206 c 128,-1,15
 129.639648438 241 129.639648438 241 230.794921875 259 c 2,16,-1
 404.720703125 289 l 1,17,-1
 417.418945312 344 l 2,18,19
 432.65625 410 432.65625 410 402.198242188 447 c 128,-1,20
 371.740234375 484 371.740234375 484 299.740234375 484 c 0,21,22
 171.740234375 484 171.740234375 484 102.65234375 371 c 1,23,-1
 83.5771484375 388 l 1,24,25
 156.743164062 510 156.743164062 510 305.743164062 510 c 0,26,27
 391.743164062 510 391.743164062 510 429.045898438 468 c 128,-1,28
 466.349609375 426 466.349609375 426 447.880859375 346 c 2,29,-1
 386.469726562 80 l 2,30,31
 371.694335938 16 371.694335938 16 422.694335938 16 c 0,0,1
151.694335938 16 m 0,32,33
 220.694335938 16 220.694335938 16 289.620117188 52.5 c 128,-1,34
 358.546875 89 358.546875 89 373.784179688 155 c 2,35,-1
 398.94921875 264 l 1,36,-1
 238.485351562 236 l 2,37,38
 144.560546875 219 144.560546875 219 98.1337890625 189 c 128,-1,39
 51.7080078125 159 51.7080078125 159 40.857421875 112 c 0,40,41
 30.4677734375 67 30.4677734375 67 60.0810546875 41.5 c 128,-1,42
 89.6943359375 16 89.6943359375 16 151.694335938 16 c 0,32,33
EndSplineSet
Substitution2: "Single Substitution lookup 55 subtable" ordfeminine
Substitution2: "'smcp' Lowercase to Small Capitals lookup 12 subtable" a.sc
AlternateSubs2: "'aalt' Access All Alternates lookup 1 subtable" a.sc ordfeminine
EndChar

StartChar: b
Encoding: 98 98 69
Width: 595
GlyphClass: 2
Flags: W
LayerCount: 2
Fore
SplineSet
365.743164062 510 m 0,0,1
 472.743164062 510 472.743164062 510 517.8125 441 c 128,-1,2
 562.8828125 372 562.8828125 372 534.716796875 250 c 128,-1,3
 506.55078125 128 506.55078125 128 429.62109375 59 c 128,-1,4
 352.69140625 -10 352.69140625 -10 245.69140625 -10 c 0,5,6
 172.69140625 -10 172.69140625 -10 129.963867188 28 c 128,-1,7
 87.2373046875 66 87.2373046875 66 82.9365234375 134 c 1,8,-1
 51 0 l 1,9,-1
 23 0 l 1,10,-1
 191.534179688 730 l 1,11,-1
 221.534179688 730 l 1,12,-1
 138.65234375 371 l 1,13,14
 174.889648438 437 174.889648438 437 234.31640625 473.5 c 128,-1,15
 293.743164062 510 293.743164062 510 365.743164062 510 c 0,0,1
247.694335938 16 m 0,16,17
 343.694335938 16 343.694335938 16 411.5078125 78 c 128,-1,18
 479.321289062 140 479.321289062 140 504.716796875 250 c 128,-1,19
 530.112304688 360 530.112304688 360 490.926757812 422 c 128,-1,20
 451.740234375 484 451.740234375 484 355.740234375 484 c 0,21,22
 268.740234375 484 268.740234375 484 202.426757812 422 c 128,-1,23
 136.112304688 360 136.112304688 360 111.640625 254 c 2,24,-1
 109.793945312 246 l 2,25,26
 85.3212890625 140 85.3212890625 140 123.0078125 78 c 128,-1,27
 160.694335938 16 160.694335938 16 247.694335938 16 c 0,16,17
EndSplineSet
Substitution2: "'smcp' Lowercase to Small Capitals lookup 12 subtable" b.sc
Substitution2: "'aalt' Access All Alternates lookup 0 subtable" b.sc
EndChar

StartChar: c
Encoding: 99 99 70
Width: 533
GlyphClass: 2
Flags: W
LayerCount: 2
Fore
SplineSet
339.743164062 510 m 0,0,1
 414.743164062 510 414.743164062 510 458.546875 474.5 c 128,-1,2
 502.3515625 439 502.3515625 439 507.344726562 374 c 1,3,-1
 477.34375 361 l 1,4,5
 473.96484375 420 473.96484375 420 436.852539062 452 c 128,-1,6
 399.740234375 484 399.740234375 484 333.740234375 484 c 0,7,8
 237.740234375 484 237.740234375 484 169.926757812 422 c 128,-1,9
 102.112304688 360 102.112304688 360 76.716796875 250 c 128,-1,10
 51.3212890625 140 51.3212890625 140 89.5078125 78 c 128,-1,11
 127.694335938 16 127.694335938 16 222.694335938 16 c 0,12,13
 291.694335938 16 291.694335938 16 349.889648438 51.5 c 128,-1,14
 408.0859375 87 408.0859375 87 431.9375 147 c 1,15,-1
 456.62890625 137 l 1,16,17
 426.161132812 70 426.161132812 70 360.42578125 30 c 128,-1,18
 294.69140625 -10 294.69140625 -10 217.69140625 -10 c 0,19,20
 107.69140625 -10 107.69140625 -10 63.12109375 59 c 128,-1,21
 18.55078125 128 18.55078125 128 46.716796875 250 c 128,-1,22
 74.8828125 372 74.8828125 372 152.8125 441 c 128,-1,23
 230.743164062 510 230.743164062 510 339.743164062 510 c 0,0,1
EndSplineSet
Substitution2: "'smcp' Lowercase to Small Capitals lookup 12 subtable" c.sc
Substitution2: "'aalt' Access All Alternates lookup 0 subtable" c.sc
EndChar

StartChar: d
Encoding: 100 100 71
Width: 595
GlyphClass: 2
Flags: W
LayerCount: 2
Fore
SplineSet
582.534179688 730 m 1,0,-1
 612.534179688 730 l 1,1,-1
 444 0 l 1,2,-1
 416 0 l 1,3,-1
 445.705078125 133 l 1,4,5
 410.237304688 66 410.237304688 66 349.963867188 28 c 128,-1,6
 289.69140625 -10 289.69140625 -10 215.69140625 -10 c 0,7,8
 108.69140625 -10 108.69140625 -10 64.12109375 59 c 128,-1,9
 19.55078125 128 19.55078125 128 47.716796875 250 c 128,-1,10
 75.8828125 372 75.8828125 372 152.3125 441 c 128,-1,11
 228.743164062 510 228.743164062 510 335.743164062 510 c 0,12,13
 407.743164062 510 407.743164062 510 450.81640625 473.5 c 128,-1,14
 493.889648438 437 493.889648438 437 499.65234375 371 c 1,15,-1
 582.534179688 730 l 1,0,-1
226.694335938 16 m 0,16,17
 313.694335938 16 313.694335938 16 380.0078125 78 c 128,-1,18
 446.321289062 140 446.321289062 140 470.793945312 246 c 2,19,-1
 472.640625 254 l 2,20,21
 497.112304688 360 497.112304688 360 459.426757812 422 c 128,-1,22
 421.740234375 484 421.740234375 484 334.740234375 484 c 0,23,24
 238.740234375 484 238.740234375 484 170.926757812 422 c 128,-1,25
 103.112304688 360 103.112304688 360 77.716796875 250 c 128,-1,26
 52.3212890625 140 52.3212890625 140 91.5078125 78 c 128,-1,27
 130.694335938 16 130.694335938 16 226.694335938 16 c 0,16,17
EndSplineSet
Substitution2: "'smcp' Lowercase to Small Capitals lookup 12 subtable" d.sc
Substitution2: "'aalt' Access All Alternates lookup 0 subtable" d.sc
EndChar

StartChar: e
Encoding: 101 101 72
Width: 544
GlyphClass: 2
Flags: W
AnchorPoint: "Anchor-0" 224 0 basechar 0
LayerCount: 2
Fore
SplineSet
488.409179688 253 m 0,0,1
 487.486328125 249 487.486328125 249 485.600585938 243 c 128,-1,2
 483.715820312 237 483.715820312 237 483.25390625 235 c 2,3,-1
 73.25390625 235 l 1,4,5
 53.474609375 132 53.474609375 132 93.083984375 74 c 128,-1,6
 132.694335938 16 132.694335938 16 224.694335938 16 c 0,7,8
 285.694335938 16 285.694335938 16 339.54296875 43.5 c 128,-1,9
 393.391601562 71 393.391601562 71 427.704101562 120 c 1,10,-1
 449.703125 107 l 1,11,12
 410.004882812 52 410.004882812 52 349.848632812 21 c 128,-1,13
 289.69140625 -10 289.69140625 -10 218.69140625 -10 c 0,14,15
 109.69140625 -10 109.69140625 -10 64.12109375 59 c 128,-1,16
 18.55078125 128 18.55078125 128 46.716796875 250 c 128,-1,17
 74.8828125 372 74.8828125 372 150.8125 441 c 128,-1,18
 226.743164062 510 226.743164062 510 333.743164062 510 c 0,19,20
 433.743164062 510 433.743164062 510 474.8125 441 c 128,-1,21
 515.8828125 372 515.8828125 372 488.409179688 253 c 0,0,1
327.740234375 484 m 0,22,23
 237.740234375 484 237.740234375 484 172.234375 425.5 c 128,-1,24
 106.728515625 367 106.728515625 367 79.4873046875 262 c 1,25,-1
 462.487304688 262 l 1,26,27
 483.728515625 367 483.728515625 367 449.234375 425.5 c 128,-1,28
 414.740234375 484 414.740234375 484 327.740234375 484 c 0,22,23
EndSplineSet
Substitution2: "'smcp' Lowercase to Small Capitals lookup 12 subtable" e.sc
Substitution2: "'aalt' Access All Alternates lookup 0 subtable" e.sc
EndChar

StartChar: f
Encoding: 102 102 73
Width: 336
GlyphClass: 2
Flags: W
LayerCount: 2
Fore
SplineSet
216.134765625 581 m 2,0,-1
 197.434570312 500 l 1,1,-1
 379.434570312 500 l 1,2,-1
 373.431640625 474 l 1,3,-1
 191.431640625 474 l 1,4,-1
 82 0 l 1,5,-1
 52 0 l 1,6,-1
 161.431640625 474 l 1,7,-1
 61.431640625 474 l 1,8,-1
 67.4345703125 500 l 1,9,-1
 167.434570312 500 l 1,10,-1
 186.595703125 583 l 2,11,12
 202.98828125 654 202.98828125 654 249.337890625 694.5 c 128,-1,13
 295.688476562 735 295.688476562 735 361.688476562 735 c 0,14,15
 411.688476562 735 411.688476562 735 433.993164062 706 c 1,16,-1
 418.452148438 682 l 1,17,18
 399.455078125 708 399.455078125 708 357.455078125 708 c 0,19,20
 304.455078125 708 304.455078125 708 267.220703125 674.5 c 128,-1,21
 229.986328125 641 229.986328125 641 216.134765625 581 c 2,0,-1
EndSplineSet
Substitution2: "'smcp' Lowercase to Small Capitals lookup 12 subtable" f.sc
Substitution2: "'aalt' Access All Alternates lookup 0 subtable" f.sc
EndChar

StartChar: g
Encoding: 103 103 74
Width: 595
GlyphClass: 2
Flags: W
LayerCount: 2
Fore
SplineSet
532.203125 499 m 1,0,-1
 559.203125 499 l 1,1,-1
 447.462890625 15 l 2,2,3
 422.067382812 -95 422.067382812 -95 347.215820312 -155 c 128,-1,4
 272.36328125 -215 272.36328125 -215 160.36328125 -215 c 0,5,6
 77.36328125 -215 77.36328125 -215 30.482421875 -182 c 128,-1,7
 -16.3994140625 -149 -16.3994140625 -149 -15.7783203125 -90 c 1,8,-1
 16.9921875 -78 l 1,9,10
 13.755859375 -131 13.755859375 -131 53.5615234375 -160 c 128,-1,11
 93.3662109375 -189 93.3662109375 -189 168.366210938 -189 c 0,12,13
 262.366210938 -189 262.366210938 -189 328.717773438 -135.5 c 128,-1,14
 395.068359375 -82 395.068359375 -82 416.30859375 10 c 2,15,-1
 443.3203125 127 l 1,16,17
 407.544921875 63 407.544921875 63 347.848632812 27.5 c 128,-1,18
 288.153320312 -8 288.153320312 -8 216.153320312 -8 c 0,19,20
 109.153320312 -8 109.153320312 -8 64.0830078125 61 c 128,-1,21
 19.0126953125 130 19.0126953125 130 46.9482421875 251 c 128,-1,22
 74.8828125 372 74.8828125 372 151.8125 441 c 128,-1,23
 228.743164062 510 228.743164062 510 335.743164062 510 c 0,24,25
 407.743164062 510 407.743164062 510 450.931640625 474 c 128,-1,26
 494.120117188 438 494.120117188 438 501.114257812 373 c 1,27,-1
 532.203125 499 l 1,0,-1
227.155273438 18 m 0,28,29
 314.155273438 18 314.155273438 18 380.354492188 79.5 c 128,-1,30
 446.552734375 141 446.552734375 141 471.024414062 247 c 2,31,-1
 473.794921875 259 l 2,32,33
 496.8046875 363 496.8046875 363 458.772460938 423.5 c 128,-1,34
 420.740234375 484 420.740234375 484 334.740234375 484 c 0,35,36
 239.740234375 484 239.740234375 484 171.426757812 422 c 128,-1,37
 103.112304688 360 103.112304688 360 77.9482421875 251 c 128,-1,38
 52.783203125 142 52.783203125 142 92.4697265625 80 c 128,-1,39
 132.155273438 18 132.155273438 18 227.155273438 18 c 0,28,29
EndSplineSet
Substitution2: "'ss01' Style Set 1 lookup 47 subtable" g.ss01
Substitution2: "'salt' Stylistic Alternatives lookup 42 subtable" g.ss01
Substitution2: "'smcp' Lowercase to Small Capitals lookup 12 subtable" g.sc
AlternateSubs2: "'aalt' Access All Alternates lookup 1 subtable" g.sc g.ss01
EndChar

StartChar: h
Encoding: 104 104 75
Width: 584
GlyphClass: 2
Flags: W
LayerCount: 2
Fore
SplineSet
368.973632812 511 m 0,0,1
 454.973632812 511 454.973632812 511 494.891601562 463 c 128,-1,2
 534.810546875 415 534.810546875 415 514.724609375 328 c 2,3,-1
 439.23046875 1 l 1,4,-1
 409.23046875 1 l 1,5,-1
 482.877929688 320 l 2,6,7
 501.34765625 400 501.34765625 400 467.659179688 442.5 c 128,-1,8
 433.970703125 485 433.970703125 485 358.970703125 485 c 0,9,10
 277.970703125 485 277.970703125 485 208.7734375 430 c 128,-1,11
 139.575195312 375 139.575195312 375 120.875 294 c 2,12,-1
 53 0 l 1,13,-1
 23 0 l 1,14,-1
 191.534179688 730 l 1,15,-1
 221.534179688 730 l 1,16,-1
 141.422851562 383 l 1,17,18
 176.043945312 442 176.043945312 442 237.008789062 476.5 c 128,-1,19
 297.973632812 511 297.973632812 511 368.973632812 511 c 0,0,1
EndSplineSet
Substitution2: "'smcp' Lowercase to Small Capitals lookup 12 subtable" h.sc
Substitution2: "'aalt' Access All Alternates lookup 0 subtable" h.sc
EndChar

StartChar: i
Encoding: 105 105 76
Width: 204
GlyphClass: 2
Flags: W
LayerCount: 2
Fore
SplineSet
176.059570312 598 m 128,-1,1
 162.059570312 598 162.059570312 598 155.521484375 606.5 c 128,-1,2
 148.984375 615 148.984375 615 151.985351562 628 c 128,-1,3
 154.986328125 641 154.986328125 641 165.44921875 649.5 c 128,-1,4
 175.911132812 658 175.911132812 658 189.911132812 658 c 128,-1,5
 203.911132812 658 203.911132812 658 210.064453125 650 c 128,-1,6
 216.217773438 642 216.217773438 642 212.985351562 628 c 128,-1,7
 209.752929688 614 209.752929688 614 199.90625 606 c 128,-1,0
 190.059570312 598 190.059570312 598 176.059570312 598 c 128,-1,1
168.434570312 500 m 1,8,-1
 53 0 l 1,9,-1
 23 0 l 1,10,-1
 138.434570312 500 l 1,11,-1
 168.434570312 500 l 1,8,-1
EndSplineSet
Substitution2: "'smcp' Lowercase to Small Capitals lookup 12 subtable" i.sc
Substitution2: "'locl' Localized Forms in Latin lookup 6 subtable" i.loclTRK
Substitution2: "'locl' Localized Forms in Latin lookup 5 subtable" i.loclTRK
Substitution2: "'locl' Localized Forms in Latin lookup 4 subtable" i.loclTRK
Substitution2: "'locl' Localized Forms in Latin lookup 3 subtable" i.loclTRK
Substitution2: "'locl' Localized Forms in Latin lookup 2 subtable" i.loclTRK
Substitution2: "'aalt' Access All Alternates lookup 0 subtable" i.sc
EndChar

StartChar: j
Encoding: 106 106 77
Width: 204
GlyphClass: 2
Flags: W
LayerCount: 2
Fore
SplineSet
189.911132812 658 m 128,-1,1
 202.911132812 658 202.911132812 658 209.44921875 649.5 c 128,-1,2
 215.986328125 641 215.986328125 641 212.985351562 628 c 128,-1,3
 209.984375 615 209.984375 615 199.521484375 606.5 c 128,-1,4
 189.059570312 598 189.059570312 598 176.059570312 598 c 128,-1,5
 163.059570312 598 163.059570312 598 156.021484375 606.5 c 128,-1,6
 148.984375 615 148.984375 615 151.985351562 628 c 128,-1,7
 154.986328125 641 154.986328125 641 165.94921875 649.5 c 128,-1,0
 176.911132812 658 176.911132812 658 189.911132812 658 c 128,-1,1
168.434570312 500 m 1,8,-1
 38.9169921875 -61 l 2,9,10
 22.294921875 -133 22.294921875 -133 -25.6708984375 -174 c 128,-1,11
 -73.63671875 -215 -73.63671875 -215 -133.63671875 -215 c 0,12,13
 -181.63671875 -215 -181.63671875 -215 -205.095703125 -191 c 1,14,-1
 -190.631835938 -163 l 1,15,16
 -170.171875 -187 -170.171875 -187 -127.171875 -187 c 0,17,18
 -78.171875 -187 -78.171875 -187 -41.3232421875 -153 c 128,-1,19
 -4.4736328125 -119 -4.4736328125 -119 9.37890625 -59 c 2,20,-1
 138.434570312 500 l 1,21,-1
 168.434570312 500 l 1,8,-1
EndSplineSet
Substitution2: "'smcp' Lowercase to Small Capitals lookup 12 subtable" j.sc
Substitution2: "'aalt' Access All Alternates lookup 0 subtable" j.sc
EndChar

StartChar: k
Encoding: 107 107 78
Width: 501
GlyphClass: 2
Flags: W
AnchorPoint: "Anchor-0" 247 0 basechar 0
LayerCount: 2
Fore
SplineSet
385 0 m 1,0,-1
 242.950195312 277 l 1,1,-1
 89.24609375 157 l 1,2,-1
 53 0 l 1,3,-1
 23 0 l 1,4,-1
 191.534179688 730 l 1,5,-1
 221.534179688 730 l 1,6,-1
 98.25 196 l 1,7,-1
 490.434570312 500 l 1,8,-1
 531.434570312 500 l 1,9,-1
 269.798828125 298 l 1,10,-1
 422 0 l 1,11,-1
 385 0 l 1,0,-1
EndSplineSet
Substitution2: "'smcp' Lowercase to Small Capitals lookup 12 subtable" k.sc
Substitution2: "'aalt' Access All Alternates lookup 0 subtable" k.sc
EndChar

StartChar: l
Encoding: 108 108 79
Width: 252
GlyphClass: 2
Flags: W
AnchorPoint: "Anchor-0" 123 0 basechar 0
LayerCount: 2
Fore
SplineSet
217.534179688 730 m 1,0,-1
 75.087890625 113 l 2,1,2
 63.3134765625 62 63.3134765625 62 74.734375 40 c 128,-1,3
 86.1552734375 18 86.1552734375 18 122.155273438 18 c 0,4,5
 154.155273438 18 154.155273438 18 185.92578125 30 c 1,6,-1
 176.461914062 2 l 1,7,8
 147.69140625 -10 147.69140625 -10 112.69140625 -10 c 0,9,10
 16.69140625 -10 16.69140625 -10 44.6259765625 111 c 2,11,-1
 187.534179688 730 l 1,12,-1
 217.534179688 730 l 1,0,-1
EndSplineSet
Substitution2: "'ss02' Style Set 2 lookup 48 subtable" l.ss02
Substitution2: "'salt' Stylistic Alternatives lookup 42 subtable" l.ss02
Substitution2: "'smcp' Lowercase to Small Capitals lookup 12 subtable" l.sc
AlternateSubs2: "'aalt' Access All Alternates lookup 1 subtable" l.sc l.ss02
Position2: "Single Positioning lookup 6 subtable" dx=0 dy=0 dh=-40 dv=0
EndChar

StartChar: m
Encoding: 109 109 80
Width: 965
GlyphClass: 2
Flags: W
LayerCount: 2
Fore
SplineSet
751.204101562 512 m 0,0,1
 836.204101562 512 836.204101562 512 876.123046875 464 c 128,-1,2
 916.041015625 416 916.041015625 416 895.956054688 329 c 2,3,-1
 820.461914062 2 l 1,4,-1
 790.461914062 2 l 1,5,-1
 865.032226562 325 l 2,6,7
 882.80859375 402 882.80859375 402 848.889648438 443.5 c 128,-1,8
 814.970703125 485 814.970703125 485 740.970703125 485 c 0,9,10
 659.970703125 485 659.970703125 485 591.2734375 430 c 128,-1,11
 522.575195312 375 522.575195312 375 504.567382812 297 c 2,12,-1
 436 0 l 1,13,-1
 406 0 l 1,14,-1
 480.801757812 324 l 2,15,16
 498.34765625 400 498.34765625 400 465.043945312 442 c 128,-1,17
 431.740234375 484 431.740234375 484 356.740234375 484 c 0,18,19
 276.740234375 484 276.740234375 484 208.041992188 429 c 128,-1,20
 139.344726562 374 139.344726562 374 120.875 294 c 2,21,-1
 53 0 l 1,22,-1
 23 0 l 1,23,-1
 138.434570312 500 l 1,24,-1
 166.434570312 500 l 1,25,-1
 140.422851562 383 l 1,26,27
 175.8125 441 175.8125 441 236.77734375 475.5 c 128,-1,28
 297.743164062 510 297.743164062 510 366.743164062 510 c 0,29,30
 438.743164062 510 438.743164062 510 479.27734375 475.5 c 128,-1,31
 519.8125 441 519.8125 441 518.037109375 377 c 1,32,33
 550.889648438 437 550.889648438 437 615.046875 474.5 c 128,-1,34
 679.204101562 512 679.204101562 512 751.204101562 512 c 0,0,1
EndSplineSet
Substitution2: "'smcp' Lowercase to Small Capitals lookup 12 subtable" m.sc
Substitution2: "'aalt' Access All Alternates lookup 0 subtable" m.sc
EndChar

StartChar: n
Encoding: 110 110 81
Width: 584
GlyphClass: 2
Flags: W
AnchorPoint: "Anchor-0" 263 0 basechar 0
LayerCount: 2
Fore
SplineSet
368.743164062 510 m 0,0,1
 454.743164062 510 454.743164062 510 494.661132812 462 c 128,-1,2
 534.579101562 414 534.579101562 414 514.494140625 327 c 2,3,-1
 439 0 l 1,4,-1
 409 0 l 1,5,-1
 482.646484375 319 l 2,6,7
 501.116210938 399 501.116210938 399 467.428710938 441.5 c 128,-1,8
 433.740234375 484 433.740234375 484 358.740234375 484 c 0,9,10
 276.740234375 484 276.740234375 484 208.158203125 429.5 c 128,-1,11
 139.575195312 375 139.575195312 375 120.64453125 293 c 2,12,-1
 53 0 l 1,13,-1
 23 0 l 1,14,-1
 138.434570312 500 l 1,15,-1
 166.434570312 500 l 1,16,-1
 140.19140625 382 l 1,17,18
 174.8125 441 174.8125 441 236.27734375 475.5 c 128,-1,19
 297.743164062 510 297.743164062 510 368.743164062 510 c 0,0,1
EndSplineSet
Substitution2: "Single Substitution lookup 57 subtable" n.swsh
Substitution2: "'swsh' Swash lookup 38 subtable" n.swsh
Substitution2: "'smcp' Lowercase to Small Capitals lookup 12 subtable" n.sc
AlternateSubs2: "'aalt' Access All Alternates lookup 1 subtable" n.sc n.swsh
EndChar

StartChar: o
Encoding: 111 111 82
Width: 578
GlyphClass: 2
Flags: W
LayerCount: 2
Fore
SplineSet
342.743164062 510 m 128,-1,1
 452.743164062 510 452.743164062 510 499.197265625 440.5 c 128,-1,2
 545.65234375 371 545.65234375 371 517.716796875 250 c 128,-1,3
 489.782226562 129 489.782226562 129 411.236328125 59.5 c 128,-1,4
 332.69140625 -10 332.69140625 -10 222.69140625 -10 c 128,-1,5
 112.69140625 -10 112.69140625 -10 65.736328125 59.5 c 128,-1,6
 18.7822265625 129 18.7822265625 129 46.716796875 250 c 128,-1,7
 74.65234375 371 74.65234375 371 153.697265625 440.5 c 128,-1,0
 232.743164062 510 232.743164062 510 342.743164062 510 c 128,-1,1
336.740234375 484 m 128,-1,9
 240.740234375 484 240.740234375 484 171.310546875 421.5 c 128,-1,10
 101.881835938 359 101.881835938 359 76.716796875 250 c 128,-1,11
 51.552734375 141 51.552734375 141 92.123046875 78.5 c 128,-1,12
 132.694335938 16 132.694335938 16 228.694335938 16 c 128,-1,13
 324.694335938 16 324.694335938 16 393.5078125 78 c 128,-1,14
 462.321289062 140 462.321289062 140 487.716796875 250 c 128,-1,15
 513.112304688 360 513.112304688 360 472.926757812 422 c 128,-1,8
 432.740234375 484 432.740234375 484 336.740234375 484 c 128,-1,9
EndSplineSet
Substitution2: "Single Substitution lookup 55 subtable" ordmasculine
Substitution2: "'smcp' Lowercase to Small Capitals lookup 12 subtable" o.sc
AlternateSubs2: "'aalt' Access All Alternates lookup 1 subtable" o.sc ordmasculine
EndChar

StartChar: p
Encoding: 112 112 83
Width: 595
GlyphClass: 2
Flags: W
LayerCount: 2
Fore
SplineSet
365.743164062 510 m 0,0,1
 472.743164062 510 472.743164062 510 517.8125 441 c 128,-1,2
 562.8828125 372 562.8828125 372 534.716796875 250 c 128,-1,3
 506.55078125 128 506.55078125 128 429.62109375 59 c 128,-1,4
 352.69140625 -10 352.69140625 -10 245.69140625 -10 c 0,5,6
 173.69140625 -10 173.69140625 -10 131.118164062 26.5 c 128,-1,7
 88.544921875 63 88.544921875 63 82.7822265625 129 c 1,8,-1
 4.517578125 -210 l 1,9,-1
 -25.482421875 -210 l 1,10,-1
 138.434570312 500 l 1,11,-1
 166.434570312 500 l 1,12,-1
 136.498046875 366 l 1,13,14
 172.197265625 434 172.197265625 434 232.469726562 472 c 128,-1,15
 292.743164062 510 292.743164062 510 365.743164062 510 c 0,0,1
247.694335938 16 m 0,16,17
 343.694335938 16 343.694335938 16 411.5078125 78 c 128,-1,18
 479.321289062 140 479.321289062 140 504.716796875 250 c 128,-1,19
 530.112304688 360 530.112304688 360 490.926757812 422 c 128,-1,20
 451.740234375 484 451.740234375 484 355.740234375 484 c 0,21,22
 268.740234375 484 268.740234375 484 202.426757812 422 c 128,-1,23
 136.112304688 360 136.112304688 360 111.640625 254 c 2,24,-1
 109.793945312 246 l 2,25,26
 85.3212890625 140 85.3212890625 140 123.0078125 78 c 128,-1,27
 160.694335938 16 160.694335938 16 247.694335938 16 c 0,16,17
EndSplineSet
Substitution2: "'smcp' Lowercase to Small Capitals lookup 12 subtable" p.sc
Substitution2: "'aalt' Access All Alternates lookup 0 subtable" p.sc
EndChar

StartChar: q
Encoding: 113 113 84
Width: 596
GlyphClass: 2
Flags: W
LayerCount: 2
Fore
SplineSet
532.434570312 500 m 1,0,-1
 560.434570312 500 l 1,1,-1
 396.517578125 -210 l 1,2,-1
 366.517578125 -210 l 1,3,-1
 444.782226562 129 l 1,4,5
 408.544921875 63 408.544921875 63 348.618164062 26.5 c 128,-1,6
 288.69140625 -10 288.69140625 -10 216.69140625 -10 c 0,7,8
 109.69140625 -10 109.69140625 -10 65.12109375 59 c 128,-1,9
 20.55078125 128 20.55078125 128 48.716796875 250 c 128,-1,10
 76.8828125 372 76.8828125 372 153.3125 441 c 128,-1,11
 229.743164062 510 229.743164062 510 336.743164062 510 c 0,12,13
 410.743164062 510 410.743164062 510 453.469726562 472 c 128,-1,14
 496.197265625 434 496.197265625 434 500.498046875 366 c 1,15,-1
 532.434570312 500 l 1,0,-1
471.793945312 246 m 2,16,-1
 473.640625 254 l 2,17,18
 498.112304688 360 498.112304688 360 460.426757812 422 c 128,-1,19
 422.740234375 484 422.740234375 484 335.740234375 484 c 0,20,21
 239.740234375 484 239.740234375 484 171.926757812 422 c 128,-1,22
 104.112304688 360 104.112304688 360 78.716796875 250 c 128,-1,23
 53.3212890625 140 53.3212890625 140 92.5078125 78 c 128,-1,24
 131.694335938 16 131.694335938 16 227.694335938 16 c 0,25,26
 314.694335938 16 314.694335938 16 381.0078125 78 c 128,-1,27
 447.321289062 140 447.321289062 140 471.793945312 246 c 2,16,-1
EndSplineSet
Substitution2: "'smcp' Lowercase to Small Capitals lookup 12 subtable" q.sc
Substitution2: "'aalt' Access All Alternates lookup 0 subtable" q.sc
EndChar

StartChar: r
Encoding: 114 114 85
Width: 357
GlyphClass: 2
Flags: W
AnchorPoint: "Anchor-0" 44 0 basechar 0
LayerCount: 2
Fore
SplineSet
332.743164062 510 m 0,0,1
 376.743164062 510 376.743164062 510 395.89453125 489 c 1,2,-1
 378.891601562 463 l 1,3,4
 361.509765625 483 361.509765625 483 319.509765625 483 c 0,5,6
 255.509765625 483 255.509765625 483 196.50390625 424.5 c 128,-1,7
 137.498046875 366 137.498046875 366 119.028320312 286 c 2,8,-1
 53 0 l 1,9,-1
 23 0 l 1,10,-1
 138.434570312 500 l 1,11,-1
 164.434570312 500 l 1,12,-1
 140.422851562 383 l 1,13,14
 172.58203125 440 172.58203125 440 223.662109375 475 c 128,-1,15
 274.743164062 510 274.743164062 510 332.743164062 510 c 0,0,1
EndSplineSet
Substitution2: "Single Substitution lookup 57 subtable" r.swsh
Substitution2: "'swsh' Swash lookup 38 subtable" r.swsh
Substitution2: "'smcp' Lowercase to Small Capitals lookup 12 subtable" r.sc
AlternateSubs2: "'aalt' Access All Alternates lookup 1 subtable" r.sc r.swsh
EndChar

StartChar: s
Encoding: 115 115 86
Width: 490
GlyphClass: 2
Flags: W
AnchorPoint: "Anchor-0" 194 0 basechar 0
LayerCount: 2
Fore
SplineSet
178.69140625 -10 m 0,0,1
 100.69140625 -10 100.69140625 -10 52.732421875 20.5 c 128,-1,2
 4.7744140625 51 4.7744140625 51 0.1650390625 109 c 1,3,-1
 29.8583984375 125 l 1,4,5
 31.6220703125 72 31.6220703125 72 73.658203125 44 c 128,-1,6
 115.694335938 16 115.694335938 16 188.694335938 16 c 0,7,8
 263.694335938 16 263.694335938 16 314.120117188 46 c 128,-1,9
 364.545898438 76 364.545898438 76 376.08984375 126 c 0,10,11
 385.786132812 168 385.786132812 168 355.672851562 193.5 c 128,-1,12
 325.560546875 219 325.560546875 219 239.0234375 234 c 0,13,14
 139.178710938 252 139.178710938 252 104.3359375 283 c 128,-1,15
 69.4921875 314 69.4921875 314 82.65234375 371 c 0,16,17
 96.2734375 430 96.2734375 430 158.0078125 470 c 128,-1,18
 219.743164062 510 219.743164062 510 301.743164062 510 c 0,19,20
 459.743164062 510 459.743164062 510 461.115234375 386 c 1,21,-1
 431.65234375 371 l 1,22,23
 431.740234375 484 431.740234375 484 295.740234375 484 c 0,24,25
 227.740234375 484 227.740234375 484 175.967773438 452.5 c 128,-1,26
 124.1953125 421 124.1953125 421 113.806640625 376 c 0,27,28
 102.956054688 329 102.956054688 329 133.837890625 302.5 c 128,-1,29
 164.719726562 276 164.719726562 276 254.256835938 261 c 0,30,31
 351.33203125 244 351.33203125 244 385.174804688 213 c 128,-1,32
 419.017578125 182 419.017578125 182 406.3203125 127 c 0,33,34
 391.775390625 64 391.775390625 64 330.233398438 27 c 128,-1,35
 268.69140625 -10 268.69140625 -10 178.69140625 -10 c 0,0,1
EndSplineSet
Substitution2: "'hist' Historical Forms lookup 44 subtable" longs
Substitution2: "'smcp' Lowercase to Small Capitals lookup 12 subtable" s.sc
AlternateSubs2: "'aalt' Access All Alternates lookup 1 subtable" s.sc longs
EndChar

StartChar: t
Encoding: 116 116 87
Width: 349
GlyphClass: 2
Flags: W
AnchorPoint: "Anchor-0" 164 0 basechar 0
LayerCount: 2
Fore
SplineSet
278.466796875 54 m 1,0,-1
 285.92578125 30 l 1,1,2
 236.69140625 -10 236.69140625 -10 173.69140625 -10 c 0,3,4
 49.69140625 -10 49.69140625 -10 80.08984375 126 c 2,5,-1
 160.431640625 474 l 1,6,-1
 60.431640625 474 l 1,7,-1
 66.4345703125 500 l 1,8,-1
 166.434570312 500 l 1,9,-1
 195.985351562 628 l 1,10,-1
 228.063476562 637 l 1,11,-1
 196.434570312 500 l 1,12,-1
 388.434570312 500 l 1,13,-1
 382.431640625 474 l 1,14,-1
 190.431640625 474 l 1,15,-1
 110.782226562 129 l 2,16,17
 84.9248046875 17 84.9248046875 17 182.924804688 17 c 0,18,19
 235.924804688 17 235.924804688 17 278.466796875 54 c 1,0,-1
EndSplineSet
Substitution2: "Single Substitution lookup 57 subtable" t.swsh
Substitution2: "'swsh' Swash lookup 38 subtable" t.swsh
Substitution2: "'smcp' Lowercase to Small Capitals lookup 12 subtable" t.sc
AlternateSubs2: "'aalt' Access All Alternates lookup 1 subtable" t.sc t.swsh
EndChar

StartChar: u
Encoding: 117 117 88
Width: 576
GlyphClass: 2
Flags: W
LayerCount: 2
Fore
SplineSet
510.434570312 500 m 1,0,-1
 540.434570312 500 l 1,1,-1
 425 0 l 1,2,-1
 397 0 l 1,3,-1
 423.01171875 117 l 1,4,5
 388.62109375 59 388.62109375 59 326.65625 24.5 c 128,-1,6
 264.69140625 -10 264.69140625 -10 191.69140625 -10 c 0,7,8
 108.69140625 -10 108.69140625 -10 72.3115234375 36 c 128,-1,9
 35.931640625 82 35.931640625 82 55.7861328125 168 c 2,10,-1
 132.434570312 500 l 1,11,-1
 162.434570312 500 l 1,12,-1
 87.1708984375 174 l 2,13,14
 69.39453125 97 69.39453125 97 99.5439453125 56.5 c 128,-1,15
 129.694335938 16 129.694335938 16 202.694335938 16 c 0,16,17
 293.694335938 16 293.694335938 16 359.583984375 74 c 128,-1,18
 425.474609375 132 425.474609375 132 441.866210938 203 c 2,19,-1
 510.434570312 500 l 1,0,-1
EndSplineSet
Substitution2: "'smcp' Lowercase to Small Capitals lookup 12 subtable" u.sc
Substitution2: "'aalt' Access All Alternates lookup 0 subtable" u.sc
EndChar

StartChar: v
Encoding: 118 118 89
Width: 490
GlyphClass: 2
Flags: W
LayerCount: 2
Fore
SplineSet
488.434570312 500 m 1,0,-1
 521.434570312 500 l 1,1,-1
 196 0 l 1,2,-1
 165 0 l 1,3,-1
 71.4345703125 500 l 1,4,-1
 105.434570312 500 l 1,5,-1
 188.618164062 33 l 1,6,-1
 488.434570312 500 l 1,0,-1
EndSplineSet
Substitution2: "'smcp' Lowercase to Small Capitals lookup 12 subtable" v.sc
Substitution2: "'aalt' Access All Alternates lookup 0 subtable" v.sc
EndChar

StartChar: w
Encoding: 119 119 90
Width: 796
GlyphClass: 2
Flags: W
LayerCount: 2
Fore
SplineSet
783.434570312 500 m 1,0,-1
 816.434570312 500 l 1,1,-1
 533 0 l 1,2,-1
 503 0 l 1,3,-1
 439.430664062 461 l 1,4,-1
 165 0 l 1,5,-1
 135 0 l 1,6,-1
 82.4345703125 500 l 1,7,-1
 115.434570312 500 l 1,8,-1
 158.541992188 37 l 1,9,-1
 434.434570312 500 l 1,10,-1
 464.434570312 500 l 1,11,-1
 526.541992188 37 l 1,12,-1
 783.434570312 500 l 1,0,-1
EndSplineSet
Substitution2: "'smcp' Lowercase to Small Capitals lookup 12 subtable" w.sc
Substitution2: "'aalt' Access All Alternates lookup 0 subtable" w.sc
EndChar

StartChar: x
Encoding: 120 120 91
Width: 485
GlyphClass: 2
Flags: W
LayerCount: 2
Fore
SplineSet
406 0 m 1,0,-1
 366 0 l 1,1,-1
 231.25390625 235 l 1,2,-1
 -5 0 l 1,3,-1
 -43 0 l 1,4,-1
 218.564453125 258 l 1,5,-1
 80.4345703125 500 l 1,6,-1
 121.434570312 500 l 1,7,-1
 244.56640625 284 l 1,8,-1
 460.434570312 500 l 1,9,-1
 498.434570312 500 l 1,10,-1
 258.256835938 261 l 1,11,-1
 406 0 l 1,0,-1
EndSplineSet
Substitution2: "'smcp' Lowercase to Small Capitals lookup 12 subtable" x.sc
Substitution2: "'aalt' Access All Alternates lookup 0 subtable" x.sc
EndChar

StartChar: y
Encoding: 121 121 92
Width: 493
GlyphClass: 2
Flags: W
LayerCount: 2
Fore
SplineSet
523.434570312 500 m 1,0,-1
 139.60546875 -97 l 2,1,2
 97.3681640625 -163 97.3681640625 -163 59.3662109375 -189 c 128,-1,3
 21.36328125 -215 21.36328125 -215 -28.63671875 -215 c 0,4,5
 -88.63671875 -215 -88.63671875 -215 -105.787109375 -181 c 1,6,-1
 -87.015625 -156 l 1,7,8
 -72.6337890625 -189 -72.6337890625 -189 -21.6337890625 -189 c 0,9,10
 16.3662109375 -189 16.3662109375 -189 47.8291015625 -167.5 c 128,-1,11
 79.29296875 -146 79.29296875 -146 113.991210938 -91 c 2,12,-1
 171.76953125 -1 l 1,13,-1
 147.08984375 126 l 1,14,-1
 75.4345703125 500 l 1,15,-1
 109.434570312 500 l 1,16,-1
 185.624023438 85 l 1,17,-1
 194.618164062 33 l 1,18,-1
 228.31640625 88 l 1,19,-1
 490.434570312 500 l 1,20,-1
 523.434570312 500 l 1,0,-1
EndSplineSet
Substitution2: "Single Substitution lookup 57 subtable" y.swsh
Substitution2: "'swsh' Swash lookup 38 subtable" y.swsh
Substitution2: "'smcp' Lowercase to Small Capitals lookup 12 subtable" y.sc
AlternateSubs2: "'aalt' Access All Alternates lookup 1 subtable" y.sc y.swsh
EndChar

StartChar: z
Encoding: 122 122 93
Width: 486
GlyphClass: 2
Flags: W
LayerCount: 2
Fore
SplineSet
-21 0 m 1,0,-1
 -15.458984375 24 l 1,1,-1
 392.426757812 422 l 1,2,-1
 449.431640625 474 l 1,3,-1
 82.431640625 474 l 1,4,-1
 88.4345703125 500 l 1,5,-1
 489.434570312 500 l 1,6,-1
 483.893554688 476 l 1,7,-1
 94.701171875 94 l 1,8,-1
 21.0029296875 26 l 1,9,-1
 394.002929688 26 l 1,10,-1
 388 0 l 1,11,-1
 -21 0 l 1,0,-1
EndSplineSet
Substitution2: "'smcp' Lowercase to Small Capitals lookup 12 subtable" z.sc
Substitution2: "'aalt' Access All Alternates lookup 0 subtable" z.sc
EndChar

StartChar: braceleft
Encoding: 123 123 94
Width: 279
GlyphClass: 2
Flags: W
LayerCount: 2
Fore
SplineSet
76.9169921875 -61 m 2,0,1
 67.220703125 -103 67.220703125 -103 87.91015625 -126 c 128,-1,2
 108.600585938 -149 108.600585938 -149 156.600585938 -149 c 1,3,-1
 147.829101562 -174 l 1,4,5
 86.8291015625 -174 86.8291015625 -174 61.2548828125 -144 c 128,-1,6
 35.6806640625 -114 35.6806640625 -114 48.1474609375 -60 c 2,7,-1
 102.6328125 176 l 2,8,9
 113.483398438 223 113.483398438 223 89.6396484375 247.5 c 128,-1,10
 65.7958984375 272 65.7958984375 272 10.7958984375 272 c 1,11,-1
 16.5673828125 297 l 1,12,13
 71.5673828125 297 71.5673828125 297 106.724609375 321.5 c 128,-1,14
 141.880859375 346 141.880859375 346 152.731445312 393 c 2,15,-1
 206.985351562 628 l 2,16,17
 219.452148438 682 219.452148438 682 258.877929688 712 c 128,-1,18
 298.303710938 742 298.303710938 742 359.303710938 742 c 1,19,-1
 356.532226562 717 l 1,20,21
 307.532226562 717 307.532226562 717 276.72265625 694 c 128,-1,22
 245.912109375 671 245.912109375 671 236.215820312 629 c 2,23,-1
 181.5 392 l 2,24,25
 161.876953125 307 161.876953125 307 70.7978515625 285 c 1,26,27
 151.487304688 262 151.487304688 262 131.86328125 177 c 2,28,-1
 76.9169921875 -61 l 2,0,1
EndSplineSet
Substitution2: "'case' Case-Sensitive Forms lookup 29 subtable" braceleft.case
Substitution2: "'aalt' Access All Alternates lookup 0 subtable" braceleft.case
EndChar

StartChar: bar
Encoding: 124 124 95
Width: 184
GlyphClass: 2
Flags: W
LayerCount: 2
Fore
SplineSet
209.534179688 730 m 1,0,-1
 2.2138671875 -168 l 1,1,-1
 -24.7861328125 -168 l 1,2,-1
 182.534179688 730 l 1,3,-1
 209.534179688 730 l 1,0,-1
EndSplineSet
Substitution2: "'case' Case-Sensitive Forms lookup 29 subtable" bar.case
Substitution2: "'aalt' Access All Alternates lookup 0 subtable" bar.case
EndChar

StartChar: braceright
Encoding: 125 125 96
Width: 279
GlyphClass: 2
Flags: W
LayerCount: 2
Fore
SplineSet
179.731445312 393 m 2,0,1
 169.111328125 347 169.111328125 347 192.83984375 322 c 128,-1,2
 216.567382812 297 216.567382812 297 271.567382812 297 c 1,3,-1
 265.795898438 272 l 1,4,5
 210.795898438 272 210.795898438 272 175.524414062 247 c 128,-1,6
 140.252929688 222 140.252929688 222 129.6328125 176 c 2,7,-1
 75.1474609375 -60 l 2,8,9
 62.4501953125 -115 62.4501953125 -115 23.6396484375 -144.5 c 128,-1,10
 -15.1708984375 -174 -15.1708984375 -174 -77.1708984375 -174 c 1,11,-1
 -73.3994140625 -149 l 1,12,13
 -25.3994140625 -149 -25.3994140625 -149 5.41015625 -126 c 128,-1,14
 36.220703125 -103 36.220703125 -103 45.9169921875 -61 c 2,15,-1
 100.86328125 177 l 2,16,17
 120.487304688 262 120.487304688 262 212.797851562 285 c 1,18,19
 130.876953125 307 130.876953125 307 150.5 392 c 2,20,-1
 205.215820312 629 l 2,21,22
 214.912109375 671 214.912109375 671 194.72265625 694 c 128,-1,23
 174.532226562 717 174.532226562 717 126.532226562 717 c 1,24,-1
 134.303710938 742 l 1,25,26
 196.303710938 742 196.303710938 742 221.493164062 712.5 c 128,-1,27
 246.682617188 683 246.682617188 683 233.985351562 628 c 2,28,-1
 179.731445312 393 l 2,0,1
EndSplineSet
Substitution2: "'case' Case-Sensitive Forms lookup 29 subtable" braceright.case
Substitution2: "'aalt' Access All Alternates lookup 0 subtable" braceright.case
EndChar

StartChar: asciitilde
Encoding: 126 126 97
Width: 492
GlyphClass: 2
Flags: W
LayerCount: 2
Fore
SplineSet
475.731445312 393 m 1,0,1
 439.258789062 287 439.258789062 287 349.258789062 287 c 0,2,3
 302.258789062 287 302.258789062 287 252.801757812 324 c 128,-1,4
 203.34375 361 203.34375 361 166.34375 361 c 0,5,6
 105.34375 361 105.34375 361 73.1044921875 282 c 1,7,-1
 44.1044921875 282 l 1,8,9
 81.5771484375 388 81.5771484375 388 171.577148438 388 c 0,10,11
 217.577148438 388 217.577148438 388 267.53515625 351 c 128,-1,12
 317.4921875 314 317.4921875 314 353.4921875 314 c 0,13,14
 414.4921875 314 414.4921875 314 446.731445312 393 c 1,15,-1
 475.731445312 393 l 1,0,1
EndSplineSet
EndChar

StartChar: exclamdown
Encoding: 161 161 99
Width: 194
GlyphClass: 2
Flags: W
LayerCount: 2
Fore
SplineSet
135.274414062 443 m 128,-1,1
 121.274414062 443 121.274414062 443 114.352539062 452 c 128,-1,2
 107.430664062 461 107.430664062 461 110.662109375 475 c 128,-1,3
 113.89453125 489 113.89453125 489 124.856445312 497.5 c 128,-1,4
 135.819335938 506 135.819335938 506 149.819335938 506 c 128,-1,5
 163.819335938 506 163.819335938 506 170.356445312 497.5 c 128,-1,6
 176.89453125 489 176.89453125 489 173.662109375 475 c 128,-1,7
 170.430664062 461 170.430664062 461 159.852539062 452 c 128,-1,0
 149.274414062 443 149.274414062 443 135.274414062 443 c 128,-1,1
-19.9384765625 -160 m 1,8,-1
 59.017578125 182 l 1,9,-1
 94.33984375 322 l 1,10,-1
 120.33984375 322 l 1,11,-1
 90.017578125 182 l 1,12,-1
 11.0615234375 -160 l 1,13,-1
 -19.9384765625 -160 l 1,8,-1
EndSplineSet
Substitution2: "'case' Case-Sensitive Forms lookup 29 subtable" exclamdown.case
Substitution2: "'smcp' Lowercase to Small Capitals lookup 12 subtable" exclamdown.sc
Substitution2: "'c2sc' Capitals to Small Capitals lookup 11 subtable" exclamdown.sc
AlternateSubs2: "'aalt' Access All Alternates lookup 1 subtable" exclamdown.sc exclamdown.case
EndChar

StartChar: cent
Encoding: 162 162 100
Width: 604
GlyphClass: 2
Flags: W
LayerCount: 2
Fore
SplineSet
491.62890625 137 m 1,0,1
 460.622070312 72 460.622070312 72 397.387695312 32 c 128,-1,2
 334.153320312 -8 334.153320312 -8 258.69140625 -10 c 1,3,-1
 237.913085938 -100 l 1,4,-1
 211.913085938 -100 l 1,5,-1
 232.921875 -9 l 1,6,7
 134.307617188 -3 134.307617188 -3 94.5068359375 65 c 128,-1,8
 54.705078125 133 54.705078125 133 81.716796875 250 c 0,9,10
 108.498046875 366 108.498046875 366 179.697265625 434 c 128,-1,11
 250.895507812 502 250.895507812 502 352.51171875 509 c 1,12,-1
 373.520507812 600 l 1,13,-1
 399.520507812 600 l 1,14,-1
 378.743164062 510 l 1,15,16
 451.51171875 509 451.51171875 509 494.31640625 473.5 c 128,-1,17
 537.120117188 438 537.120117188 438 541.344726562 374 c 1,18,-1
 511.34375 361 l 1,19,20
 507.733398438 419 507.733398438 419 472.237304688 451.5 c 128,-1,21
 436.740234375 484 436.740234375 484 372.970703125 485 c 1,22,-1
 264.462890625 15 l 1,23,24
 329.924804688 17 329.924804688 17 386.120117188 52.5 c 128,-1,25
 442.31640625 88 442.31640625 88 466.9375 147 c 1,26,-1
 491.62890625 137 l 1,0,1
110.716796875 250 m 0,27,28
 86.4755859375 145 86.4755859375 145 119.77734375 83.5 c 128,-1,29
 153.079101562 22 153.079101562 22 238.694335938 16 c 1,30,-1
 346.740234375 484 l 1,31,32
 259.124023438 477 259.124023438 477 196.92578125 415.5 c 128,-1,33
 134.727539062 354 134.727539062 354 110.716796875 250 c 0,27,28
EndSplineSet
Substitution2: "'tnum' Tabular Numbers lookup 26 subtable" cent.tf
Substitution2: "'aalt' Access All Alternates lookup 0 subtable" cent.tf
EndChar

StartChar: sterling
Encoding: 163 163 101
Width: 604
GlyphClass: 2
Flags: W
LayerCount: 2
Fore
SplineSet
491.396484375 123 m 1,0,-1
 517.396484375 123 l 1,1,2
 501.928710938 56 501.928710938 56 461.309570312 23 c 128,-1,3
 420.69140625 -10 420.69140625 -10 362.69140625 -10 c 0,4,5
 331.69140625 -10 331.69140625 -10 305.461914062 2 c 128,-1,6
 279.232421875 14 279.232421875 14 268.041015625 24 c 128,-1,7
 256.849609375 34 256.849609375 34 235.159179688 57 c 1,8,9
 175.69140625 -10 175.69140625 -10 98.69140625 -10 c 0,10,11
 56.69140625 -10 56.69140625 -10 37.078125 9 c 128,-1,12
 17.4638671875 28 17.4638671875 28 24.8525390625 60 c 0,13,14
 32.470703125 93 32.470703125 93 62.703125 113.5 c 128,-1,15
 92.9365234375 134 92.9365234375 134 138.936523438 134 c 0,16,17
 194.936523438 134 194.936523438 134 236.701171875 94 c 1,18,19
 255.166015625 122 255.166015625 122 263.477539062 158 c 0,20,21
 278.71484375 224 278.71484375 224 248.798828125 298 c 1,22,-1
 118.798828125 298 l 1,23,-1
 124.5703125 323 l 1,24,-1
 237.5703125 323 l 1,25,26
 199.962890625 407 199.962890625 407 217.509765625 483 c 0,27,28
 236.90234375 567 236.90234375 567 300.291992188 618.5 c 128,-1,29
 363.681640625 670 363.681640625 670 446.681640625 670 c 0,30,31
 516.681640625 670 516.681640625 670 552.177734375 631 c 128,-1,32
 587.673828125 592 587.673828125 592 581.744140625 523 c 1,33,-1
 551.743164062 510 l 1,34,35
 557.826171875 571 557.826171875 571 528.13671875 607 c 128,-1,36
 498.448242188 643 498.448242188 643 439.448242188 643 c 0,37,38
 367.448242188 643 367.448242188 643 315.020507812 600 c 128,-1,39
 262.59375 557 262.59375 557 246.202148438 486 c 0,40,41
 237.198242188 447 237.198242188 447 241.963867188 413.5 c 128,-1,42
 246.729492188 380 246.729492188 380 267.724609375 328 c 0,43,44
 268.801757812 324 268.801757812 324 269.5703125 323 c 2,45,-1
 482.5703125 323 l 1,46,-1
 476.798828125 298 l 1,47,-1
 279.798828125 298 l 1,48,49
 304.71484375 224 304.71484375 224 288.708007812 159 c 0,50,51
 278.319335938 114 278.319335938 114 252.0078125 78 c 1,52,53
 271.928710938 56 271.928710938 56 281.735351562 46.5 c 128,-1,54
 291.541992188 37 291.541992188 37 315.002929688 26 c 128,-1,55
 338.462890625 15 338.462890625 15 365.462890625 15 c 0,56,57
 464.462890625 15 464.462890625 15 491.396484375 123 c 1,0,-1
107.000976562 13 m 0,58,59
 171.000976562 13 171.000976562 13 220.622070312 72 c 1,60,61
 180.395507812 110 180.395507812 110 134.395507812 110 c 0,62,63
 100.395507812 110 100.395507812 110 79.2783203125 96.5 c 128,-1,64
 58.162109375 83 58.162109375 83 52.8525390625 60 c 0,65,66
 47.7734375 38 47.7734375 38 61.88671875 25.5 c 128,-1,67
 76.0009765625 13 76.0009765625 13 107.000976562 13 c 0,58,59
EndSplineSet
Substitution2: "'tnum' Tabular Numbers lookup 26 subtable" sterling.tf
Substitution2: "'aalt' Access All Alternates lookup 0 subtable" sterling.tf
EndChar

StartChar: currency
Encoding: 164 164 102
Width: 604
GlyphClass: 2
Flags: W
LayerCount: 2
Fore
SplineSet
497.6484375 332 m 0,0,1
 479.87109375 255 479.87109375 255 428.55859375 206 c 1,2,-1
 506.241210938 105 l 1,3,-1
 481.854492188 86 l 1,4,-1
 404.7109375 185 l 1,5,6
 345.552734375 141 345.552734375 141 270.552734375 141 c 128,-1,7
 195.552734375 141 195.552734375 141 155.7109375 185 c 1,8,-1
 33.8544921875 86 l 1,9,-1
 18.4716796875 106 l 1,10,-1
 141.55859375 206 l 1,11,12
 113.333007812 257 113.333007812 257 130.6484375 332 c 0,13,14
 147.501953125 405 147.501953125 405 198.044921875 455 c 1,15,-1
 121.669921875 553 l 1,16,-1
 146.518554688 574 l 1,17,-1
 221.893554688 476 l 1,18,19
 282.282226562 521 282.282226562 521 358.282226562 521 c 128,-1,20
 434.282226562 521 434.282226562 521 473.893554688 476 c 1,21,-1
 594.518554688 574 l 1,22,-1
 609.901367188 554 l 1,23,-1
 488.044921875 455 l 1,24,25
 514.732421875 406 514.732421875 406 497.6484375 332 c 0,0,1
276.786132812 168 m 128,-1,27
 346.786132812 168 346.786132812 168 398.559570312 212.5 c 128,-1,28
 450.333007812 257 450.333007812 257 467.6484375 332 c 0,29,30
 484.732421875 406 484.732421875 406 453.390625 450 c 128,-1,31
 422.048828125 494 422.048828125 494 352.048828125 494 c 128,-1,32
 282.048828125 494 282.048828125 494 229.775390625 449.5 c 128,-1,33
 177.501953125 405 177.501953125 405 160.6484375 332 c 0,34,35
 143.333007812 257 143.333007812 257 175.059570312 212.5 c 128,-1,26
 206.786132812 168 206.786132812 168 276.786132812 168 c 128,-1,27
EndSplineSet
Substitution2: "'tnum' Tabular Numbers lookup 26 subtable" currency.tf
Substitution2: "'aalt' Access All Alternates lookup 0 subtable" currency.tf
EndChar

StartChar: yen
Encoding: 165 165 103
Width: 604
GlyphClass: 2
Flags: W
LayerCount: 2
Fore
SplineSet
324.48828125 275 m 1,0,-1
 344.719726562 276 l 1,1,-1
 519.719726562 276 l 1,2,-1
 514.178710938 252 l 1,3,-1
 310.178710938 252 l 1,4,-1
 286.629882812 150 l 1,5,-1
 490.629882812 150 l 1,6,-1
 485.3203125 127 l 1,7,-1
 281.3203125 127 l 1,8,-1
 252 0 l 1,9,-1
 224 0 l 1,10,-1
 253.3203125 127 l 1,11,-1
 50.3203125 127 l 1,12,-1
 55.6298828125 150 l 1,13,-1
 258.629882812 150 l 1,14,-1
 282.178710938 252 l 1,15,-1
 79.1787109375 252 l 1,16,-1
 84.7197265625 276 l 1,17,-1
 259.719726562 276 l 1,18,-1
 278.48828125 275 l 1,19,-1
 142.373046875 660 l 1,20,-1
 177.373046875 660 l 1,21,-1
 290.5703125 323 l 1,22,-1
 302.3359375 283 l 1,23,-1
 304.3359375 283 l 1,24,-1
 334.5703125 323 l 1,25,-1
 603.373046875 660 l 1,26,-1
 638.373046875 660 l 1,27,-1
 324.48828125 275 l 1,0,-1
EndSplineSet
Substitution2: "'tnum' Tabular Numbers lookup 26 subtable" yen.tf
Substitution2: "'aalt' Access All Alternates lookup 0 subtable" yen.tf
EndChar

StartChar: brokenbar
Encoding: 166 166 104
Width: 197
GlyphClass: 2
Flags: W
LayerCount: 2
Fore
SplineSet
216.534179688 730 m 1,0,-1
 132.266601562 365 l 1,1,-1
 105.266601562 365 l 1,2,-1
 189.534179688 730 l 1,3,-1
 216.534179688 730 l 1,0,-1
93.4814453125 197 m 1,4,-1
 9.2138671875 -168 l 1,5,-1
 -17.7861328125 -168 l 1,6,-1
 66.4814453125 197 l 1,7,-1
 93.4814453125 197 l 1,4,-1
EndSplineSet
EndChar

StartChar: section
Encoding: 167 167 105
Width: 550
GlyphClass: 2
Flags: W
LayerCount: 2
Fore
SplineSet
515.641601562 267 m 0,0,1
 505.021484375 221 505.021484375 221 465.018554688 188.5 c 128,-1,2
 425.015625 156 425.015625 156 369.552734375 141 c 1,3,4
 425.471679688 106 425.471679688 106 408.157226562 31 c 0,5,6
 394.3046875 -29 394.3046875 -29 334.955078125 -69.5 c 128,-1,7
 275.604492188 -110 275.604492188 -110 188.604492188 -110 c 0,8,9
 45.6044921875 -110 45.6044921875 -110 25.9208984375 -22 c 1,10,-1
 53.076171875 -4 l 1,11,12
 64.607421875 -84 64.607421875 -84 194.607421875 -84 c 0,13,14
 268.607421875 -84 268.607421875 -84 317.379882812 -52.5 c 128,-1,15
 366.151367188 -21 366.151367188 -21 377.6953125 29 c 0,16,17
 389.931640625 82 389.931640625 82 355.010742188 110.5 c 128,-1,18
 320.090820312 139 320.090820312 139 217.784179688 155 c 0,19,20
 110.478515625 171 110.478515625 171 72.7509765625 202.5 c 128,-1,21
 35.0234375 234 35.0234375 234 48.64453125 293 c 0,22,23
 59.2646484375 339 59.2646484375 339 99.15234375 371 c 128,-1,24
 139.040039062 403 139.040039062 403 194.733398438 419 c 1,25,26
 138.814453125 454 138.814453125 454 156.12890625 529 c 0,27,28
 169.981445312 589 169.981445312 589 229.331054688 629.5 c 128,-1,29
 288.681640625 670 288.681640625 670 376.681640625 670 c 0,30,31
 519.681640625 670 519.681640625 670 538.365234375 582 c 1,32,-1
 512.209960938 564 l 1,33,34
 498.678710938 644 498.678710938 644 370.678710938 644 c 0,35,36
 295.678710938 644 295.678710938 644 246.907226562 612.5 c 128,-1,37
 198.134765625 581 198.134765625 581 186.590820312 531 c 0,38,39
 174.35546875 478 174.35546875 478 209.275390625 449.5 c 128,-1,40
 244.1953125 421 244.1953125 421 346.501953125 405 c 0,41,42
 453.807617188 389 453.807617188 389 491.53515625 357.5 c 128,-1,43
 529.262695312 326 529.262695312 326 515.641601562 267 c 0,0,1
340.015625 156 m 1,44,45
 393.786132812 168 393.786132812 168 434.634765625 195.5 c 128,-1,46
 475.483398438 223 475.483398438 223 485.411132812 266 c 0,47,48
 496.26171875 313 496.26171875 313 463.033203125 338 c 128,-1,49
 429.8046875 363 429.8046875 363 333.268554688 378 c 0,50,51
 267.345703125 387 267.345703125 387 223.270507812 404 c 1,52,53
 169.26953125 391 169.26953125 391 129.036132812 364 c 128,-1,54
 88.802734375 337 88.802734375 337 78.875 294 c 0,55,56
 68.2548828125 248 68.2548828125 248 101.483398438 223 c 128,-1,57
 134.711914062 198 134.711914062 198 231.017578125 182 c 0,58,59
 302.478515625 171 302.478515625 171 340.015625 156 c 1,44,45
EndSplineSet
EndChar

StartChar: dieresis
Encoding: 168 168 106
Width: 539
GlyphClass: 2
Flags: W
LayerCount: 2
Fore
SplineSet
263.98828125 654 m 128,-1,1
 276.98828125 654 276.98828125 654 283.640625 646 c 128,-1,2
 290.293945312 638 290.293945312 638 287.061523438 624 c 0,3,4
 284.060546875 611 284.060546875 611 273.713867188 603 c 128,-1,5
 263.366210938 595 263.366210938 595 250.366210938 595 c 128,-1,6
 237.366210938 595 237.366210938 595 230.713867188 603 c 128,-1,7
 224.060546875 611 224.060546875 611 227.061523438 624 c 128,-1,8
 230.063476562 637 230.063476562 637 240.525390625 645.5 c 128,-1,0
 250.98828125 654 250.98828125 654 263.98828125 654 c 128,-1,1
449.98828125 654 m 128,-1,10
 462.98828125 654 462.98828125 654 469.640625 646 c 128,-1,11
 476.293945312 638 476.293945312 638 473.061523438 624 c 0,12,13
 470.060546875 611 470.060546875 611 459.713867188 603 c 128,-1,14
 449.366210938 595 449.366210938 595 436.366210938 595 c 128,-1,15
 423.366210938 595 423.366210938 595 417.213867188 603 c 128,-1,16
 411.060546875 611 411.060546875 611 414.061523438 624 c 128,-1,17
 417.063476562 637 417.063476562 637 427.025390625 645.5 c 128,-1,9
 436.98828125 654 436.98828125 654 449.98828125 654 c 128,-1,10
EndSplineSet
EndChar

StartChar: copyright
Encoding: 169 169 107
Width: 801
GlyphClass: 2
Flags: W
LayerCount: 2
Fore
SplineSet
491.681640625 670 m 128,-1,1
 645.681640625 670 645.681640625 670 718.095703125 576.5 c 128,-1,2
 790.509765625 483 790.509765625 483 755.186523438 330 c 128,-1,3
 719.86328125 177 719.86328125 177 604.27734375 83.5 c 128,-1,4
 488.69140625 -10 488.69140625 -10 334.69140625 -10 c 128,-1,5
 180.69140625 -10 180.69140625 -10 108.27734375 83.5 c 128,-1,6
 35.86328125 177 35.86328125 177 71.1865234375 330 c 128,-1,7
 106.509765625 483 106.509765625 483 222.095703125 576.5 c 128,-1,0
 337.681640625 670 337.681640625 670 491.681640625 670 c 128,-1,1
485.91015625 645 m 0,8,9
 343.91015625 645 343.91015625 645 237.939453125 558.5 c 128,-1,10
 131.969726562 472 131.969726562 472 99.1865234375 330 c 128,-1,11
 66.4033203125 188 66.4033203125 188 132.43359375 101.5 c 128,-1,12
 198.462890625 15 198.462890625 15 340.462890625 15 c 0,13,14
 481.462890625 15 481.462890625 15 587.93359375 101.5 c 128,-1,15
 694.403320312 188 694.403320312 188 727.186523438 330 c 128,-1,16
 759.969726562 472 759.969726562 472 693.439453125 558.5 c 128,-1,17
 626.91015625 645 626.91015625 645 485.91015625 645 c 0,8,9
466.435546875 513 m 0,18,19
 581.435546875 513 581.435546875 513 593.579101562 414 c 1,20,-1
 566.80859375 402 l 1,21,22
 559.89453125 489 559.89453125 489 459.89453125 489 c 0,23,24
 387.89453125 489 387.89453125 489 337.083007812 446.5 c 128,-1,25
 286.270507812 404 286.270507812 404 268.724609375 328 c 128,-1,26
 251.178710938 252 251.178710938 252 282.3671875 209.5 c 128,-1,27
 313.5546875 167 313.5546875 167 385.5546875 167 c 0,28,29
 435.5546875 167 435.5546875 167 476.942382812 192.5 c 128,-1,30
 518.329101562 218 518.329101562 218 539.256835938 261 c 1,31,-1
 561.178710938 252 l 1,32,33
 534.635742188 202 534.635742188 202 486.325195312 172.5 c 128,-1,34
 438.013671875 143 438.013671875 143 381.013671875 143 c 0,35,36
 295.013671875 143 295.013671875 143 258.327148438 192 c 128,-1,37
 221.639648438 241 221.639648438 241 241.724609375 328 c 128,-1,38
 261.810546875 415 261.810546875 415 321.123046875 464 c 128,-1,39
 380.435546875 513 380.435546875 513 466.435546875 513 c 0,18,19
EndSplineSet
EndChar

StartChar: ordfeminine
Encoding: 170 170 108
Width: 359
GlyphClass: 2
Flags: W
LayerCount: 2
Fore
SplineSet
341.341796875 348 m 0,0,1
 357.341796875 348 357.341796875 348 368.49609375 353 c 1,2,-1
 362.87890625 333 l 1,3,4
 347.262695312 326 347.262695312 326 331.262695312 326 c 0,5,6
 279.262695312 326 279.262695312 326 293.577148438 388 c 1,7,8
 272.881835938 359 272.881835938 359 232.072265625 342.5 c 128,-1,9
 191.262695312 326 191.262695312 326 149.262695312 326 c 0,10,11
 99.2626953125 326 99.2626953125 326 75.7265625 347.5 c 128,-1,12
 52.1904296875 369 52.1904296875 369 61.1943359375 408 c 0,13,14
 78.740234375 484 78.740234375 484 209.819335938 506 c 2,15,-1
 323.206054688 525 l 1,16,-1
 329.901367188 554 l 2,17,18
 339.366210938 595 339.366210938 595 319.291992188 618.5 c 128,-1,19
 299.217773438 642 299.217773438 642 253.217773438 642 c 0,20,21
 168.217773438 642 168.217773438 642 126.287109375 573 c 1,22,-1
 107.595703125 583 l 1,23,24
 151.52734375 665 151.52734375 665 258.52734375 665 c 0,25,26
 317.52734375 665 317.52734375 665 344.063476562 637 c 128,-1,27
 370.598632812 609 370.598632812 609 358.362304688 556 c 2,28,-1
 319.577148438 388 l 2,29,30
 310.341796875 348 310.341796875 348 341.341796875 348 c 0,0,1
158.573242188 349 m 0,31,32
 203.573242188 349 203.573242188 349 248.614257812 373 c 128,-1,33
 293.654296875 397 293.654296875 397 303.120117188 438 c 2,34,-1
 318.588867188 505 l 1,35,-1
 215.432617188 487 l 2,36,37
 155.124023438 477 155.124023438 477 125.237304688 458 c 128,-1,38
 95.3515625 439 95.3515625 439 88.4248046875 409 c 0,39,40
 74.5732421875 349 74.5732421875 349 158.573242188 349 c 0,31,32
21.3291015625 218 m 1,41,-1
 26.6396484375 241 l 1,42,-1
 328.639648438 241 l 1,43,-1
 323.329101562 218 l 1,44,-1
 21.3291015625 218 l 1,41,-1
EndSplineSet
EndChar

StartChar: guillemotleft
Encoding: 171 171 109
Width: 404
GlyphClass: 2
Flags: W
LayerCount: 2
Fore
SplineSet
265.430664062 461 m 1,0,-1
 78.1796875 265 l 1,1,-1
 174.9296875 69 l 1,2,-1
 138.9296875 69 l 1,3,-1
 44.1796875 265 l 1,4,-1
 229.430664062 461 l 1,5,-1
 265.430664062 461 l 1,0,-1
396.430664062 461 m 1,6,-1
 209.1796875 265 l 1,7,-1
 305.9296875 69 l 1,8,-1
 269.9296875 69 l 1,9,-1
 175.1796875 265 l 1,10,-1
 360.430664062 461 l 1,11,-1
 396.430664062 461 l 1,6,-1
EndSplineSet
Substitution2: "'case' Case-Sensitive Forms lookup 29 subtable" guillemotleft.case
Substitution2: "'aalt' Access All Alternates lookup 0 subtable" guillemotleft.case
EndChar

StartChar: logicalnot
Encoding: 172 172 110
Width: 604
GlyphClass: 2
Flags: W
LayerCount: 2
Fore
SplineSet
85.1865234375 330 m 1,0,-1
 543.186523438 330 l 1,1,-1
 505.32421875 166 l 1,2,-1
 475.32421875 166 l 1,3,-1
 506.72265625 302 l 1,4,-1
 78.72265625 302 l 1,5,-1
 85.1865234375 330 l 1,0,-1
EndSplineSet
EndChar

StartChar: uni00AD
Encoding: 173 173 111
Width: 437
GlyphClass: 2
Flags: W
LayerCount: 2
Fore
SplineSet
366.3359375 283 m 1,0,-1
 359.409179688 253 l 1,1,-1
 67.4091796875 253 l 1,2,-1
 74.3359375 283 l 1,3,-1
 366.3359375 283 l 1,0,-1
EndSplineSet
EndChar

StartChar: registered
Encoding: 174 174 112
Width: 801
GlyphClass: 2
Flags: W
LayerCount: 2
Fore
SplineSet
491.681640625 670 m 128,-1,1
 645.681640625 670 645.681640625 670 718.095703125 576.5 c 128,-1,2
 790.509765625 483 790.509765625 483 755.186523438 330 c 128,-1,3
 719.86328125 177 719.86328125 177 604.27734375 83.5 c 128,-1,4
 488.69140625 -10 488.69140625 -10 334.69140625 -10 c 128,-1,5
 180.69140625 -10 180.69140625 -10 108.27734375 83.5 c 128,-1,6
 35.86328125 177 35.86328125 177 71.1865234375 330 c 128,-1,7
 106.509765625 483 106.509765625 483 222.095703125 576.5 c 128,-1,0
 337.681640625 670 337.681640625 670 491.681640625 670 c 128,-1,1
340.462890625 15 m 0,8,9
 481.462890625 15 481.462890625 15 587.93359375 101.5 c 128,-1,10
 694.403320312 188 694.403320312 188 727.186523438 330 c 128,-1,11
 759.969726562 472 759.969726562 472 693.439453125 558.5 c 128,-1,12
 626.91015625 645 626.91015625 645 485.91015625 645 c 0,13,14
 343.91015625 645 343.91015625 645 237.939453125 558.5 c 128,-1,15
 131.969726562 472 131.969726562 472 99.1865234375 330 c 128,-1,16
 66.4033203125 188 66.4033203125 188 132.43359375 101.5 c 128,-1,17
 198.462890625 15 198.462890625 15 340.462890625 15 c 0,8,9
585.194335938 408 m 0,18,19
 563.954101562 316 563.954101562 316 461.415039062 305 c 1,20,-1
 530.013671875 143 l 1,21,-1
 500.013671875 143 l 1,22,-1
 433.18359375 304 l 1,23,-1
 310.18359375 304 l 1,24,-1
 273.013671875 143 l 1,25,-1
 246.013671875 143 l 1,26,-1
 331.435546875 513 l 1,27,-1
 485.435546875 513 l 2,28,29
 609.435546875 513 609.435546875 513 585.194335938 408 c 0,18,19
353.356445312 491 m 1,30,-1
 315.032226562 325 l 1,31,-1
 442.032226562 325 l 2,32,33
 540.494140625 327 540.494140625 327 559.194335938 408 c 0,34,35
 578.356445312 491 578.356445312 491 480.356445312 491 c 2,36,-1
 353.356445312 491 l 1,30,-1
EndSplineSet
Substitution2: "'ordn' Ordinals lookup 22 subtable" registeredsuperior
Substitution2: "'sups' Superscript lookup 15 subtable" registeredsuperior
Substitution2: "'aalt' Access All Alternates lookup 0 subtable" registeredsuperior
EndChar

StartChar: macron
Encoding: 175 175 113
Width: 539
GlyphClass: 2
Flags: W
LayerCount: 2
Fore
SplineSet
501.215820312 629 m 1,0,-1
 495.213867188 603 l 1,1,-1
 194.213867188 603 l 1,2,-1
 200.215820312 629 l 1,3,-1
 501.215820312 629 l 1,0,-1
EndSplineSet
EndChar

StartChar: degree
Encoding: 176 176 114
Width: 390
GlyphClass: 2
Flags: W
LayerCount: 2
Fore
SplineSet
220.345703125 387 m 128,-1,1
 157.345703125 387 157.345703125 387 126.96484375 426.5 c 128,-1,2
 96.5849609375 466 96.5849609375 466 110.8984375 528 c 0,3,4
 125.443359375 591 125.443359375 591 173.5625 630.5 c 128,-1,5
 221.681640625 670 221.681640625 670 285.681640625 670 c 128,-1,6
 349.681640625 670 349.681640625 670 379.5625 630.5 c 128,-1,7
 409.443359375 591 409.443359375 591 394.8984375 528 c 0,8,9
 380.584960938 466 380.584960938 466 331.96484375 426.5 c 128,-1,0
 283.345703125 387 283.345703125 387 220.345703125 387 c 128,-1,1
226.118164062 412 m 128,-1,11
 277.118164062 412 277.118164062 412 316.12109375 444.5 c 128,-1,12
 355.124023438 477 355.124023438 477 366.8984375 528 c 0,13,14
 378.903320312 580 378.903320312 580 354.907226562 612.5 c 128,-1,15
 330.91015625 645 330.91015625 645 279.91015625 645 c 128,-1,16
 228.91015625 645 228.91015625 645 189.907226562 612.5 c 128,-1,17
 150.903320312 580 150.903320312 580 138.8984375 528 c 0,18,19
 127.124023438 477 127.124023438 477 151.12109375 444.5 c 128,-1,10
 175.118164062 412 175.118164062 412 226.118164062 412 c 128,-1,11
EndSplineSet
EndChar

StartChar: plusminus
Encoding: 177 177 115
Width: 604
GlyphClass: 2
Flags: W
LayerCount: 2
Fore
SplineSet
342.345703125 387 m 1,0,-1
 556.345703125 387 l 1,1,-1
 550.112304688 360 l 1,2,-1
 336.112304688 360 l 1,3,-1
 280.01171875 117 l 1,4,-1
 251.01171875 117 l 1,5,-1
 307.112304688 360 l 1,6,-1
 92.1123046875 360 l 1,7,-1
 98.345703125 387 l 1,8,-1
 313.345703125 387 l 1,9,-1
 368.5234375 626 l 1,10,-1
 397.5234375 626 l 1,11,-1
 342.345703125 387 l 1,0,-1
9 0 m 1,12,-1
 15.2333984375 27 l 1,13,-1
 473.233398438 27 l 1,14,-1
 467 0 l 1,15,-1
 9 0 l 1,12,-1
EndSplineSet
EndChar

StartChar: uni00B2
Encoding: 178 178 116
Width: 337
GlyphClass: 2
Flags: W
LayerCount: 2
Fore
SplineSet
49.87890625 333 m 1,0,-1
 54.9580078125 355 l 1,1,2
 106.0390625 390 106.0390625 390 185.966796875 446 c 0,3,4
 324.130859375 542 324.130859375 542 340.752929688 614 c 0,5,6
 350.911132812 658 350.911132812 658 330.029296875 684.5 c 128,-1,7
 309.147460938 711 309.147460938 711 263.147460938 711 c 0,8,9
 215.147460938 711 215.147460938 711 180.067382812 682.5 c 128,-1,10
 144.98828125 654 144.98828125 654 130.444335938 604 c 1,11,-1
 107.060546875 611 l 1,12,13
 123.989257812 667 123.989257812 667 167.338867188 701 c 128,-1,14
 210.688476562 735 210.688476562 735 269.688476562 735 c 0,15,16
 329.688476562 735 329.688476562 735 356.069335938 702 c 128,-1,17
 382.451171875 669 382.451171875 669 369.752929688 614 c 0,18,19
 350.822265625 532 350.822265625 532 200.50390625 431 c 0,20,21
 128.9609375 381 128.9609375 381 93.419921875 357 c 1,22,-1
 93.189453125 356 l 1,23,-1
 127.189453125 356 l 1,24,-1
 324.189453125 356 l 1,25,-1
 318.87890625 333 l 1,26,-1
 49.87890625 333 l 1,0,-1
EndSplineSet
EndChar

StartChar: uni00B3
Encoding: 179 179 117
Width: 318
GlyphClass: 2
Flags: W
LayerCount: 2
Fore
SplineSet
256.688476562 735 m 0,0,1
 312.688476562 735 312.688476562 735 337.877929688 705.5 c 128,-1,2
 363.067382812 676 363.067382812 676 352.215820312 629 c 0,3,4
 343.673828125 592 343.673828125 592 317.40234375 567 c 128,-1,5
 291.130859375 542 291.130859375 542 255.283203125 534 c 1,6,-1
 254.822265625 532 l 1,7,8
 290.8984375 528 290.8984375 528 308.395507812 502 c 128,-1,9
 325.893554688 476 325.893554688 476 317.120117188 438 c 0,10,11
 305.577148438 388 305.577148438 388 262.03515625 357.5 c 128,-1,12
 218.494140625 327 218.494140625 327 161.494140625 327 c 0,13,14
 54.494140625 327 54.494140625 327 48.7333984375 419 c 1,15,-1
 76.7353515625 432 l 1,16,17
 76.03515625 351 76.03515625 351 168.03515625 351 c 0,18,19
 213.03515625 351 213.03515625 351 246.459960938 374.5 c 128,-1,20
 279.885742188 398 279.885742188 398 289.58203125 440 c 0,21,22
 298.5859375 479 298.5859375 479 278.549804688 500.5 c 128,-1,23
 258.513671875 522 258.513671875 522 211.513671875 522 c 2,24,-1
 186.513671875 522 l 1,25,-1
 191.592773438 544 l 1,26,-1
 215.592773438 544 l 2,27,28
 257.592773438 544 257.592773438 544 286.017578125 567.5 c 128,-1,29
 314.443359375 591 314.443359375 591 322.75390625 627 c 0,30,31
 331.7578125 666 331.7578125 666 312.453125 688.5 c 128,-1,32
 293.147460938 711 293.147460938 711 250.147460938 711 c 0,33,34
 211.147460938 711 211.147460938 711 181.875976562 692.5 c 128,-1,35
 152.60546875 674 152.60546875 674 136.986328125 641 c 1,36,-1
 114.526367188 652 l 1,37,38
 134.298828125 690 134.298828125 690 172.493164062 712.5 c 128,-1,39
 210.688476562 735 210.688476562 735 256.688476562 735 c 0,0,1
EndSplineSet
EndChar

StartChar: acute
Encoding: 180 180 118
Width: 539
GlyphClass: 2
Flags: W
LayerCount: 2
Fore
SplineSet
464.45703125 734 m 1,0,-1
 497.45703125 734 l 1,1,-1
 372.595703125 583 l 1,2,-1
 346.595703125 583 l 1,3,-1
 464.45703125 734 l 1,0,-1
EndSplineSet
EndChar

StartChar: uni00B5
Encoding: 181 181 119
Width: 562
GlyphClass: 2
Flags: W
LayerCount: 2
Fore
SplineSet
506.434570312 500 m 1,0,-1
 536.434570312 500 l 1,1,-1
 421 0 l 1,2,-1
 394 0 l 1,3,-1
 420.2421875 118 l 1,4,5
 385.852539062 60 385.852539062 60 323.771484375 25 c 128,-1,6
 261.69140625 -10 261.69140625 -10 187.69140625 -10 c 0,7,8
 81.69140625 -10 81.69140625 -10 61.0078125 78 c 1,9,-1
 -5.482421875 -210 l 1,10,-1
 -35.482421875 -210 l 1,11,-1
 128.434570312 500 l 1,12,-1
 158.434570312 500 l 1,13,-1
 83.1708984375 174 l 2,14,15
 65.39453125 97 65.39453125 97 97.0439453125 56.5 c 128,-1,16
 128.694335938 16 128.694335938 16 198.694335938 16 c 0,17,18
 281.694335938 16 281.694335938 16 349.314453125 68.5 c 128,-1,19
 416.934570312 121 416.934570312 121 436.25 196 c 2,20,-1
 506.434570312 500 l 1,0,-1
EndSplineSet
EndChar

StartChar: paragraph
Encoding: 182 182 120
Width: 547
GlyphClass: 2
Flags: W
LayerCount: 2
Fore
SplineSet
552.373046875 660 m 1,0,-1
 376.913085938 -100 l 1,1,-1
 348.913085938 -100 l 1,2,-1
 518.370117188 634 l 1,3,-1
 381.370117188 634 l 1,4,-1
 211.913085938 -100 l 1,5,-1
 183.913085938 -100 l 1,6,-1
 262.408203125 240 l 1,7,8
 154.408203125 240 154.408203125 240 102.18359375 297.5 c 128,-1,9
 49.9580078125 355 49.9580078125 355 71.890625 450 c 128,-1,10
 93.8232421875 545 93.8232421875 545 172.59765625 602.5 c 128,-1,11
 251.373046875 660 251.373046875 660 359.373046875 660 c 2,12,-1
 552.373046875 660 l 1,0,-1
353.370117188 634 m 1,13,14
 257.370117188 634 257.370117188 634 189.327148438 584 c 128,-1,15
 121.283203125 534 121.283203125 534 101.890625 450 c 128,-1,16
 82.498046875 366 82.498046875 366 127.454101562 316 c 128,-1,17
 172.411132812 266 172.411132812 266 268.411132812 266 c 1,18,-1
 353.370117188 634 l 1,13,14
EndSplineSet
Substitution2: "'ornm' Ornaments lookup 40 subtable" uni2761
Substitution2: "'aalt' Access All Alternates lookup 0 subtable" uni2761
EndChar

StartChar: periodcentered
Encoding: 183 183 121
Width: 199
GlyphClass: 2
Flags: W
LayerCount: 2
Fore
SplineSet
126.0390625 390 m 128,-1,1
 140.0390625 390 140.0390625 390 146.576171875 381.5 c 128,-1,2
 153.114257812 373 153.114257812 373 149.881835938 359 c 128,-1,3
 146.649414062 345 146.649414062 345 136.1875 336.5 c 128,-1,4
 125.724609375 328 125.724609375 328 111.724609375 328 c 128,-1,5
 97.724609375 328 97.724609375 328 90.6875 336.5 c 128,-1,6
 83.6494140625 345 83.6494140625 345 86.8818359375 359 c 128,-1,7
 90.1142578125 373 90.1142578125 373 101.076171875 381.5 c 128,-1,0
 112.0390625 390 112.0390625 390 126.0390625 390 c 128,-1,1
EndSplineSet
Substitution2: "Single Substitution lookup 55 subtable" periodcentered.loclCAT.sc
Substitution2: "Single Substitution lookup 54 subtable" periodcentered.loclCAT.case
Substitution2: "Single Substitution lookup 53 subtable" periodcentered.loclCAT
Substitution2: "'case' Case-Sensitive Forms lookup 29 subtable" periodcentered.case
Substitution2: "'smcp' Lowercase to Small Capitals lookup 12 subtable" periodcentered.sc
Substitution2: "'c2sc' Capitals to Small Capitals lookup 11 subtable" periodcentered.sc
AlternateSubs2: "'aalt' Access All Alternates lookup 1 subtable" periodcentered.sc periodcentered.case
Position2: "Single Positioning lookup 6 subtable" dx=0 dy=0 dh=-30 dv=0
EndChar

StartChar: cedilla
Encoding: 184 184 122
Width: 539
GlyphClass: 2
Flags: W
LayerCount: 2
Fore
SplineSet
178.692382812 3 m 1,0,-1
 206.078125 9 l 1,1,2
 304.99609375 -39 304.99609375 -39 287.219726562 -116 c 0,3,4
 278.215820312 -155 278.215820312 -155 246.443359375 -180 c 128,-1,5
 214.671875 -205 214.671875 -205 172.671875 -205 c 0,6,7
 108.671875 -205 108.671875 -205 85.1376953125 -164 c 1,8,-1
 101.986328125 -143 l 1,9,10
 123.982421875 -182 123.982421875 -182 175.982421875 -182 c 0,11,12
 205.982421875 -182 205.982421875 -182 229.868164062 -163 c 128,-1,13
 253.754882812 -144 253.754882812 -144 260.680664062 -114 c 0,14,15
 268.299804688 -81 268.299804688 -81 251.186523438 -55.5 c 128,-1,16
 234.07421875 -30 234.07421875 -30 178.692382812 3 c 1,0,-1
EndSplineSet
EndChar

StartChar: uni00B9
Encoding: 185 185 123
Width: 205
GlyphClass: 2
Flags: W
LayerCount: 2
Fore
SplineSet
228.534179688 730 m 1,0,-1
 252.534179688 730 l 1,1,-1
 160.87890625 333 l 1,2,-1
 132.87890625 333 l 1,3,-1
 201.447265625 630 l 2,4,5
 211.60546875 674 211.60546875 674 218.684570312 696 c 1,6,7
 164.372070312 647 164.372070312 647 91.29296875 625 c 1,8,-1
 96.8330078125 649 l 1,9,10
 128.911132812 658 128.911132812 658 168.221679688 681 c 128,-1,11
 207.53125 704 207.53125 704 228.534179688 730 c 1,0,-1
EndSplineSet
EndChar

StartChar: ordmasculine
Encoding: 186 186 124
Width: 355
GlyphClass: 2
Flags: W
LayerCount: 2
Fore
SplineSet
189.494140625 327 m 128,-1,1
 116.494140625 327 116.494140625 327 91.0751953125 368.5 c 128,-1,2
 65.65625 410 65.65625 410 85.5107421875 496 c 128,-1,3
 105.365234375 582 105.365234375 582 149.946289062 623.5 c 128,-1,4
 194.52734375 665 194.52734375 665 267.52734375 665 c 128,-1,5
 340.52734375 665 340.52734375 665 365.946289062 623.5 c 128,-1,6
 391.365234375 582 391.365234375 582 371.510742188 496 c 128,-1,7
 351.65625 410 351.65625 410 307.075195312 368.5 c 128,-1,0
 262.494140625 327 262.494140625 327 189.494140625 327 c 128,-1,1
194.803710938 350 m 0,8,9
 253.803710938 350 253.803710938 350 290.115234375 386 c 128,-1,10
 326.426757812 422 326.426757812 422 343.510742188 496 c 128,-1,11
 360.594726562 570 360.594726562 570 340.90625 606 c 128,-1,12
 321.217773438 642 321.217773438 642 262.217773438 642 c 0,13,14
 202.217773438 642 202.217773438 642 166.521484375 606.5 c 128,-1,15
 130.826171875 571 130.826171875 571 113.510742188 496 c 128,-1,16
 96.1953125 421 96.1953125 421 115.5 385.5 c 128,-1,17
 134.803710938 350 134.803710938 350 194.803710938 350 c 0,8,9
28.3291015625 218 m 1,18,-1
 33.6396484375 241 l 1,19,-1
 304.639648438 241 l 1,20,-1
 299.329101562 218 l 1,21,-1
 28.3291015625 218 l 1,18,-1
EndSplineSet
EndChar

StartChar: guillemotright
Encoding: 187 187 125
Width: 401
GlyphClass: 2
Flags: W
LayerCount: 2
Fore
SplineSet
89.4306640625 461 m 1,0,-1
 125.430664062 461 l 1,1,-1
 220.1796875 265 l 1,2,-1
 34.9296875 69 l 1,3,-1
 -1.0703125 69 l 1,4,-1
 186.1796875 265 l 1,5,-1
 89.4306640625 461 l 1,0,-1
220.430664062 461 m 1,6,-1
 255.430664062 461 l 1,7,-1
 351.1796875 265 l 1,8,-1
 164.9296875 69 l 1,9,-1
 129.9296875 69 l 1,10,-1
 316.1796875 265 l 1,11,-1
 220.430664062 461 l 1,6,-1
EndSplineSet
Substitution2: "'case' Case-Sensitive Forms lookup 29 subtable" guillemotright.case
Substitution2: "'aalt' Access All Alternates lookup 0 subtable" guillemotright.case
EndChar

StartChar: onequarter
Encoding: 188 188 126
Width: 668
GlyphClass: 2
Flags: W
LayerCount: 2
Fore
SplineSet
203.909179688 632 m 1,0,1
 154.057617188 585 154.057617188 585 76.2861328125 560 c 1,2,-1
 81.8271484375 584 l 1,3,4
 113.905273438 593 113.905273438 593 153.21484375 616 c 128,-1,5
 192.524414062 639 192.524414062 639 213.52734375 665 c 1,6,-1
 237.52734375 665 l 1,7,-1
 145.873046875 268 l 1,8,-1
 117.873046875 268 l 1,9,-1
 186.440429688 565 l 2,10,11
 196.598632812 609 196.598632812 609 203.909179688 632 c 1,0,1
617.373046875 660 m 1,12,-1
 649.373046875 660 l 1,13,-1
 29 0 l 1,14,-1
 -3 0 l 1,15,-1
 617.373046875 660 l 1,12,-1
536.705078125 133 m 1,16,-1
 615.705078125 133 l 1,17,-1
 610.625976562 111 l 1,18,-1
 531.625976562 111 l 1,19,-1
 505.076171875 -4 l 1,20,-1
 480.076171875 -4 l 1,21,-1
 506.625976562 111 l 1,22,-1
 308.625976562 111 l 1,23,-1
 313.012695312 130 l 1,24,-1
 563.731445312 393 l 1,25,-1
 596.731445312 393 l 1,26,-1
 536.705078125 133 l 1,16,-1
554.416015625 318 m 2,27,28
 562.03515625 351 562.03515625 351 566.959960938 368 c 1,29,-1
 564.959960938 368 l 1,30,31
 531.416992188 331 531.416992188 331 522.108398438 321 c 2,32,-1
 341.705078125 133 l 1,33,-1
 511.705078125 133 l 1,34,-1
 554.416015625 318 l 2,27,28
EndSplineSet
EndChar

StartChar: onehalf
Encoding: 189 189 127
Width: 753
GlyphClass: 2
Flags: W
LayerCount: 2
Fore
SplineSet
203.909179688 632 m 1,0,1
 154.057617188 585 154.057617188 585 76.2861328125 560 c 1,2,-1
 81.8271484375 584 l 1,3,4
 113.905273438 593 113.905273438 593 153.21484375 616 c 128,-1,5
 192.524414062 639 192.524414062 639 213.52734375 665 c 1,6,-1
 237.52734375 665 l 1,7,-1
 145.873046875 268 l 1,8,-1
 117.873046875 268 l 1,9,-1
 186.440429688 565 l 2,10,11
 196.598632812 609 196.598632812 609 203.909179688 632 c 1,0,1
617.373046875 660 m 1,12,-1
 649.373046875 660 l 1,13,-1
 29 0 l 1,14,-1
 -3 0 l 1,15,-1
 617.373046875 660 l 1,12,-1
466.38671875 19 m 1,16,-1
 663.38671875 19 l 1,17,-1
 658.076171875 -4 l 1,18,-1
 389.076171875 -4 l 1,19,-1
 394.155273438 18 l 1,20,21
 445.236328125 53 445.236328125 53 525.165039062 109 c 0,22,23
 663.328125 205 663.328125 205 679.950195312 277 c 0,24,25
 690.108398438 321 690.108398438 321 669.2265625 347.5 c 128,-1,26
 648.344726562 374 648.344726562 374 602.344726562 374 c 0,27,28
 554.344726562 374 554.344726562 374 519.264648438 345.5 c 128,-1,29
 484.185546875 317 484.185546875 317 469.641601562 267 c 1,30,-1
 446.2578125 274 l 1,31,32
 463.186523438 330 463.186523438 330 506.536132812 364 c 128,-1,33
 549.885742188 398 549.885742188 398 608.885742188 398 c 0,34,35
 668.885742188 398 668.885742188 398 695.266601562 365 c 128,-1,36
 721.6484375 332 721.6484375 332 708.950195312 277 c 0,37,38
 690.01953125 195 690.01953125 195 539.701171875 94 c 0,39,40
 468.158203125 44 468.158203125 44 432.6171875 20 c 1,41,-1
 432.38671875 19 l 1,42,-1
 466.38671875 19 l 1,16,-1
EndSplineSet
EndChar

StartChar: threequarters
Encoding: 190 190 128
Width: 782
GlyphClass: 2
Flags: W
LayerCount: 2
Fore
SplineSet
241.681640625 670 m 0,0,1
 297.681640625 670 297.681640625 670 322.87109375 640.5 c 128,-1,2
 348.060546875 611 348.060546875 611 337.209960938 564 c 0,3,4
 328.66796875 527 328.66796875 527 302.395507812 502 c 128,-1,5
 276.124023438 477 276.124023438 477 240.27734375 469 c 1,6,-1
 239.815429688 467 l 1,7,8
 275.891601562 463 275.891601562 463 293.389648438 437 c 128,-1,9
 310.88671875 411 310.88671875 411 302.114257812 373 c 0,10,11
 290.5703125 323 290.5703125 323 247.029296875 292.5 c 128,-1,12
 203.487304688 262 203.487304688 262 146.487304688 262 c 0,13,14
 39.4873046875 262 39.4873046875 262 33.7275390625 354 c 1,15,-1
 61.728515625 367 l 1,16,17
 61.0283203125 286 61.0283203125 286 153.028320312 286 c 0,18,19
 198.028320312 286 198.028320312 286 231.454101562 309.5 c 128,-1,20
 264.87890625 333 264.87890625 333 274.575195312 375 c 0,21,22
 283.579101562 414 283.579101562 414 263.54296875 435.5 c 128,-1,23
 243.506835938 457 243.506835938 457 196.506835938 457 c 2,24,-1
 171.506835938 457 l 1,25,-1
 176.5859375 479 l 1,26,-1
 200.5859375 479 l 2,27,28
 242.5859375 479 242.5859375 479 271.01171875 502.5 c 128,-1,29
 299.436523438 526 299.436523438 526 307.748046875 562 c 0,30,31
 316.751953125 601 316.751953125 601 297.446289062 623.5 c 128,-1,32
 278.140625 646 278.140625 646 235.140625 646 c 0,33,34
 196.140625 646 196.140625 646 166.870117188 627.5 c 128,-1,35
 137.598632812 609 137.598632812 609 121.98046875 576 c 1,36,-1
 99.51953125 587 l 1,37,38
 119.29296875 625 119.29296875 625 157.487304688 647.5 c 128,-1,39
 195.681640625 670 195.681640625 670 241.681640625 670 c 0,0,1
110 0 m 1,40,-1
 730.373046875 660 l 1,41,-1
 762.373046875 660 l 1,42,-1
 142 0 l 1,43,-1
 110 0 l 1,40,-1
729.705078125 133 m 1,44,-1
 724.625976562 111 l 1,45,-1
 645.625976562 111 l 1,46,-1
 619.076171875 -4 l 1,47,-1
 594.076171875 -4 l 1,48,-1
 620.625976562 111 l 1,49,-1
 422.625976562 111 l 1,50,-1
 427.012695312 130 l 1,51,-1
 677.731445312 393 l 1,52,-1
 710.731445312 393 l 1,53,-1
 650.705078125 133 l 1,54,-1
 729.705078125 133 l 1,44,-1
455.705078125 133 m 1,55,-1
 625.705078125 133 l 1,56,-1
 668.416015625 318 l 2,57,58
 676.03515625 351 676.03515625 351 680.959960938 368 c 1,59,-1
 678.959960938 368 l 1,60,61
 645.416992188 331 645.416992188 331 636.108398438 321 c 2,62,-1
 455.705078125 133 l 1,55,-1
EndSplineSet
EndChar

StartChar: questiondown
Encoding: 191 191 129
Width: 484
GlyphClass: 2
Flags: W
LayerCount: 2
Fore
SplineSet
289.3515625 439 m 128,-1,1
 275.3515625 439 275.3515625 439 268.928710938 448 c 128,-1,2
 262.506835938 457 262.506835938 457 265.739257812 471 c 0,3,4
 268.740234375 484 268.740234375 484 279.318359375 493 c 128,-1,5
 289.895507812 502 289.895507812 502 303.895507812 502 c 128,-1,6
 317.895507812 502 317.895507812 502 324.93359375 493.5 c 128,-1,7
 331.970703125 485 331.970703125 485 328.739257812 471 c 128,-1,8
 325.506835938 457 325.506835938 457 314.428710938 448 c 128,-1,0
 303.3515625 439 303.3515625 439 289.3515625 439 c 128,-1,1
132.829101562 -174 m 0,9,10
 45.8291015625 -174 45.8291015625 -174 1.8330078125 -128.5 c 128,-1,11
 -42.162109375 -83 -42.162109375 -83 -24.154296875 -5 c 0,12,13
 -4.76171875 79 -4.76171875 79 55.1279296875 130.5 c 128,-1,14
 115.017578125 182 115.017578125 182 221.020507812 208 c 1,15,-1
 249.87890625 333 l 1,16,-1
 279.87890625 333 l 1,17,-1
 247.095703125 191 l 1,18,19
 131.169921875 161 131.169921875 161 78.126953125 117.5 c 128,-1,20
 25.083984375 74 25.083984375 74 7.3076171875 -3 c 0,21,22
 -7.9296875 -69 -7.9296875 -69 28.56640625 -108 c 128,-1,23
 65.0625 -147 65.0625 -147 140.0625 -147 c 0,24,25
 308.0625 -147 308.0625 -147 365.078125 9 c 1,26,-1
 388.845703125 -5 l 1,27,28
 320.829101562 -174 320.829101562 -174 132.829101562 -174 c 0,9,10
EndSplineSet
Substitution2: "'case' Case-Sensitive Forms lookup 29 subtable" questiondown.case
Substitution2: "'smcp' Lowercase to Small Capitals lookup 12 subtable" questiondown.sc
Substitution2: "'c2sc' Capitals to Small Capitals lookup 11 subtable" questiondown.sc
AlternateSubs2: "'aalt' Access All Alternates lookup 1 subtable" questiondown.sc questiondown.case
EndChar

StartChar: Agrave
Encoding: 192 192 130
Width: 602
GlyphClass: 2
Flags: W
LayerCount: 2
Fore
SplineSet
414.53515625 743 m 1,0,-1
 388.53515625 743 l 1,1,-1
 342.703125 891 l 1,2,-1
 377.703125 891 l 1,3,-1
 414.53515625 743 l 1,0,-1
491 0 m 1,4,-1
 451.483398438 223 l 1,5,-1
 125.483398438 223 l 1,6,-1
 -17 0 l 1,7,-1
 -49 0 l 1,8,-1
 372.373046875 660 l 1,9,-1
 407.373046875 660 l 1,10,-1
 523 0 l 1,11,-1
 491 0 l 1,4,-1
142.716796875 250 m 1,12,-1
 446.716796875 250 l 1,13,-1
 389.287109375 573 l 1,14,-1
 382.215820312 629 l 1,15,-1
 349.749023438 575 l 1,16,-1
 142.716796875 250 l 1,12,-1
EndSplineSet
Substitution2: "Single Substitution lookup 56 subtable" Agrave.swsh
Substitution2: "'swsh' Swash lookup 32 subtable" Agrave.swsh
Substitution2: "'c2sc' Capitals to Small Capitals lookup 11 subtable" agrave.sc
AlternateSubs2: "'aalt' Access All Alternates lookup 1 subtable" agrave.sc Agrave.swsh
EndChar

StartChar: Aacute
Encoding: 193 193 131
Width: 602
GlyphClass: 2
Flags: W
LayerCount: 2
Fore
SplineSet
538.703125 891 m 1,0,-1
 424.53515625 743 l 1,1,-1
 398.53515625 743 l 1,2,-1
 503.703125 891 l 1,3,-1
 538.703125 891 l 1,0,-1
491 0 m 1,4,-1
 451.483398438 223 l 1,5,-1
 125.483398438 223 l 1,6,-1
 -17 0 l 1,7,-1
 -49 0 l 1,8,-1
 372.373046875 660 l 1,9,-1
 407.373046875 660 l 1,10,-1
 523 0 l 1,11,-1
 491 0 l 1,4,-1
142.716796875 250 m 1,12,-1
 446.716796875 250 l 1,13,-1
 389.287109375 573 l 1,14,-1
 382.215820312 629 l 1,15,-1
 349.749023438 575 l 1,16,-1
 142.716796875 250 l 1,12,-1
EndSplineSet
Substitution2: "Single Substitution lookup 56 subtable" Aacute.swsh
Substitution2: "'swsh' Swash lookup 32 subtable" Aacute.swsh
Substitution2: "'c2sc' Capitals to Small Capitals lookup 11 subtable" aacute.sc
AlternateSubs2: "'aalt' Access All Alternates lookup 1 subtable" aacute.sc Aacute.swsh
EndChar

StartChar: Acircumflex
Encoding: 194 194 132
Width: 602
GlyphClass: 2
Flags: W
LayerCount: 2
Fore
SplineSet
437.393554688 868 m 1,0,-1
 310.303710938 742 l 1,1,-1
 280.303710938 742 l 1,2,-1
 424.2421875 889 l 1,3,-1
 460.2421875 889 l 1,4,-1
 536.303710938 742 l 1,5,-1
 507.303710938 742 l 1,6,-1
 437.393554688 868 l 1,0,-1
491 0 m 1,7,-1
 451.483398438 223 l 1,8,-1
 125.483398438 223 l 1,9,-1
 -17 0 l 1,10,-1
 -49 0 l 1,11,-1
 372.373046875 660 l 1,12,-1
 407.373046875 660 l 1,13,-1
 523 0 l 1,14,-1
 491 0 l 1,7,-1
142.716796875 250 m 1,15,-1
 446.716796875 250 l 1,16,-1
 389.287109375 573 l 1,17,-1
 382.215820312 629 l 1,18,-1
 349.749023438 575 l 1,19,-1
 142.716796875 250 l 1,15,-1
EndSplineSet
Substitution2: "Single Substitution lookup 56 subtable" Acircumflex.swsh
Substitution2: "'swsh' Swash lookup 32 subtable" Acircumflex.swsh
Substitution2: "'c2sc' Capitals to Small Capitals lookup 11 subtable" acircumflex.sc
AlternateSubs2: "'aalt' Access All Alternates lookup 1 subtable" acircumflex.sc Acircumflex.swsh
EndChar

StartChar: Atilde
Encoding: 195 195 133
Width: 602
GlyphClass: 2
Flags: W
LayerCount: 2
Fore
SplineSet
355.235351562 824 m 128,-1,1
 325.235351562 824 325.235351562 824 307.42578125 807.5 c 128,-1,2
 289.6171875 791 289.6171875 791 274.305664062 755 c 1,3,-1
 249.305664062 755 l 1,4,5
 268.38671875 803 268.38671875 803 295.197265625 826 c 128,-1,6
 322.006835938 849 322.006835938 849 362.006835938 849 c 0,7,8
 403.006835938 849 403.006835938 849 431.657226562 815 c 128,-1,9
 460.307617188 781 460.307617188 781 489.307617188 781 c 0,10,11
 519.307617188 781 519.307617188 781 537.6171875 797.5 c 128,-1,12
 555.926757812 814 555.926757812 814 571.23828125 850 c 1,13,-1
 597.23828125 850 l 1,14,15
 578.15625 802 578.15625 802 551.346679688 779 c 128,-1,16
 524.536132812 756 524.536132812 756 484.536132812 756 c 0,17,18
 443.536132812 756 443.536132812 756 414.385742188 790 c 128,-1,0
 385.235351562 824 385.235351562 824 355.235351562 824 c 128,-1,1
491 0 m 1,19,-1
 451.483398438 223 l 1,20,-1
 125.483398438 223 l 1,21,-1
 -17 0 l 1,22,-1
 -49 0 l 1,23,-1
 372.373046875 660 l 1,24,-1
 407.373046875 660 l 1,25,-1
 523 0 l 1,26,-1
 491 0 l 1,19,-1
142.716796875 250 m 1,27,-1
 446.716796875 250 l 1,28,-1
 389.287109375 573 l 1,29,-1
 382.215820312 629 l 1,30,-1
 349.749023438 575 l 1,31,-1
 142.716796875 250 l 1,27,-1
EndSplineSet
Substitution2: "Single Substitution lookup 56 subtable" Atilde.swsh
Substitution2: "'swsh' Swash lookup 32 subtable" Atilde.swsh
Substitution2: "'c2sc' Capitals to Small Capitals lookup 11 subtable" atilde.sc
AlternateSubs2: "'aalt' Access All Alternates lookup 1 subtable" atilde.sc Atilde.swsh
EndChar

StartChar: Adieresis
Encoding: 196 196 134
Width: 602
GlyphClass: 2
Flags: W
LayerCount: 2
Fore
SplineSet
317.305664062 755 m 128,-1,1
 304.305664062 755 304.305664062 755 297.65234375 763 c 128,-1,2
 290.999023438 771 290.999023438 771 294.000976562 784 c 128,-1,3
 297.001953125 797 297.001953125 797 307.463867188 805.5 c 128,-1,4
 317.926757812 814 317.926757812 814 330.926757812 814 c 128,-1,5
 343.926757812 814 343.926757812 814 350.580078125 806 c 128,-1,6
 357.232421875 798 357.232421875 798 354.000976562 784 c 0,7,8
 350.999023438 771 350.999023438 771 340.65234375 763 c 128,-1,0
 330.305664062 755 330.305664062 755 317.305664062 755 c 128,-1,1
503.305664062 755 m 128,-1,10
 490.305664062 755 490.305664062 755 484.15234375 763 c 128,-1,11
 477.999023438 771 477.999023438 771 481.000976562 784 c 128,-1,12
 484.001953125 797 484.001953125 797 493.963867188 805.5 c 128,-1,13
 503.926757812 814 503.926757812 814 516.926757812 814 c 128,-1,14
 529.926757812 814 529.926757812 814 536.580078125 806 c 128,-1,15
 543.232421875 798 543.232421875 798 540.000976562 784 c 0,16,17
 536.999023438 771 536.999023438 771 526.65234375 763 c 128,-1,9
 516.305664062 755 516.305664062 755 503.305664062 755 c 128,-1,10
491 0 m 1,18,-1
 451.483398438 223 l 1,19,-1
 125.483398438 223 l 1,20,-1
 -17 0 l 1,21,-1
 -49 0 l 1,22,-1
 372.373046875 660 l 1,23,-1
 407.373046875 660 l 1,24,-1
 523 0 l 1,25,-1
 491 0 l 1,18,-1
142.716796875 250 m 1,26,-1
 446.716796875 250 l 1,27,-1
 389.287109375 573 l 1,28,-1
 382.215820312 629 l 1,29,-1
 349.749023438 575 l 1,30,-1
 142.716796875 250 l 1,26,-1
EndSplineSet
Substitution2: "Single Substitution lookup 56 subtable" Adieresis.swsh
Substitution2: "'titl' Titling lookup 41 subtable" Adieresis.titl
Substitution2: "'swsh' Swash lookup 32 subtable" Adieresis.swsh
Substitution2: "'c2sc' Capitals to Small Capitals lookup 11 subtable" adieresis.sc
AlternateSubs2: "'aalt' Access All Alternates lookup 1 subtable" adieresis.sc Adieresis.swsh Adieresis.titl
EndChar

StartChar: Aring
Encoding: 197 197 135
Width: 602
GlyphClass: 2
Flags: W
LayerCount: 2
Fore
SplineSet
491 0 m 1,0,-1
 451.483398438 223 l 1,1,-1
 125.483398438 223 l 1,2,-1
 -17 0 l 1,3,-1
 -49 0 l 1,4,-1
 361.217773438 642 l 1,5,6
 334.833007812 649 334.833007812 649 324.06640625 669.5 c 128,-1,7
 313.298828125 690 313.298828125 690 320.224609375 720 c 0,8,9
 328.536132812 756 328.536132812 756 356.615234375 778 c 128,-1,10
 384.694335938 800 384.694335938 800 421.694335938 800 c 0,11,12
 459.694335938 800 459.694335938 800 477.615234375 778 c 128,-1,13
 495.536132812 756 495.536132812 756 487.224609375 720 c 0,14,15
 480.298828125 690 480.298828125 690 459.56640625 669.5 c 128,-1,16
 438.833007812 649 438.833007812 649 410.217773438 642 c 1,17,-1
 523 0 l 1,18,-1
 491 0 l 1,0,-1
344.224609375 720 m 128,-1,20
 338.22265625 694 338.22265625 694 350.913085938 677.5 c 128,-1,21
 363.603515625 661 363.603515625 661 389.603515625 661 c 0,22,23
 416.603515625 661 416.603515625 661 436.413085938 677.5 c 128,-1,24
 456.22265625 694 456.22265625 694 462.224609375 720 c 128,-1,25
 468.227539062 746 468.227539062 746 456.037109375 762.5 c 128,-1,26
 443.846679688 779 443.846679688 779 416.846679688 779 c 0,27,28
 390.846679688 779 390.846679688 779 370.537109375 762.5 c 128,-1,19
 350.227539062 746 350.227539062 746 344.224609375 720 c 128,-1,20
142.716796875 250 m 1,29,-1
 446.716796875 250 l 1,30,-1
 389.287109375 573 l 1,31,-1
 382.215820312 629 l 1,32,-1
 349.749023438 575 l 1,33,-1
 142.716796875 250 l 1,29,-1
EndSplineSet
Substitution2: "'c2sc' Capitals to Small Capitals lookup 11 subtable" aring.sc
Substitution2: "'aalt' Access All Alternates lookup 0 subtable" aring.sc
EndChar

StartChar: AE
Encoding: 198 198 136
Width: 900
GlyphClass: 2
Flags: W
LayerCount: 2
Fore
SplineSet
413.233398438 27 m 1,0,-1
 807.233398438 27 l 1,1,-1
 801 0 l 1,2,-1
 377 0 l 1,3,-1
 433.5625 245 l 1,4,-1
 175.5625 245 l 1,5,-1
 -32 0 l 1,6,-1
 -69 0 l 1,7,-1
 496.373046875 660 l 1,8,-1
 938.373046875 660 l 1,9,-1
 932.139648438 633 l 1,10,-1
 553.139648438 633 l 1,11,-1
 487.573242188 349 l 1,12,-1
 787.573242188 349 l 1,13,-1
 781.108398438 321 l 1,14,-1
 481.108398438 321 l 1,15,-1
 413.233398438 27 l 1,0,-1
198.795898438 272 m 1,16,-1
 439.795898438 272 l 1,17,-1
 523.139648438 633 l 1,18,-1
 504.139648438 633 l 1,19,-1
 198.795898438 272 l 1,16,-1
EndSplineSet
Substitution2: "'c2sc' Capitals to Small Capitals lookup 11 subtable" ae.sc
Substitution2: "'aalt' Access All Alternates lookup 0 subtable" ae.sc
EndChar

StartChar: Ccedilla
Encoding: 199 199 137
Width: 657
GlyphClass: 2
Flags: W
LayerCount: 2
Fore
SplineSet
591.32421875 166 m 1,0,1
 546.854492188 86 546.854492188 86 472.734375 40 c 128,-1,2
 398.615234375 -6 398.615234375 -6 306.69140625 -10 c 1,3,4
 369.995117188 -52 369.995117188 -52 355.219726562 -116 c 0,5,6
 346.215820312 -155 346.215820312 -155 314.443359375 -180 c 128,-1,7
 282.671875 -205 282.671875 -205 240.671875 -205 c 0,8,9
 176.671875 -205 176.671875 -205 153.137695312 -164 c 1,10,-1
 169.986328125 -143 l 1,11,12
 191.982421875 -182 191.982421875 -182 243.982421875 -182 c 0,13,14
 273.982421875 -182 273.982421875 -182 297.868164062 -163 c 128,-1,15
 321.754882812 -144 321.754882812 -144 328.680664062 -114 c 128,-1,16
 335.607421875 -84 335.607421875 -84 322.532226562 -60.5 c 128,-1,17
 309.458007812 -37 309.458007812 -37 266.921875 -9 c 1,18,19
 143.76953125 -1 143.76953125 -1 90.2783203125 90 c 128,-1,20
 36.787109375 181 36.787109375 181 71.1865234375 330 c 0,21,22
 107.202148438 486 107.202148438 486 208.94140625 578 c 128,-1,23
 310.681640625 670 310.681640625 670 444.681640625 670 c 0,24,25
 647.681640625 670 647.681640625 670 661.434570312 500 c 1,26,-1
 629.432617188 487 l 1,27,28
 617.448242188 643 617.448242188 643 439.448242188 643 c 0,29,30
 319.448242188 643 319.448242188 643 227.439453125 558.5 c 128,-1,31
 135.431640625 474 135.431640625 474 102.186523438 330 c 128,-1,32
 68.94140625 186 68.94140625 186 121.93359375 101.5 c 128,-1,33
 174.924804688 17 174.924804688 17 293.924804688 17 c 0,34,35
 382.924804688 17 382.924804688 17 453.62109375 59 c 128,-1,36
 524.317382812 101 524.317382812 101 563.86328125 177 c 1,37,-1
 591.32421875 166 l 1,0,1
EndSplineSet
Substitution2: "'c2sc' Capitals to Small Capitals lookup 11 subtable" ccedilla.sc
Substitution2: "'aalt' Access All Alternates lookup 0 subtable" ccedilla.sc
EndChar

StartChar: Egrave
Encoding: 200 200 138
Width: 595
GlyphClass: 2
Flags: W
AnchorPoint: "Anchor-0" 258 0 basechar 0
LayerCount: 2
Fore
SplineSet
453.53515625 743 m 1,0,-1
 427.53515625 743 l 1,1,-1
 381.703125 891 l 1,2,-1
 416.703125 891 l 1,3,-1
 453.53515625 743 l 1,0,-1
73.2333984375 27 m 1,4,-1
 502.233398438 27 l 1,5,-1
 496 0 l 1,6,-1
 37 0 l 1,7,-1
 189.373046875 660 l 1,8,-1
 632.373046875 660 l 1,9,-1
 626.139648438 633 l 1,10,-1
 213.139648438 633 l 1,11,-1
 147.803710938 350 l 1,12,-1
 476.803710938 350 l 1,13,-1
 470.5703125 323 l 1,14,-1
 141.5703125 323 l 1,15,-1
 73.2333984375 27 l 1,4,-1
EndSplineSet
Substitution2: "Single Substitution lookup 57 subtable" Egrave.swsh.001
Substitution2: "Single Substitution lookup 56 subtable" Egrave.swsh
AlternateSubs2: "'swsh' Swash lookup 33 subtable" Egrave.swsh Egrave.swsh.001
Substitution2: "'c2sc' Capitals to Small Capitals lookup 11 subtable" egrave.sc
AlternateSubs2: "'aalt' Access All Alternates lookup 1 subtable" egrave.sc Egrave.swsh Egrave.swsh.001
EndChar

StartChar: Eacute
Encoding: 201 201 139
Width: 595
GlyphClass: 2
Flags: W
AnchorPoint: "Anchor-0" 258 0 basechar 0
LayerCount: 2
Fore
SplineSet
551.703125 891 m 1,0,-1
 437.53515625 743 l 1,1,-1
 411.53515625 743 l 1,2,-1
 516.703125 891 l 1,3,-1
 551.703125 891 l 1,0,-1
73.2333984375 27 m 1,4,-1
 502.233398438 27 l 1,5,-1
 496 0 l 1,6,-1
 37 0 l 1,7,-1
 189.373046875 660 l 1,8,-1
 632.373046875 660 l 1,9,-1
 626.139648438 633 l 1,10,-1
 213.139648438 633 l 1,11,-1
 147.803710938 350 l 1,12,-1
 476.803710938 350 l 1,13,-1
 470.5703125 323 l 1,14,-1
 141.5703125 323 l 1,15,-1
 73.2333984375 27 l 1,4,-1
EndSplineSet
Substitution2: "Single Substitution lookup 57 subtable" Eacute.swsh.001
Substitution2: "Single Substitution lookup 56 subtable" Eacute.swsh
AlternateSubs2: "'swsh' Swash lookup 33 subtable" Eacute.swsh Eacute.swsh.001
Substitution2: "'c2sc' Capitals to Small Capitals lookup 11 subtable" eacute.sc
AlternateSubs2: "'aalt' Access All Alternates lookup 1 subtable" eacute.sc Eacute.swsh Eacute.swsh.001
EndChar

StartChar: Ecircumflex
Encoding: 202 202 140
Width: 595
GlyphClass: 2
Flags: W
AnchorPoint: "Anchor-0" 258 0 basechar 0
LayerCount: 2
Fore
SplineSet
458.393554688 868 m 1,0,-1
 331.303710938 742 l 1,1,-1
 301.303710938 742 l 1,2,-1
 445.2421875 889 l 1,3,-1
 481.2421875 889 l 1,4,-1
 557.303710938 742 l 1,5,-1
 528.303710938 742 l 1,6,-1
 458.393554688 868 l 1,0,-1
73.2333984375 27 m 1,7,-1
 502.233398438 27 l 1,8,-1
 496 0 l 1,9,-1
 37 0 l 1,10,-1
 189.373046875 660 l 1,11,-1
 632.373046875 660 l 1,12,-1
 626.139648438 633 l 1,13,-1
 213.139648438 633 l 1,14,-1
 147.803710938 350 l 1,15,-1
 476.803710938 350 l 1,16,-1
 470.5703125 323 l 1,17,-1
 141.5703125 323 l 1,18,-1
 73.2333984375 27 l 1,7,-1
EndSplineSet
Substitution2: "Single Substitution lookup 57 subtable" Ecircumflex.swsh.001
Substitution2: "Single Substitution lookup 56 subtable" Ecircumflex.swsh
AlternateSubs2: "'swsh' Swash lookup 33 subtable" Ecircumflex.swsh Ecircumflex.swsh.001
Substitution2: "'c2sc' Capitals to Small Capitals lookup 11 subtable" ecircumflex.sc
AlternateSubs2: "'aalt' Access All Alternates lookup 1 subtable" ecircumflex.sc Ecircumflex.swsh Ecircumflex.swsh.001
EndChar

StartChar: Edieresis
Encoding: 203 203 141
Width: 595
GlyphClass: 2
Flags: W
AnchorPoint: "Anchor-0" 258 0 basechar 0
LayerCount: 2
Fore
SplineSet
338.305664062 755 m 128,-1,1
 325.305664062 755 325.305664062 755 318.65234375 763 c 128,-1,2
 311.999023438 771 311.999023438 771 315.000976562 784 c 128,-1,3
 318.001953125 797 318.001953125 797 328.463867188 805.5 c 128,-1,4
 338.926757812 814 338.926757812 814 351.926757812 814 c 0,5,6
 365.926757812 814 365.926757812 814 372.080078125 806 c 128,-1,7
 378.232421875 798 378.232421875 798 375.000976562 784 c 0,8,9
 371.999023438 771 371.999023438 771 361.65234375 763 c 128,-1,0
 351.305664062 755 351.305664062 755 338.305664062 755 c 128,-1,1
524.305664062 755 m 128,-1,11
 511.305664062 755 511.305664062 755 505.15234375 763 c 128,-1,12
 498.999023438 771 498.999023438 771 502.000976562 784 c 128,-1,13
 505.001953125 797 505.001953125 797 514.963867188 805.5 c 128,-1,14
 524.926757812 814 524.926757812 814 537.926757812 814 c 0,15,16
 551.926757812 814 551.926757812 814 558.080078125 806 c 128,-1,17
 564.232421875 798 564.232421875 798 561.000976562 784 c 0,18,19
 557.999023438 771 557.999023438 771 547.65234375 763 c 128,-1,10
 537.305664062 755 537.305664062 755 524.305664062 755 c 128,-1,11
73.2333984375 27 m 1,20,-1
 502.233398438 27 l 1,21,-1
 496 0 l 1,22,-1
 37 0 l 1,23,-1
 189.373046875 660 l 1,24,-1
 632.373046875 660 l 1,25,-1
 626.139648438 633 l 1,26,-1
 213.139648438 633 l 1,27,-1
 147.803710938 350 l 1,28,-1
 476.803710938 350 l 1,29,-1
 470.5703125 323 l 1,30,-1
 141.5703125 323 l 1,31,-1
 73.2333984375 27 l 1,20,-1
EndSplineSet
Substitution2: "Single Substitution lookup 57 subtable" Edieresis.swsh.001
Substitution2: "Single Substitution lookup 56 subtable" Edieresis.swsh
AlternateSubs2: "'swsh' Swash lookup 33 subtable" Edieresis.swsh Edieresis.swsh.001
Substitution2: "'c2sc' Capitals to Small Capitals lookup 11 subtable" edieresis.sc
AlternateSubs2: "'aalt' Access All Alternates lookup 1 subtable" edieresis.sc Edieresis.swsh Edieresis.swsh.001
EndChar

StartChar: Igrave
Encoding: 204 204 142
Width: 232
GlyphClass: 2
Flags: W
LayerCount: 2
Fore
SplineSet
192.703125 891 m 1,0,-1
 229.53515625 743 l 1,1,-1
 203.53515625 743 l 1,2,-1
 157.703125 891 l 1,3,-1
 192.703125 891 l 1,0,-1
219.373046875 660 m 1,4,-1
 67 0 l 1,5,-1
 37 0 l 1,6,-1
 189.373046875 660 l 1,7,-1
 219.373046875 660 l 1,4,-1
EndSplineSet
Substitution2: "'c2sc' Capitals to Small Capitals lookup 11 subtable" igrave.sc
Substitution2: "'aalt' Access All Alternates lookup 0 subtable" igrave.sc
EndChar

StartChar: Iacute
Encoding: 205 205 143
Width: 232
GlyphClass: 2
Flags: W
LayerCount: 2
Fore
SplineSet
318.703125 891 m 1,0,-1
 353.703125 891 l 1,1,-1
 239.53515625 743 l 1,2,-1
 213.53515625 743 l 1,3,-1
 318.703125 891 l 1,0,-1
219.373046875 660 m 1,4,-1
 67 0 l 1,5,-1
 37 0 l 1,6,-1
 189.373046875 660 l 1,7,-1
 219.373046875 660 l 1,4,-1
EndSplineSet
Substitution2: "'c2sc' Capitals to Small Capitals lookup 11 subtable" iacute.sc
Substitution2: "'aalt' Access All Alternates lookup 0 subtable" iacute.sc
EndChar

StartChar: Icircumflex
Encoding: 206 206 144
Width: 232
GlyphClass: 2
Flags: W
LayerCount: 2
Fore
SplineSet
351.303710938 742 m 1,0,-1
 322.303710938 742 l 1,1,-1
 252.393554688 868 l 1,2,-1
 125.303710938 742 l 1,3,-1
 95.3037109375 742 l 1,4,-1
 239.2421875 889 l 1,5,-1
 275.2421875 889 l 1,6,-1
 351.303710938 742 l 1,0,-1
219.373046875 660 m 1,7,-1
 67 0 l 1,8,-1
 37 0 l 1,9,-1
 189.373046875 660 l 1,10,-1
 219.373046875 660 l 1,7,-1
EndSplineSet
Substitution2: "'c2sc' Capitals to Small Capitals lookup 11 subtable" icircumflex.sc
Substitution2: "'aalt' Access All Alternates lookup 0 subtable" icircumflex.sc
EndChar

StartChar: Idieresis
Encoding: 207 207 145
Width: 232
GlyphClass: 2
Flags: W
LayerCount: 2
Fore
SplineSet
174.926757812 814 m 128,-1,1
 187.926757812 814 187.926757812 814 194.580078125 806 c 128,-1,2
 201.232421875 798 201.232421875 798 198.000976562 784 c 0,3,4
 194.999023438 771 194.999023438 771 184.65234375 763 c 128,-1,5
 174.305664062 755 174.305664062 755 161.305664062 755 c 128,-1,6
 148.305664062 755 148.305664062 755 141.65234375 763 c 128,-1,7
 134.999023438 771 134.999023438 771 138.000976562 784 c 0,8,9
 141.232421875 798 141.232421875 798 151.580078125 806 c 128,-1,0
 161.926757812 814 161.926757812 814 174.926757812 814 c 128,-1,1
304.926757812 814 m 128,-1,11
 317.926757812 814 317.926757812 814 324.463867188 805.5 c 128,-1,12
 331.001953125 797 331.001953125 797 328.000976562 784 c 128,-1,13
 324.999023438 771 324.999023438 771 314.65234375 763 c 128,-1,14
 304.305664062 755 304.305664062 755 291.305664062 755 c 128,-1,15
 278.305664062 755 278.305664062 755 271.65234375 763 c 128,-1,16
 264.999023438 771 264.999023438 771 268.000976562 784 c 0,17,18
 271.232421875 798 271.232421875 798 281.580078125 806 c 128,-1,10
 291.926757812 814 291.926757812 814 304.926757812 814 c 128,-1,11
219.373046875 660 m 1,19,-1
 67 0 l 1,20,-1
 37 0 l 1,21,-1
 189.373046875 660 l 1,22,-1
 219.373046875 660 l 1,19,-1
EndSplineSet
Substitution2: "'c2sc' Capitals to Small Capitals lookup 11 subtable" idieresis.sc
Substitution2: "'aalt' Access All Alternates lookup 0 subtable" idieresis.sc
EndChar

StartChar: Eth
Encoding: 208 208 146
Width: 701
GlyphClass: 2
Flags: W
LayerCount: 2
Fore
SplineSet
404.373046875 660 m 2,0,1
 564.373046875 660 564.373046875 660 628.826171875 577.5 c 128,-1,2
 693.279296875 495 693.279296875 495 657.033203125 338 c 0,3,4
 618.708984375 172 618.708984375 172 515.354492188 86 c 128,-1,5
 412 0 412 0 252 0 c 2,6,-1
 47 0 l 1,7,-1
 121.33984375 322 l 1,8,-1
 20.33984375 322 l 1,9,-1
 25.880859375 346 l 1,10,-1
 126.880859375 346 l 1,11,-1
 199.373046875 660 l 1,12,-1
 404.373046875 660 l 2,0,1
260.233398438 27 m 2,13,14
 404.233398438 27 404.233398438 27 497.587890625 106.5 c 128,-1,15
 590.94140625 186 590.94140625 186 626.033203125 338 c 0,16,17
 659.278320312 482 659.278320312 482 601.708984375 557.5 c 128,-1,18
 544.139648438 633 544.139648438 633 400.139648438 633 c 2,19,-1
 223.139648438 633 l 1,20,-1
 156.880859375 346 l 1,21,-1
 361.880859375 346 l 1,22,-1
 356.33984375 322 l 1,23,-1
 151.33984375 322 l 1,24,-1
 83.2333984375 27 l 1,25,-1
 260.233398438 27 l 2,13,14
EndSplineSet
Substitution2: "'c2sc' Capitals to Small Capitals lookup 11 subtable" eth.sc
Substitution2: "'aalt' Access All Alternates lookup 0 subtable" eth.sc
EndChar

StartChar: Ntilde
Encoding: 209 209 147
Width: 703
GlyphClass: 2
Flags: W
AnchorPoint: "Anchor-0" 294 0 basechar 0
LayerCount: 2
Fore
SplineSet
653.23828125 850 m 1,0,1
 634.15625 802 634.15625 802 607.346679688 779 c 128,-1,2
 580.536132812 756 580.536132812 756 540.536132812 756 c 0,3,4
 499.536132812 756 499.536132812 756 470.385742188 790 c 128,-1,5
 441.235351562 824 441.235351562 824 411.235351562 824 c 128,-1,6
 381.235351562 824 381.235351562 824 363.42578125 807.5 c 128,-1,7
 345.6171875 791 345.6171875 791 330.305664062 755 c 1,8,-1
 305.305664062 755 l 1,9,10
 324.38671875 803 324.38671875 803 351.197265625 826 c 128,-1,11
 378.006835938 849 378.006835938 849 418.006835938 849 c 128,-1,12
 458.006835938 849 458.006835938 849 487.157226562 815 c 128,-1,13
 516.307617188 781 516.307617188 781 545.307617188 781 c 0,14,15
 575.307617188 781 575.307617188 781 593.6171875 797.5 c 128,-1,16
 611.926757812 814 611.926757812 814 627.23828125 850 c 1,17,-1
 653.23828125 850 l 1,0,1
690.373046875 660 m 1,18,-1
 538 0 l 1,19,-1
 499 0 l 1,20,-1
 231.364257812 569 l 1,21,-1
 209.985351562 628 l 1,22,-1
 208.985351562 628 l 1,23,-1
 195.516601562 561 l 1,24,-1
 66 0 l 1,25,-1
 37 0 l 1,26,-1
 189.373046875 660 l 1,27,-1
 228.373046875 660 l 1,28,-1
 495.008789062 91 l 1,29,-1
 517.387695312 32 l 1,30,-1
 531.85546875 99 l 1,31,-1
 661.373046875 660 l 1,32,-1
 690.373046875 660 l 1,18,-1
EndSplineSet
Substitution2: "Single Substitution lookup 57 subtable" Ntilde.swsh
Substitution2: "'swsh' Swash lookup 36 subtable" Ntilde.swsh
Substitution2: "'c2sc' Capitals to Small Capitals lookup 11 subtable" ntilde.sc
AlternateSubs2: "'aalt' Access All Alternates lookup 1 subtable" ntilde.sc Ntilde.swsh
EndChar

StartChar: Ograve
Encoding: 210 210 148
Width: 721
GlyphClass: 2
Flags: W
LayerCount: 2
Fore
SplineSet
437.703125 891 m 1,0,-1
 474.53515625 743 l 1,1,-1
 448.53515625 743 l 1,2,-1
 402.703125 891 l 1,3,-1
 437.703125 891 l 1,0,-1
451.681640625 670 m 128,-1,5
 590.681640625 670 590.681640625 670 651.057617188 578.5 c 128,-1,6
 711.432617188 487 711.432617188 487 675.186523438 330 c 128,-1,7
 638.940429688 173 638.940429688 173 536.315429688 81.5 c 128,-1,8
 433.69140625 -10 433.69140625 -10 294.69140625 -10 c 128,-1,9
 155.69140625 -10 155.69140625 -10 95.3154296875 81.5 c 128,-1,10
 34.9404296875 173 34.9404296875 173 71.1865234375 330 c 128,-1,11
 107.432617188 487 107.432617188 487 210.057617188 578.5 c 128,-1,4
 312.681640625 670 312.681640625 670 451.681640625 670 c 128,-1,5
445.448242188 643 m 128,-1,13
 320.448242188 643 320.448242188 643 228.055664062 559 c 128,-1,14
 135.662109375 475 135.662109375 475 102.186523438 330 c 128,-1,15
 68.7109375 185 68.7109375 185 122.317382812 101 c 128,-1,16
 175.924804688 17 175.924804688 17 300.924804688 17 c 128,-1,17
 425.924804688 17 425.924804688 17 518.317382812 101 c 128,-1,18
 610.7109375 185 610.7109375 185 644.186523438 330 c 128,-1,19
 677.662109375 475 677.662109375 475 624.055664062 559 c 128,-1,12
 570.448242188 643 570.448242188 643 445.448242188 643 c 128,-1,13
EndSplineSet
Substitution2: "'c2sc' Capitals to Small Capitals lookup 11 subtable" ograve.sc
Substitution2: "'aalt' Access All Alternates lookup 0 subtable" ograve.sc
EndChar

StartChar: Oacute
Encoding: 211 211 149
Width: 721
GlyphClass: 2
Flags: W
LayerCount: 2
Fore
SplineSet
563.703125 891 m 1,0,-1
 598.703125 891 l 1,1,-1
 484.53515625 743 l 1,2,-1
 458.53515625 743 l 1,3,-1
 563.703125 891 l 1,0,-1
451.681640625 670 m 128,-1,5
 590.681640625 670 590.681640625 670 651.057617188 578.5 c 128,-1,6
 711.432617188 487 711.432617188 487 675.186523438 330 c 128,-1,7
 638.940429688 173 638.940429688 173 536.315429688 81.5 c 128,-1,8
 433.69140625 -10 433.69140625 -10 294.69140625 -10 c 128,-1,9
 155.69140625 -10 155.69140625 -10 95.3154296875 81.5 c 128,-1,10
 34.9404296875 173 34.9404296875 173 71.1865234375 330 c 128,-1,11
 107.432617188 487 107.432617188 487 210.057617188 578.5 c 128,-1,4
 312.681640625 670 312.681640625 670 451.681640625 670 c 128,-1,5
445.448242188 643 m 128,-1,13
 320.448242188 643 320.448242188 643 228.055664062 559 c 128,-1,14
 135.662109375 475 135.662109375 475 102.186523438 330 c 128,-1,15
 68.7109375 185 68.7109375 185 122.317382812 101 c 128,-1,16
 175.924804688 17 175.924804688 17 300.924804688 17 c 128,-1,17
 425.924804688 17 425.924804688 17 518.317382812 101 c 128,-1,18
 610.7109375 185 610.7109375 185 644.186523438 330 c 128,-1,19
 677.662109375 475 677.662109375 475 624.055664062 559 c 128,-1,12
 570.448242188 643 570.448242188 643 445.448242188 643 c 128,-1,13
EndSplineSet
Substitution2: "'c2sc' Capitals to Small Capitals lookup 11 subtable" oacute.sc
Substitution2: "'aalt' Access All Alternates lookup 0 subtable" oacute.sc
EndChar

StartChar: Ocircumflex
Encoding: 212 212 150
Width: 721
GlyphClass: 2
Flags: W
LayerCount: 2
Fore
SplineSet
596.303710938 742 m 1,0,-1
 567.303710938 742 l 1,1,-1
 497.393554688 868 l 1,2,-1
 370.303710938 742 l 1,3,-1
 340.303710938 742 l 1,4,-1
 484.2421875 889 l 1,5,-1
 520.2421875 889 l 1,6,-1
 596.303710938 742 l 1,0,-1
451.681640625 670 m 128,-1,8
 590.681640625 670 590.681640625 670 651.057617188 578.5 c 128,-1,9
 711.432617188 487 711.432617188 487 675.186523438 330 c 128,-1,10
 638.940429688 173 638.940429688 173 536.315429688 81.5 c 128,-1,11
 433.69140625 -10 433.69140625 -10 294.69140625 -10 c 128,-1,12
 155.69140625 -10 155.69140625 -10 95.3154296875 81.5 c 128,-1,13
 34.9404296875 173 34.9404296875 173 71.1865234375 330 c 128,-1,14
 107.432617188 487 107.432617188 487 210.057617188 578.5 c 128,-1,7
 312.681640625 670 312.681640625 670 451.681640625 670 c 128,-1,8
445.448242188 643 m 128,-1,16
 320.448242188 643 320.448242188 643 228.055664062 559 c 128,-1,17
 135.662109375 475 135.662109375 475 102.186523438 330 c 128,-1,18
 68.7109375 185 68.7109375 185 122.317382812 101 c 128,-1,19
 175.924804688 17 175.924804688 17 300.924804688 17 c 128,-1,20
 425.924804688 17 425.924804688 17 518.317382812 101 c 128,-1,21
 610.7109375 185 610.7109375 185 644.186523438 330 c 128,-1,22
 677.662109375 475 677.662109375 475 624.055664062 559 c 128,-1,15
 570.448242188 643 570.448242188 643 445.448242188 643 c 128,-1,16
EndSplineSet
Substitution2: "'c2sc' Capitals to Small Capitals lookup 11 subtable" ocircumflex.sc
Substitution2: "'aalt' Access All Alternates lookup 0 subtable" ocircumflex.sc
EndChar

StartChar: Otilde
Encoding: 213 213 151
Width: 721
GlyphClass: 2
Flags: W
LayerCount: 2
Fore
SplineSet
657.23828125 850 m 1,0,1
 638.15625 802 638.15625 802 611.346679688 779 c 128,-1,2
 584.536132812 756 584.536132812 756 544.536132812 756 c 0,3,4
 503.536132812 756 503.536132812 756 474.385742188 790 c 128,-1,5
 445.235351562 824 445.235351562 824 415.235351562 824 c 128,-1,6
 385.235351562 824 385.235351562 824 367.42578125 807.5 c 128,-1,7
 349.6171875 791 349.6171875 791 334.305664062 755 c 1,8,-1
 309.305664062 755 l 1,9,10
 328.38671875 803 328.38671875 803 355.197265625 826 c 128,-1,11
 382.006835938 849 382.006835938 849 422.006835938 849 c 128,-1,12
 462.006835938 849 462.006835938 849 491.157226562 815 c 128,-1,13
 520.307617188 781 520.307617188 781 549.307617188 781 c 0,14,15
 579.307617188 781 579.307617188 781 597.6171875 797.5 c 128,-1,16
 615.926757812 814 615.926757812 814 631.23828125 850 c 1,17,-1
 657.23828125 850 l 1,0,1
451.681640625 670 m 128,-1,19
 590.681640625 670 590.681640625 670 651.057617188 578.5 c 128,-1,20
 711.432617188 487 711.432617188 487 675.186523438 330 c 128,-1,21
 638.940429688 173 638.940429688 173 536.315429688 81.5 c 128,-1,22
 433.69140625 -10 433.69140625 -10 294.69140625 -10 c 128,-1,23
 155.69140625 -10 155.69140625 -10 95.3154296875 81.5 c 128,-1,24
 34.9404296875 173 34.9404296875 173 71.1865234375 330 c 128,-1,25
 107.432617188 487 107.432617188 487 210.057617188 578.5 c 128,-1,18
 312.681640625 670 312.681640625 670 451.681640625 670 c 128,-1,19
445.448242188 643 m 128,-1,27
 320.448242188 643 320.448242188 643 228.055664062 559 c 128,-1,28
 135.662109375 475 135.662109375 475 102.186523438 330 c 128,-1,29
 68.7109375 185 68.7109375 185 122.317382812 101 c 128,-1,30
 175.924804688 17 175.924804688 17 300.924804688 17 c 128,-1,31
 425.924804688 17 425.924804688 17 518.317382812 101 c 128,-1,32
 610.7109375 185 610.7109375 185 644.186523438 330 c 128,-1,33
 677.662109375 475 677.662109375 475 624.055664062 559 c 128,-1,26
 570.448242188 643 570.448242188 643 445.448242188 643 c 128,-1,27
EndSplineSet
Substitution2: "'c2sc' Capitals to Small Capitals lookup 11 subtable" otilde.sc
Substitution2: "'aalt' Access All Alternates lookup 0 subtable" otilde.sc
EndChar

StartChar: Odieresis
Encoding: 214 214 152
Width: 721
GlyphClass: 2
Flags: W
LayerCount: 2
Fore
SplineSet
390.926757812 814 m 128,-1,1
 403.926757812 814 403.926757812 814 410.580078125 806 c 128,-1,2
 417.232421875 798 417.232421875 798 414.000976562 784 c 0,3,4
 410.999023438 771 410.999023438 771 400.65234375 763 c 128,-1,5
 390.305664062 755 390.305664062 755 377.305664062 755 c 128,-1,6
 364.305664062 755 364.305664062 755 357.65234375 763 c 128,-1,7
 350.999023438 771 350.999023438 771 354.000976562 784 c 128,-1,8
 357.001953125 797 357.001953125 797 367.463867188 805.5 c 128,-1,0
 377.926757812 814 377.926757812 814 390.926757812 814 c 128,-1,1
576.926757812 814 m 128,-1,10
 589.926757812 814 589.926757812 814 596.580078125 806 c 128,-1,11
 603.232421875 798 603.232421875 798 600.000976562 784 c 0,12,13
 596.999023438 771 596.999023438 771 586.65234375 763 c 128,-1,14
 576.305664062 755 576.305664062 755 563.305664062 755 c 128,-1,15
 550.305664062 755 550.305664062 755 544.15234375 763 c 128,-1,16
 537.999023438 771 537.999023438 771 541.000976562 784 c 128,-1,17
 544.001953125 797 544.001953125 797 553.963867188 805.5 c 128,-1,9
 563.926757812 814 563.926757812 814 576.926757812 814 c 128,-1,10
451.681640625 670 m 128,-1,19
 590.681640625 670 590.681640625 670 651.057617188 578.5 c 128,-1,20
 711.432617188 487 711.432617188 487 675.186523438 330 c 128,-1,21
 638.940429688 173 638.940429688 173 536.315429688 81.5 c 128,-1,22
 433.69140625 -10 433.69140625 -10 294.69140625 -10 c 128,-1,23
 155.69140625 -10 155.69140625 -10 95.3154296875 81.5 c 128,-1,24
 34.9404296875 173 34.9404296875 173 71.1865234375 330 c 128,-1,25
 107.432617188 487 107.432617188 487 210.057617188 578.5 c 128,-1,18
 312.681640625 670 312.681640625 670 451.681640625 670 c 128,-1,19
445.448242188 643 m 128,-1,27
 320.448242188 643 320.448242188 643 228.055664062 559 c 128,-1,28
 135.662109375 475 135.662109375 475 102.186523438 330 c 128,-1,29
 68.7109375 185 68.7109375 185 122.317382812 101 c 128,-1,30
 175.924804688 17 175.924804688 17 300.924804688 17 c 128,-1,31
 425.924804688 17 425.924804688 17 518.317382812 101 c 128,-1,32
 610.7109375 185 610.7109375 185 644.186523438 330 c 128,-1,33
 677.662109375 475 677.662109375 475 624.055664062 559 c 128,-1,26
 570.448242188 643 570.448242188 643 445.448242188 643 c 128,-1,27
EndSplineSet
Substitution2: "'titl' Titling lookup 41 subtable" Odieresis.titl
Substitution2: "'c2sc' Capitals to Small Capitals lookup 11 subtable" odieresis.sc
AlternateSubs2: "'aalt' Access All Alternates lookup 1 subtable" odieresis.sc Odieresis.titl
EndChar

StartChar: multiply
Encoding: 215 215 153
Width: 604
GlyphClass: 2
Flags: W
LayerCount: 2
Fore
SplineSet
535.5859375 479 m 1,0,-1
 332.26171875 313 l 1,1,-1
 459.168945312 148 l 1,2,-1
 432.08984375 126 l 1,3,-1
 305.182617188 291 l 1,4,-1
 101.08984375 126 l 1,5,-1
 85.1689453125 148 l 1,6,-1
 288.26171875 313 l 1,7,-1
 161.5859375 479 l 1,8,-1
 187.665039062 501 l 1,9,-1
 315.340820312 335 l 1,10,-1
 518.665039062 501 l 1,11,-1
 535.5859375 479 l 1,0,-1
EndSplineSet
EndChar

StartChar: Oslash
Encoding: 216 216 154
Width: 721
GlyphClass: 2
Flags: W
LayerCount: 2
Fore
SplineSet
640.135742188 594 m 1,0,1
 714.665039062 501 714.665039062 501 675.186523438 330 c 0,2,3
 638.940429688 173 638.940429688 173 536.315429688 81.5 c 128,-1,4
 433.69140625 -10 433.69140625 -10 294.69140625 -10 c 0,5,6
 184.69140625 -10 184.69140625 -10 122.3125 49 c 1,7,-1
 46.6123046875 -32 l 1,8,-1
 14.6123046875 -32 l 1,9,-1
 107.006835938 65 l 1,10,11
 31.24609375 157 31.24609375 157 71.1865234375 330 c 0,12,13
 107.432617188 487 107.432617188 487 210.057617188 578.5 c 128,-1,14
 312.681640625 670 312.681640625 670 451.681640625 670 c 0,15,16
 563.681640625 670 563.681640625 670 624.830078125 610 c 1,17,-1
 698.836914062 688 l 1,18,-1
 729.836914062 688 l 1,19,-1
 640.135742188 594 l 1,0,1
102.186523438 330 m 0,20,21
 66.40234375 175 66.40234375 175 130.546875 89 c 1,22,-1
 602.2890625 586 l 1,23,24
 546.448242188 643 546.448242188 643 445.448242188 643 c 0,25,26
 320.448242188 643 320.448242188 643 228.055664062 559 c 128,-1,27
 135.662109375 475 135.662109375 475 102.186523438 330 c 0,20,21
300.924804688 17 m 0,28,29
 425.924804688 17 425.924804688 17 518.317382812 101 c 128,-1,30
 610.7109375 185 610.7109375 185 644.186523438 330 c 0,31,32
 679.740234375 484 679.740234375 484 616.364257812 569 c 1,33,-1
 144.853515625 73 l 1,34,35
 199.924804688 17 199.924804688 17 300.924804688 17 c 0,28,29
EndSplineSet
Substitution2: "'c2sc' Capitals to Small Capitals lookup 11 subtable" oslash.sc
Substitution2: "'aalt' Access All Alternates lookup 0 subtable" oslash.sc
EndChar

StartChar: Ugrave
Encoding: 217 217 155
Width: 689
GlyphClass: 2
Flags: W
LayerCount: 2
Fore
SplineSet
436.703125 891 m 1,0,-1
 473.53515625 743 l 1,1,-1
 447.53515625 743 l 1,2,-1
 401.703125 891 l 1,3,-1
 436.703125 891 l 1,0,-1
684.373046875 660 m 1,4,-1
 586.715820312 237 l 2,5,6
 559.2421875 118 559.2421875 118 478.466796875 54 c 128,-1,7
 397.69140625 -10 397.69140625 -10 277.69140625 -10 c 0,8,9
 158.69140625 -10 158.69140625 -10 107.466796875 54 c 128,-1,10
 56.2421875 118 56.2421875 118 83.7158203125 237 c 2,11,-1
 181.373046875 660 l 1,12,-1
 211.373046875 660 l 1,13,-1
 114.870117188 242 l 2,14,15
 89.9365234375 134 89.9365234375 134 133.930664062 75.5 c 128,-1,16
 177.924804688 17 177.924804688 17 283.924804688 17 c 128,-1,17
 389.924804688 17 389.924804688 17 461.430664062 75.5 c 128,-1,18
 532.936523438 134 532.936523438 134 557.870117188 242 c 2,19,-1
 654.373046875 660 l 1,20,-1
 684.373046875 660 l 1,4,-1
EndSplineSet
Substitution2: "'c2sc' Capitals to Small Capitals lookup 11 subtable" ugrave.sc
Substitution2: "'aalt' Access All Alternates lookup 0 subtable" ugrave.sc
EndChar

StartChar: Uacute
Encoding: 218 218 156
Width: 689
GlyphClass: 2
Flags: W
LayerCount: 2
Fore
SplineSet
546.703125 891 m 1,0,-1
 581.703125 891 l 1,1,-1
 467.53515625 743 l 1,2,-1
 441.53515625 743 l 1,3,-1
 546.703125 891 l 1,0,-1
684.373046875 660 m 1,4,-1
 586.715820312 237 l 2,5,6
 559.2421875 118 559.2421875 118 478.466796875 54 c 128,-1,7
 397.69140625 -10 397.69140625 -10 277.69140625 -10 c 0,8,9
 158.69140625 -10 158.69140625 -10 107.466796875 54 c 128,-1,10
 56.2421875 118 56.2421875 118 83.7158203125 237 c 2,11,-1
 181.373046875 660 l 1,12,-1
 211.373046875 660 l 1,13,-1
 114.870117188 242 l 2,14,15
 89.9365234375 134 89.9365234375 134 133.930664062 75.5 c 128,-1,16
 177.924804688 17 177.924804688 17 283.924804688 17 c 128,-1,17
 389.924804688 17 389.924804688 17 461.430664062 75.5 c 128,-1,18
 532.936523438 134 532.936523438 134 557.870117188 242 c 2,19,-1
 654.373046875 660 l 1,20,-1
 684.373046875 660 l 1,4,-1
EndSplineSet
Substitution2: "'c2sc' Capitals to Small Capitals lookup 11 subtable" uacute.sc
Substitution2: "'aalt' Access All Alternates lookup 0 subtable" uacute.sc
EndChar

StartChar: Ucircumflex
Encoding: 219 219 157
Width: 689
GlyphClass: 2
Flags: W
LayerCount: 2
Fore
SplineSet
579.303710938 742 m 1,0,-1
 550.303710938 742 l 1,1,-1
 480.393554688 868 l 1,2,-1
 353.303710938 742 l 1,3,-1
 323.303710938 742 l 1,4,-1
 467.2421875 889 l 1,5,-1
 503.2421875 889 l 1,6,-1
 579.303710938 742 l 1,0,-1
684.373046875 660 m 1,7,-1
 586.715820312 237 l 2,8,9
 559.2421875 118 559.2421875 118 478.466796875 54 c 128,-1,10
 397.69140625 -10 397.69140625 -10 277.69140625 -10 c 0,11,12
 158.69140625 -10 158.69140625 -10 107.466796875 54 c 128,-1,13
 56.2421875 118 56.2421875 118 83.7158203125 237 c 2,14,-1
 181.373046875 660 l 1,15,-1
 211.373046875 660 l 1,16,-1
 114.870117188 242 l 2,17,18
 89.9365234375 134 89.9365234375 134 133.930664062 75.5 c 128,-1,19
 177.924804688 17 177.924804688 17 283.924804688 17 c 128,-1,20
 389.924804688 17 389.924804688 17 461.430664062 75.5 c 128,-1,21
 532.936523438 134 532.936523438 134 557.870117188 242 c 2,22,-1
 654.373046875 660 l 1,23,-1
 684.373046875 660 l 1,7,-1
EndSplineSet
Substitution2: "'c2sc' Capitals to Small Capitals lookup 11 subtable" ucircumflex.sc
Substitution2: "'aalt' Access All Alternates lookup 0 subtable" ucircumflex.sc
EndChar

StartChar: Udieresis
Encoding: 220 220 158
Width: 689
GlyphClass: 2
Flags: W
LayerCount: 2
Fore
SplineSet
373.926757812 814 m 0,0,1
 387.926757812 814 387.926757812 814 394.080078125 806 c 128,-1,2
 400.232421875 798 400.232421875 798 397.000976562 784 c 0,3,4
 393.999023438 771 393.999023438 771 383.65234375 763 c 128,-1,5
 373.305664062 755 373.305664062 755 360.305664062 755 c 128,-1,6
 347.305664062 755 347.305664062 755 340.65234375 763 c 128,-1,7
 333.999023438 771 333.999023438 771 337.000976562 784 c 128,-1,8
 340.001953125 797 340.001953125 797 350.463867188 805.5 c 128,-1,9
 360.926757812 814 360.926757812 814 373.926757812 814 c 0,0,1
559.926757812 814 m 0,10,11
 573.926757812 814 573.926757812 814 580.080078125 806 c 128,-1,12
 586.232421875 798 586.232421875 798 583.000976562 784 c 0,13,14
 579.999023438 771 579.999023438 771 569.65234375 763 c 128,-1,15
 559.305664062 755 559.305664062 755 546.305664062 755 c 128,-1,16
 533.305664062 755 533.305664062 755 527.15234375 763 c 128,-1,17
 520.999023438 771 520.999023438 771 524.000976562 784 c 128,-1,18
 527.001953125 797 527.001953125 797 536.963867188 805.5 c 128,-1,19
 546.926757812 814 546.926757812 814 559.926757812 814 c 0,10,11
684.373046875 660 m 1,20,-1
 586.715820312 237 l 2,21,22
 559.2421875 118 559.2421875 118 478.466796875 54 c 128,-1,23
 397.69140625 -10 397.69140625 -10 277.69140625 -10 c 0,24,25
 158.69140625 -10 158.69140625 -10 107.466796875 54 c 128,-1,26
 56.2421875 118 56.2421875 118 83.7158203125 237 c 2,27,-1
 181.373046875 660 l 1,28,-1
 211.373046875 660 l 1,29,-1
 114.870117188 242 l 2,30,31
 89.9365234375 134 89.9365234375 134 133.930664062 75.5 c 128,-1,32
 177.924804688 17 177.924804688 17 283.924804688 17 c 128,-1,33
 389.924804688 17 389.924804688 17 461.430664062 75.5 c 128,-1,34
 532.936523438 134 532.936523438 134 557.870117188 242 c 2,35,-1
 654.373046875 660 l 1,36,-1
 684.373046875 660 l 1,20,-1
EndSplineSet
Substitution2: "'titl' Titling lookup 41 subtable" Udieresis.titl
Substitution2: "'c2sc' Capitals to Small Capitals lookup 11 subtable" udieresis.sc
AlternateSubs2: "'aalt' Access All Alternates lookup 1 subtable" udieresis.sc Udieresis.titl
EndChar

StartChar: Yacute
Encoding: 221 221 159
Width: 525
GlyphClass: 2
Flags: W
LayerCount: 2
Fore
SplineSet
465.703125 891 m 1,0,-1
 500.703125 891 l 1,1,-1
 386.53515625 743 l 1,2,-1
 360.53515625 743 l 1,3,-1
 465.703125 891 l 1,0,-1
598.373046875 660 m 1,4,-1
 273.102539062 256 l 1,5,-1
 214 0 l 1,6,-1
 184 0 l 1,7,-1
 243.102539062 256 l 1,8,-1
 103.373046875 660 l 1,9,-1
 138.373046875 660 l 1,10,-1
 215.197265625 434 l 1,11,-1
 265.490234375 288 l 1,12,-1
 563.373046875 660 l 1,13,-1
 598.373046875 660 l 1,4,-1
EndSplineSet
Substitution2: "'c2sc' Capitals to Small Capitals lookup 11 subtable" yacute.sc
Substitution2: "'aalt' Access All Alternates lookup 0 subtable" yacute.sc
EndChar

StartChar: Thorn
Encoding: 222 222 160
Width: 580
GlyphClass: 2
Flags: W
LayerCount: 2
Fore
SplineSet
359.12890625 529 m 2,0,1
 595.12890625 529 595.12890625 529 551.264648438 339 c 0,2,3
 507.629882812 150 507.629882812 150 271.629882812 150 c 2,4,-1
 101.629882812 150 l 1,5,-1
 67 0 l 1,6,-1
 37 0 l 1,7,-1
 189.373046875 660 l 1,8,-1
 219.373046875 660 l 1,9,-1
 189.12890625 529 l 1,10,-1
 359.12890625 529 l 2,0,1
286.86328125 177 m 2,11,12
 482.86328125 177 482.86328125 177 520.264648438 339 c 128,-1,13
 557.665039062 501 557.665039062 501 361.665039062 501 c 2,14,-1
 182.665039062 501 l 1,15,-1
 107.86328125 177 l 1,16,-1
 286.86328125 177 l 2,11,12
EndSplineSet
Substitution2: "'c2sc' Capitals to Small Capitals lookup 11 subtable" thorn.sc
Substitution2: "'aalt' Access All Alternates lookup 0 subtable" thorn.sc
EndChar

StartChar: germandbls
Encoding: 223 223 161
Width: 569
GlyphClass: 2
Flags: W
LayerCount: 2
Fore
SplineSet
357.729492188 380 m 1,0,1
 445.806640625 376 445.806640625 376 481.185546875 323.5 c 128,-1,2
 516.565429688 271 516.565429688 271 496.7109375 185 c 0,3,4
 476.625 98 476.625 98 411.158203125 44 c 128,-1,5
 345.69140625 -10 345.69140625 -10 257.69140625 -10 c 0,6,7
 186.69140625 -10 186.69140625 -10 162.387695312 32 c 1,8,-1
 179.466796875 54 l 1,9,10
 204.694335938 16 204.694335938 16 264.694335938 16 c 0,11,12
 339.694335938 16 339.694335938 16 394.4296875 62.5 c 128,-1,13
 449.165039062 109 449.165039062 109 467.171875 187 c 0,14,15
 487.48828125 275 487.48828125 275 446.377929688 320 c 128,-1,16
 405.266601562 365 405.266601562 365 316.266601562 365 c 2,17,-1
 273.266601562 365 l 1,18,-1
 279.5 392 l 1,19,-1
 322.5 392 l 2,20,21
 395.5 392 395.5 392 450.774414062 436.5 c 128,-1,22
 506.047851562 481 506.047851562 481 524.055664062 559 c 0,23,24
 540.215820312 629 540.215820312 629 506.834960938 668.5 c 128,-1,25
 473.455078125 708 473.455078125 708 397.455078125 708 c 0,26,27
 215.455078125 708 215.455078125 708 166.97265625 498 c 2,28,-1
 52 0 l 1,29,-1
 23 0 l 1,30,-1
 141.204101562 512 l 2,31,32
 192.688476562 735 192.688476562 735 405.688476562 735 c 0,33,34
 495.688476562 735 495.688476562 735 533.991210938 686.5 c 128,-1,35
 572.293945312 638 572.293945312 638 553.82421875 558 c 0,36,37
 536.740234375 484 536.740234375 484 482.081054688 433.5 c 128,-1,38
 427.422851562 383 427.422851562 383 357.9609375 381 c 1,39,-1
 357.729492188 380 l 1,0,1
EndSplineSet
Substitution2: "Single Substitution lookup 57 subtable" germandbls.calt
Substitution2: "'smcp' Lowercase to Small Capitals lookup 12 subtable" germandbls.sc
AlternateSubs2: "'aalt' Access All Alternates lookup 1 subtable" germandbls.sc germandbls.calt
EndChar

